<?xml version="1.0" encoding="UTF-8" standalone="no"?>
<!-- Created with Inkscape (http://www.inkscape.org/) -->
<svg
   xmlns:a="http://ns.adobe.com/AdobeSVGViewerExtensions/3.0/"
   xmlns:dc="http://purl.org/dc/elements/1.1/"
   xmlns:cc="http://web.resource.org/cc/"
   xmlns:rdf="http://www.w3.org/1999/02/22-rdf-syntax-ns#"
   xmlns:svg="http://www.w3.org/2000/svg"
   xmlns="http://www.w3.org/2000/svg"
   xmlns:xlink="http://www.w3.org/1999/xlink"
   xmlns:sodipodi="http://sodipodi.sourceforge.net/DTD/sodipodi-0.dtd"
   xmlns:inkscape="http://www.inkscape.org/namespaces/inkscape"
   version="1.0"
   width="335.00027"
   height="303.99976"
   id="svg2"
   sodipodi:version="0.32"
   inkscape:version="0.44+devel"
   sodipodi:docname="fig-gfs-gnbd-storage.svg"
   sodipodi:docbase="/tmp/fr-d9VU7W"
   inkscape:output_extension="org.inkscape.output.svg.inkscape"
   inkscape:export-filename="/home/andy/Desktop/stuff/fig-gfs-gnbd-storage.png"
   inkscape:export-xdpi="90"
   inkscape:export-ydpi="90"
   sodipodi:modified="true">
  <metadata
     id="metadata5929">
    <rdf:RDF>
      <cc:Work
         rdf:about="">
        <dc:format>image/svg+xml</dc:format>
        <dc:type
           rdf:resource="http://purl.org/dc/dcmitype/StillImage" />
      </cc:Work>
    </rdf:RDF>
  </metadata>
  <sodipodi:namedview
     inkscape:window-height="1016"
     inkscape:window-width="895"
     inkscape:pageshadow="0"
     inkscape:pageopacity="0.0"
     guidetolerance="10.0"
     gridtolerance="10.0"
     objecttolerance="10.0"
     borderopacity="1.0"
     bordercolor="#666666"
     pagecolor="#ffffff"
     id="base"
     inkscape:zoom="1"
     inkscape:cx="198.09748"
     inkscape:cy="190.89073"
     inkscape:window-x="521"
     inkscape:window-y="39"
     inkscape:current-layer="svg2"
     showgrid="false" />
  <defs
     id="defs5">
    <linearGradient
       id="linearGradient3987">
      <stop
         style="stop-color:#e3dcc0;stop-opacity:0;"
         offset="0"
         id="stop3989" />
      <stop
         style="stop-color:#e3dcc0;stop-opacity:1;"
         offset="1"
         id="stop3991" />
    </linearGradient>
    <radialGradient
       inkscape:collect="always"
       xlink:href="#linearGradient3987"
       id="radialGradient4023"
       gradientUnits="userSpaceOnUse"
       gradientTransform="matrix(1.886887,0,0,1.602074,-235.025,-437.5826)"
       cx="265"
       cy="789.56696"
       fx="265"
       fy="789.56696"
       r="265" />
    <pattern
       inkscape:collect="always"
       xlink:href="#white-spots"
       id="pattern4015"
       patternTransform="matrix(0.375,0,0,0.375,379,437.7952)" />
    <pattern
       inkscape:collect="always"
       xlink:href="#pattern4015"
       id="pattern4062"
       patternTransform="matrix(0.593284,0,0,0.555099,1.104088,642.416)" />
    <pattern
       patternTransform="matrix(0.375,0,0,0.375,71.51384,20.36167)"
       id="white-spots"
       height="32"
       width="32"
       patternUnits="userSpaceOnUse">
      <g
         transform="translate(-484.3997,-513.505)"
         id="white-spot"
         inkscape:label="#g3035">
        <path
           style="opacity:0.25;fill:white"
           id="path3033"
           d="M 509.39967,529.50504 C 509.39967,534.47304 505.36767,538.50504 500.39967,538.50504 C 495.43167,538.50504 491.39967,534.47304 491.39967,529.50504 C 491.39967,524.53704 495.43167,520.50504 500.39967,520.50504 C 505.36767,520.50504 509.39967,524.53704 509.39967,529.50504 z "
           sodipodi:nodetypes="czzzz" />
      </g>
    </pattern>
    <radialGradient
       cx="603.19"
       cy="230.77"
       r="1.67"
       fx="603.19"
       fy="230.77"
       id="x5010_"
       gradientUnits="userSpaceOnUse"
       gradientTransform="matrix(1.1,0,0,1.1,-54.33,-75.4)">
      <stop
         style="stop-color:#c9ffc9;stop-opacity:1"
         offset="0"
         id="stop29201" />
      <stop
         style="stop-color:#23a11f;stop-opacity:1"
         offset="1"
         id="stop29203" />
      <a:midPointStop
         offset="0"
         style="stop-color:#C9FFC9" />
      <a:midPointStop
         offset="0.5"
         style="stop-color:#C9FFC9" />
      <a:midPointStop
         offset="1"
         style="stop-color:#23A11F" />
    </radialGradient>
    <radialGradient
       cx="603.19"
       cy="230.77"
       r="1.67"
       fx="603.19"
       fy="230.77"
       id="radialGradient4461"
       xlink:href="#x5010_"
       gradientUnits="userSpaceOnUse"
       gradientTransform="matrix(1.600594,-0.38982,0.527814,0.801718,-1054.895,88.89791)" />
    <linearGradient
       x1="592.31"
       y1="162.60001"
       x2="609.32001"
       y2="145.59"
       id="linearGradient4459"
       xlink:href="#x5003_"
       gradientUnits="userSpaceOnUse"
       gradientTransform="matrix(1.12,0,0,1.12,-649.08,-160.62)" />
    <linearGradient
       x1="601.48999"
       y1="170.16"
       x2="613.84003"
       y2="170.16"
       id="x5002_"
       gradientUnits="userSpaceOnUse">
      <stop
         style="stop-color:#d9d9d9;stop-opacity:1"
         offset="0"
         id="stop29134" />
      <stop
         style="stop-color:white;stop-opacity:1"
         offset="0.2"
         id="stop29136" />
      <stop
         style="stop-color:#999;stop-opacity:1"
         offset="1"
         id="stop29138" />
      <a:midPointStop
         offset="0"
         style="stop-color:#D9D9D9" />
      <a:midPointStop
         offset="0.5"
         style="stop-color:#D9D9D9" />
      <a:midPointStop
         offset="0.20"
         style="stop-color:#FFFFFF" />
      <a:midPointStop
         offset="0.5"
         style="stop-color:#FFFFFF" />
      <a:midPointStop
         offset="1"
         style="stop-color:#999999" />
    </linearGradient>
    <linearGradient
       x1="601.48999"
       y1="170.16"
       x2="613.84003"
       y2="170.16"
       id="linearGradient4457"
       xlink:href="#x5002_"
       gradientUnits="userSpaceOnUse"
       gradientTransform="matrix(1.12,0,0,1.12,-649.08,-160.62)" />
    <linearGradient
       x1="592.20001"
       y1="156.45"
       x2="609.98999"
       y2="174.23"
       id="x5004_"
       gradientUnits="userSpaceOnUse"
       gradientTransform="matrix(1.12,0,0,1.12,-649.08,-160.62)">
      <stop
         style="stop-color:#d9d9d9;stop-opacity:1"
         offset="0"
         id="stop29157" />
      <stop
         style="stop-color:white;stop-opacity:1"
         offset="1"
         id="stop29159" />
      <a:midPointStop
         offset="0"
         style="stop-color:#D9D9D9" />
      <a:midPointStop
         offset="0.5"
         style="stop-color:#D9D9D9" />
      <a:midPointStop
         offset="1"
         style="stop-color:#FFFFFF" />
    </linearGradient>
    <linearGradient
       x1="592.20001"
       y1="156.45"
       x2="609.98999"
       y2="174.23"
       id="linearGradient4455"
       xlink:href="#x5004_"
       gradientUnits="userSpaceOnUse"
       gradientTransform="matrix(1.12,0,0,1.12,-649.08,-160.62)" />
    <linearGradient
       x1="592.31"
       y1="162.60001"
       x2="609.32001"
       y2="145.59"
       id="x5003_"
       gradientUnits="userSpaceOnUse">
      <stop
         style="stop-color:#f2f2f2;stop-opacity:1"
         offset="0"
         id="stop29143" />
      <stop
         style="stop-color:#e5e5e5;stop-opacity:1"
         offset="1"
         id="stop29145" />
      <a:midPointStop
         offset="0"
         style="stop-color:#F2F2F2" />
      <a:midPointStop
         offset="0.5"
         style="stop-color:#F2F2F2" />
      <a:midPointStop
         offset="1"
         style="stop-color:#E5E5E5" />
    </linearGradient>
    <linearGradient
       x1="592.31"
       y1="162.60001"
       x2="609.32001"
       y2="145.59"
       id="linearGradient4453"
       xlink:href="#x5003_"
       gradientUnits="userSpaceOnUse"
       gradientTransform="matrix(1.12,0,0,1.12,-649.08,-160.62)" />
    <linearGradient
       x1="592.20001"
       y1="156.45"
       x2="609.98999"
       y2="174.24001"
       id="x5000_"
       gradientUnits="userSpaceOnUse"
       gradientTransform="matrix(1.12,0,0,1.12,-649.08,-160.62)">
      <stop
         style="stop-color:#d9d9d9;stop-opacity:1"
         offset="0"
         id="stop29124" />
      <stop
         style="stop-color:white;stop-opacity:1"
         offset="1"
         id="stop29126" />
      <a:midPointStop
         offset="0"
         style="stop-color:#D9D9D9" />
      <a:midPointStop
         offset="0.5"
         style="stop-color:#D9D9D9" />
      <a:midPointStop
         offset="1"
         style="stop-color:#FFFFFF" />
    </linearGradient>
    <linearGradient
       x1="592.20001"
       y1="156.45"
       x2="609.98999"
       y2="174.24001"
       id="linearGradient4451"
       xlink:href="#x5000_"
       gradientUnits="userSpaceOnUse"
       gradientTransform="matrix(1.12,0,0,1.12,-649.08,-160.62)" />
    <linearGradient
       x1="200.7363"
       y1="100.4028"
       x2="211.99519"
       y2="89.143997"
       id="XMLID_3298_"
       gradientUnits="userSpaceOnUse">
      <stop
         style="stop-color:#bfbfbf;stop-opacity:1"
         offset="0"
         id="stop20103" />
      <stop
         style="stop-color:#f2f2f2;stop-opacity:1"
         offset="1"
         id="stop20105" />
      <a:midPointStop
         offset="0"
         style="stop-color:#BFBFBF" />
      <a:midPointStop
         offset="0.5"
         style="stop-color:#BFBFBF" />
      <a:midPointStop
         offset="1"
         style="stop-color:#F2F2F2" />
    </linearGradient>
    <linearGradient
       x1="200.7363"
       y1="100.4028"
       x2="211.99519"
       y2="89.143997"
       id="linearGradient4488"
       xlink:href="#XMLID_3298_"
       gradientUnits="userSpaceOnUse"
       gradientTransform="matrix(1.029078,0,0,1,-183.2624,-79.44655)" />
    <linearGradient
       x1="181.2925"
       y1="110.8481"
       x2="192.6369"
       y2="99.5037"
       id="XMLID_3297_"
       gradientUnits="userSpaceOnUse">
      <stop
         style="stop-color:#e5e5e5;stop-opacity:1"
         offset="0"
         id="stop20096" />
      <stop
         style="stop-color:#ccc;stop-opacity:1"
         offset="1"
         id="stop20098" />
      <a:midPointStop
         offset="0"
         style="stop-color:#E5E5E5" />
      <a:midPointStop
         offset="0.5"
         style="stop-color:#E5E5E5" />
      <a:midPointStop
         offset="1"
         style="stop-color:#CCCCCC" />
    </linearGradient>
    <linearGradient
       x1="181.2925"
       y1="110.8481"
       x2="192.6369"
       y2="99.5037"
       id="linearGradient4486"
       xlink:href="#XMLID_3297_"
       gradientUnits="userSpaceOnUse"
       gradientTransform="matrix(1.029078,0,0,1,-183.2624,-79.44655)" />
    <linearGradient
       x1="211.77589"
       y1="105.7749"
       x2="212.6619"
       y2="108.2092"
       id="XMLID_3296_"
       gradientUnits="userSpaceOnUse">
      <stop
         style="stop-color:#0f6124;stop-opacity:1"
         offset="0"
         id="stop20087" />
      <stop
         style="stop-color:#219630;stop-opacity:1"
         offset="1"
         id="stop20089" />
      <a:midPointStop
         offset="0"
         style="stop-color:#0F6124" />
      <a:midPointStop
         offset="0.5"
         style="stop-color:#0F6124" />
      <a:midPointStop
         offset="1"
         style="stop-color:#219630" />
    </linearGradient>
    <linearGradient
       x1="211.77589"
       y1="105.7749"
       x2="212.6619"
       y2="108.2092"
       id="linearGradient4484"
       xlink:href="#XMLID_3296_"
       gradientUnits="userSpaceOnUse"
       gradientTransform="matrix(1.029078,0,0,1,-183.2624,-79.44655)" />
    <linearGradient
       x1="208.9834"
       y1="116.8296"
       x2="200.0811"
       y2="96.834602"
       id="XMLID_3295_"
       gradientUnits="userSpaceOnUse">
      <stop
         style="stop-color:#b2b2b2;stop-opacity:1"
         offset="0"
         id="stop20076" />
      <stop
         style="stop-color:#e5e5e5;stop-opacity:1"
         offset="0.5"
         id="stop20078" />
      <stop
         style="stop-color:white;stop-opacity:1"
         offset="1"
         id="stop20080" />
      <a:midPointStop
         offset="0"
         style="stop-color:#B2B2B2" />
      <a:midPointStop
         offset="0.5"
         style="stop-color:#B2B2B2" />
      <a:midPointStop
         offset="0.5"
         style="stop-color:#E5E5E5" />
      <a:midPointStop
         offset="0.5"
         style="stop-color:#E5E5E5" />
      <a:midPointStop
         offset="1"
         style="stop-color:#FFFFFF" />
    </linearGradient>
    <linearGradient
       x1="208.9834"
       y1="116.8296"
       x2="200.0811"
       y2="96.834602"
       id="linearGradient4482"
       xlink:href="#XMLID_3295_"
       gradientUnits="userSpaceOnUse"
       gradientTransform="matrix(1.029078,0,0,1,-183.2624,-79.44655)" />
    <linearGradient
       x1="195.5264"
       y1="97.911102"
       x2="213.5213"
       y2="115.9061"
       id="XMLID_3294_"
       gradientUnits="userSpaceOnUse">
      <stop
         style="stop-color:#ccc;stop-opacity:1"
         offset="0"
         id="stop20069" />
      <stop
         style="stop-color:white;stop-opacity:1"
         offset="1"
         id="stop20071" />
      <a:midPointStop
         offset="0"
         style="stop-color:#CCCCCC" />
      <a:midPointStop
         offset="0.5"
         style="stop-color:#CCCCCC" />
      <a:midPointStop
         offset="1"
         style="stop-color:#FFFFFF" />
    </linearGradient>
    <linearGradient
       x1="195.5264"
       y1="97.911102"
       x2="213.5213"
       y2="115.9061"
       id="linearGradient4480"
       xlink:href="#XMLID_3294_"
       gradientUnits="userSpaceOnUse"
       gradientTransform="matrix(1.029078,0,0,1,-183.2624,-79.44655)" />
    <linearGradient
       x1="186.1938"
       y1="109.1343"
       x2="206.6881"
       y2="88.639999"
       id="XMLID_3293_"
       gradientUnits="userSpaceOnUse">
      <stop
         style="stop-color:#b2b2b2;stop-opacity:1"
         offset="0"
         id="stop20056" />
      <stop
         style="stop-color:#e5e5e5;stop-opacity:1"
         offset="0.16850001"
         id="stop20058" />
      <stop
         style="stop-color:white;stop-opacity:1"
         offset="0.23029999"
         id="stop20060" />
      <stop
         style="stop-color:#e5e5e5;stop-opacity:1"
         offset="0.2809"
         id="stop20062" />
      <stop
         style="stop-color:#c2c2c2;stop-opacity:1"
         offset="0.5"
         id="stop20064" />
      <a:midPointStop
         offset="0"
         style="stop-color:#B2B2B2" />
      <a:midPointStop
         offset="0.5"
         style="stop-color:#B2B2B2" />
      <a:midPointStop
         offset="0.1685"
         style="stop-color:#E5E5E5" />
      <a:midPointStop
         offset="0.5"
         style="stop-color:#E5E5E5" />
      <a:midPointStop
         offset="0.2303"
         style="stop-color:#FFFFFF" />
      <a:midPointStop
         offset="0.5"
         style="stop-color:#FFFFFF" />
      <a:midPointStop
         offset="0.2809"
         style="stop-color:#E5E5E5" />
      <a:midPointStop
         offset="0.5"
         style="stop-color:#E5E5E5" />
      <a:midPointStop
         offset="0.5"
         style="stop-color:#C2C2C2" />
    </linearGradient>
    <linearGradient
       x1="186.1938"
       y1="109.1343"
       x2="206.6881"
       y2="88.639999"
       id="linearGradient4478"
       xlink:href="#XMLID_3293_"
       gradientUnits="userSpaceOnUse"
       gradientTransform="matrix(1.029078,0,0,1,-183.2624,-79.44655)" />
    <linearGradient
       x1="184.8569"
       y1="112.2676"
       x2="211.94099"
       y2="89.541397"
       id="XMLID_3292_"
       gradientUnits="userSpaceOnUse">
      <stop
         style="stop-color:#b2b2b2;stop-opacity:1"
         offset="0"
         id="stop20043" />
      <stop
         style="stop-color:#e5e5e5;stop-opacity:1"
         offset="0.16850001"
         id="stop20045" />
      <stop
         style="stop-color:white;stop-opacity:1"
         offset="0.23029999"
         id="stop20047" />
      <stop
         style="stop-color:#e5e5e5;stop-opacity:1"
         offset="0.2809"
         id="stop20049" />
      <stop
         style="stop-color:#ccc;stop-opacity:1"
         offset="1"
         id="stop20051" />
      <a:midPointStop
         offset="0"
         style="stop-color:#B2B2B2" />
      <a:midPointStop
         offset="0.5"
         style="stop-color:#B2B2B2" />
      <a:midPointStop
         offset="0.1685"
         style="stop-color:#E5E5E5" />
      <a:midPointStop
         offset="0.5"
         style="stop-color:#E5E5E5" />
      <a:midPointStop
         offset="0.2303"
         style="stop-color:#FFFFFF" />
      <a:midPointStop
         offset="0.5"
         style="stop-color:#FFFFFF" />
      <a:midPointStop
         offset="0.2809"
         style="stop-color:#E5E5E5" />
      <a:midPointStop
         offset="0.5"
         style="stop-color:#E5E5E5" />
      <a:midPointStop
         offset="1"
         style="stop-color:#CCCCCC" />
    </linearGradient>
    <linearGradient
       x1="184.8569"
       y1="112.2676"
       x2="211.94099"
       y2="89.541397"
       id="linearGradient4476"
       xlink:href="#XMLID_3292_"
       gradientUnits="userSpaceOnUse"
       gradientTransform="matrix(1.029078,0,0,1,-183.2624,-79.44655)" />
  </defs>
  <g
     transform="matrix(0.632076,0,0,0.675555,0,-406.9288)"
     id="background"
     inkscape:label="#g4018">
    <rect
       ry="29.605263"
       rx="31.641792"
       y="602.36218"
       x="0"
       height="450"
       width="530"
       id="rect1933"
       style="fill:#e3dcc0" />
    <rect
       style="fill:url(#pattern4062);fill-opacity:1"
       id="rect3092"
       width="530"
       height="450"
       x="0"
       y="602.36218"
       rx="31.641792"
       ry="29.605263" />
    <rect
       ry="29.605263"
       rx="31.641792"
       y="602.36218"
       x="0"
       height="450"
       width="530"
       id="rect3985"
       style="fill:url(#radialGradient4023);fill-opacity:1" />
  </g>
  <rect
     id="rect3752"
     style="opacity:1;fill:#dc9f2e"
     y="142.6602"
     x="17.797213"
     ry="10"
     rx="10"
     height="66.22068"
     width="300" />
  <rect
     width="300"
     height="30"
     rx="9.5"
     ry="9.5"
     x="17.797213"
     y="45.690201"
     style="opacity:1;fill:#4e376b"
     id="rect3526" />
  <rect
     width="300"
     height="23.526731"
     rx="10"
     ry="10"
     x="17.797213"
     y="114.65237"
     style="opacity:1;fill:#abb400;stroke-width:2;stroke-miterlimit:4;stroke-dasharray:none"
     id="rect3202" />
  <path
     d="M 206.02863,128.18142 L 206.02863,107.03319 M 69.92203,128.18142 L 69.92203,164.40934 M 73.04824,107.03319 L 73.04824,128.18142 M 134.92203,164.65934 L 134.92203,128.43142 M 212.04075,164.76289 L 212.04075,128.53497 M 140.98574,107.03319 L 140.98574,128.18142"
     style="fill:none;stroke:white;stroke-width:2"
     id="path2274"
     sodipodi:nodetypes="cccccccccccc" />
  <text
     x="172.03749"
     y="29.265898"
     style="font-size:12px;font-style:normal;font-variant:normal;font-weight:normal;font-stretch:normal;text-align:center;line-height:125%;writing-mode:lr-tb;text-anchor:middle;fill:#a70000;font-family:Interstate-Bold"
     id="text1883"
     xml:space="preserve"
     sodipodi:linespacing="125%"><tspan
       x="172.03749"
       y="29.265898"
       id="tspan1885">Red Hat cluster nodes</tspan></text>
  <rect
     width="300"
     height="69.738991"
     rx="10"
     ry="10"
     x="17.797213"
     y="213.36197"
     style="opacity:1;fill:#a70000"
     id="rect4490" />
  <path
     d="M 62.088556,204.46586 L 80.061178,237.43659 M 42.977247,238.152 L 62.088556,204.46586"
     style="fill:none;stroke:white;stroke-width:2"
     id="path4425" />
  <rect
     width="300"
     height="30"
     rx="9"
     ry="9"
     x="17.797213"
     y="80.171295"
     style="opacity:1;fill:#2c8596"
     id="rect3528" />
  <g
     transform="translate(69.50104,2.325937e-2)"
     id="g4427">
    <g
       transform="translate(-28.64416,68.5008)"
       id="layer1">
      <g
         transform="matrix(-0.265198,0.633765,-0.989727,-0.169818,54.14513,21.37572)"
         id="g5739">
        <path
           d="M 10.98,7.35 L 10.98,31.17 L 24.76,45.05 C 24.76,45.05 28.25,45.27 31.9,44.16 C 35.55,43.05 36.95,41.49 36.95,41.49 L 36.95,17.46 L 23.59,4.07 L 10.98,7.35 z "
           style="fill:url(#linearGradient4451)"
           id="path3161" />
        <path
           d="M 36.18,16.79 L 23.61,3.9 L 10.61,7.23 L 24.81,21.11 C 24.81,21.11 28.44,21 31.76,20.11 C 35.07,19.22 37.03,17.66 37.03,17.66 L 36.18,16.79 z "
           style="fill:url(#linearGradient4453)"
           id="path3163" />
        <path
           d="M 11.370369,7.2454004 L 11.370369,31.0654 L 25.150369,44.9454 C 25.150369,44.9454 27.926315,45.167115 31.576315,44.057115 C 35.226315,42.947115 36.95,41.49 36.95,41.49 L 36.95,17.46 L 23.59,4.07 L 11.370369,7.2454004 z "
           style="fill:none;stroke:black;stroke-width:2.53980684;stroke-linecap:round;stroke-linejoin:round"
           id="path3165" />
        <path
           d="M 10.98,7.35 L 10.98,31.17 L 24.76,45.05 C 24.76,45.05 28.25,45.27 31.9,44.16 C 35.55,43.05 36.95,41.49 36.95,41.49 L 36.95,17.46 L 23.59,4.07 L 10.98,7.35 z "
           style="fill:url(#linearGradient4455)"
           id="path3167" />
        <path
           d="M 24.52,14.7 L 37,17.81 L 37,41.59 C 31.807214,44.777087 29.294525,44.990682 24.7,45 L 24.52,14.7 z "
           style="fill:url(#linearGradient4457)"
           id="path3169" />
        <path
           d="M 23.58,4.02 L 11.03,7.42 L 24.81,21.11 C 24.81,21.11 28.44,21 31.76,20.11 C 35.07,19.22 37.03,17.66 37.03,17.66 L 23.58,4.02 z "
           style="fill:url(#linearGradient4459)"
           id="path3171" />
        <path
           d="M 11.270005,7.5799999 L 24.299024,21.259597 C 24.299024,21.259597 27.343428,21.513969 30.787985,20.589018 C 34.090982,19.701805 35.630425,18.031429 35.630425,18.031429"
           style="fill:none;stroke:white;stroke-width:0.63166195;stroke-linecap:round"
           id="path3173" />
        <path
           d="M 24.74,21.3 L 24.74,44.76"
           style="fill:none;stroke:white;stroke-width:0.63166177;stroke-linecap:round"
           id="path3175" />
        <path
           d="M 27.44,23.79 C 30.4,23.66 33.22,22.96 35.54,21.38 C 35.75,21.91 35.7,23.06 35.54,23.36 C 35.45,23.45 34.62,23.99 33.18,24.54 C 31.77,25.07 29.77,25.62 27.47,25.68 C 27.19,25.22 27.27,24.04 27.44,23.79 z "
           style="fill:gray"
           id="path3177" />
        <path
           d="M 35.53,23.38 L 27.44,25.56 C 27.45,25.6 27.45,25.66 27.47,25.69 C 29.78,25.63 31.78,25.07 33.19,24.53 C 34.63,23.98 35.44,23.46 35.53,23.38 z "
           style="fill:#b2b2b2"
           id="path3179" />
        <path
           d="M 27.44,27.28 C 30.4,27.16 33.22,26.46 35.54,24.88 C 35.75,25.4 35.7,26.56 35.54,26.86 C 35.45,26.95 34.62,27.49 33.18,28.03 C 31.77,28.57 29.77,29.12 27.47,29.18 C 27.19,28.72 27.27,27.54 27.44,27.28 z "
           style="fill:gray"
           id="path3181" />
        <path
           d="M 35.53,26.87 L 27.44,29.06 C 27.45,29.1 27.45,29.16 27.47,29.19 C 29.78,29.13 31.78,28.57 33.19,28.03 C 34.63,27.48 35.44,26.96 35.53,26.87 z "
           style="fill:#b2b2b2"
           id="path3183" />
        <path
           d="M 27.21,42.71 L 27.21,31.52 C 27.21,31.52 29,31.51 31.85,30.69 C 34.68,29.87 35.58,29.02 35.58,29.02 L 35.58,40.05 C 35.58,40.05 34.21,41.19 31.54,41.98 C 28.88,42.76 27.21,42.71 27.21,42.71 z "
           style="fill:none;stroke:#b2b2b2;stroke-width:0.63166177;stroke-linecap:round;stroke-linejoin:round"
           id="path3185" />
        <path
           d="M 31.488395,38.153143 C 32.204946,37.842492 33.031534,37.951268 33.319042,38.387977 C 33.60655,38.824686 33.247701,39.426376 32.531151,39.737026 C 31.814601,40.047676 31.00532,39.942248 30.7221,39.512058 C 30.42601,39.062314 30.771847,38.463793 31.488395,38.153143 z "
           style="fill:url(#radialGradient4461);stroke:#328e36;stroke-width:0.57902306"
           id="path3187" />
      </g>
      <use
         transform="translate(0,-10.37944)"
         id="use2205"
         x="0"
         y="0"
         width="48"
         height="48"
         xlink:href="#g5739" />
      <use
         transform="translate(0,-10.56273)"
         id="use2207"
         x="0"
         y="0"
         width="48"
         height="48"
         xlink:href="#use2205" />
      <use
         transform="translate(0,-21.16933)"
         id="use2055"
         x="0"
         y="0"
         width="48"
         height="48"
         xlink:href="#use2205" />
      <use
         transform="translate(0,-31.77593)"
         id="use2057"
         x="0"
         y="0"
         width="48"
         height="48"
         xlink:href="#use2205" />
    </g>
    <use
       transform="translate(69.3878,1.720596e-6)"
       id="use2061"
       x="0"
       y="0"
       width="1"
       height="1"
       xlink:href="#layer1" />
    <use
       transform="translate(138.7756,1.720596e-6)"
       id="use2059"
       x="0"
       y="0"
       width="178"
       height="250"
       xlink:href="#layer1" />
  </g>
  <g
     transform="translate(24.19415,31.27094)"
     id="g4463">
    <g
       transform="matrix(0.871868,0,0,0.871868,-1.947094,185.1949)"
       id="g36679">
      <path
         d="M 15.668619,34.233452 L 3.0932858,22.173452 C 2.9697964,22.033452 2.897761,21.843452 2.897761,21.613452 L 2.897761,14.893452 C 2.897761,14.313452 3.3814276,13.723452 3.9885836,13.573452 L 25.321371,8.4434523 C 25.691839,8.3534523 26.010853,8.4534523 26.206378,8.6734523 L 38.76113,20.703452 C 38.9052,20.883452 38.977236,21.063452 38.977236,21.283452 L 38.977236,28.003452 C 38.977236,28.583452 38.493569,29.173452 37.886413,29.323452 L 16.553626,34.453452 C 16.183158,34.533452 15.864144,34.443452 15.668619,34.233452 z "
         style="fill:url(#linearGradient4476);stroke:black;stroke-width:2.29392314;stroke-miterlimit:3.86369991;stroke-dasharray:none"
         id="path20053" />
      <path
         d="M 15.668621,34.233452 L 3.093286,22.173452 C 2.9697967,22.033452 2.8977612,21.843452 2.8977612,21.613452 L 2.8977612,14.893452 C 2.8977612,14.313452 3.3814279,13.723452 3.988584,13.573452 L 25.321373,8.4434523 C 25.691841,8.3534523 26.010855,8.4534523 26.20638,8.6734523 L 38.792005,20.743452 L 15.668621,34.233452 z "
         style="fill:url(#linearGradient4478);fill-rule:evenodd"
         id="path20066" />
      <path
         d="M 16.543337,25.613452 L 37.876126,20.483452 C 38.472991,20.343452 38.966948,20.693452 38.966948,21.273452 L 38.966948,27.993452 C 38.966948,28.573452 38.483282,29.163452 37.876126,29.313452 L 16.543337,34.443452 C 15.946472,34.593452 15.452514,34.233452 15.452514,33.653452 L 15.452514,26.933452 C 15.452514,26.353452 15.936181,25.763452 16.543337,25.613452 z "
         style="fill:url(#linearGradient4480);fill-rule:evenodd"
         id="path20073" />
      <path
         d="M 37.258679,20.193452 C 38.298048,19.923452 38.966948,20.423452 38.966948,21.493452 L 38.966948,27.873452 C 38.966948,28.633452 38.370083,29.333452 37.639438,29.513452 L 17.212238,34.573452 C 16.656536,34.703452 15.503968,34.713452 15.503968,33.413452 L 15.503968,26.893452 C 15.503968,26.133452 16.100833,25.433452 16.831479,25.253452 L 37.258679,20.193452 z M 16.471301,33.683452 C 16.533046,33.683452 16.646245,33.683452 16.821188,33.643452 L 37.258679,28.583452 C 37.67031,28.483452 37.999615,28.053452 37.999615,27.713452 L 37.999615,21.333452 C 37.999615,21.183452 37.999615,21.123452 37.979033,21.073452 C 37.917289,21.073452 37.80409,21.083452 37.639438,21.123452 L 17.201947,26.193452 C 16.790316,26.293452 16.461011,26.723452 16.461011,27.063452 L 16.461011,33.583452 L 16.471301,33.683452 z "
         style="fill:url(#linearGradient4482)"
         id="path20082" />
      <path
         d="M 34.222898,26.90345 L 36.023785,26.49345 C 37.176353,26.23345 37.176353,27.91345 36.023785,28.17345 L 34.222898,28.58345 C 33.070331,28.85345 33.070331,27.16345 34.222898,26.90345 z "
         style="fill:url(#linearGradient4484)"
         id="path20091" />
      <line
         style="fill:none;stroke:#7cc771;stroke-width:1.4877522;stroke-linecap:round;stroke-miterlimit:3.86369991"
         id="line20093"
         y2="27.22345"
         x2="35.890015"
         y1="27.623451"
         x1="34.161156"
         stroke-miterlimit="3.8637" />
      <path
         d="M 3.7210237,21.753452 L 14.546925,31.813452 L 14.495472,28.473452 C 12.622549,29.333452 3.7210237,19.643452 3.7210237,19.643452 L 3.7210237,21.753452 z "
         style="fill:url(#linearGradient4486);fill-rule:evenodd"
         id="path20100" />
      <path
         d="M 25.506607,9.3634523 L 36.394253,19.493452 L 25.249338,22.433452 C 17.386146,15.343452 19.091329,10.003452 22.995657,10.003452 L 25.506607,9.3634523 z "
         style="fill:url(#linearGradient4488);fill-rule:evenodd"
         id="path20107" />
    </g>
    <use
       transform="translate(36.06496,2.005013e-6)"
       id="use2615"
       x="0"
       y="0"
       width="1"
       height="1"
       xlink:href="#g36679" />
  </g>
  <text
     x="308.59171"
     y="64.428215"
     style="font-size:10px;font-style:normal;font-variant:normal;font-weight:normal;font-stretch:normal;text-align:end;line-height:125%;writing-mode:lr-tb;text-anchor:end;fill:white;font-family:Interstate-Bold"
     id="text3530"
     xml:space="preserve"
     sodipodi:linespacing="125%"><tspan
       x="308.59171"
       y="64.428215"
       id="tspan3532"
       style="font-size:10px;font-style:normal;font-variant:normal;font-weight:normal;font-stretch:normal;text-align:end;line-height:125%;writing-mode:lr-tb;text-anchor:end;font-family:Interstate-Bold">Applications</tspan></text>
  <text
     x="307.03217"
     y="97.830025"
     style="font-size:10px;font-style:normal;font-variant:normal;font-weight:normal;font-stretch:normal;text-align:end;line-height:125%;writing-mode:lr-tb;text-anchor:end;fill:white;font-family:Interstate-Bold"
     id="text3534"
     xml:space="preserve"
     sodipodi:linespacing="125%"><tspan
       x="307.03217"
       y="97.830025"
       id="tspan3536"
       style="font-size:10px;font-style:normal;font-variant:normal;font-weight:normal;font-stretch:normal;text-align:end;line-height:125%;writing-mode:lr-tb;text-anchor:end;font-family:Interstate-Bold">GFS</tspan></text>
  <use
     transform="translate(73.47056,3.764459e-7)"
     id="use4109"
     x="0"
     y="0"
     width="1"
     height="1"
     xlink:href="#path4425" />
  <use
     transform="translate(143.6899,3.764459e-7)"
     id="use4107"
     x="0"
     y="0"
     width="237"
     height="331"
     xlink:href="#path4425" />
  <use
     transform="translate(-0.66291,98.51472)"
     id="use2266"
     x="0"
     y="0"
     width="169"
     height="246"
     xlink:href="#g4427" />
  <text
     x="310.33154"
     y="129.91574"
     style="font-size:10px;font-style:normal;font-variant:normal;font-weight:normal;font-stretch:normal;text-align:end;line-height:125%;writing-mode:lr-tb;text-anchor:end;fill:white;font-family:Interstate-Bold"
     id="text2297"
     xml:space="preserve"
     sodipodi:linespacing="125%"><tspan
       x="310.33154"
       y="129.91574"
       id="tspan2299"
       style="font-size:10px;font-style:normal;font-variant:normal;font-weight:normal;font-stretch:normal;text-align:end;line-height:125%;writing-mode:lr-tb;text-anchor:end;fill:white;font-family:Interstate-Bold">LAN</tspan></text>
  <use
     transform="translate(77.52439,4.376446e-6)"
     id="use4207"
     x="0"
     y="0"
     width="1"
     height="1"
     xlink:href="#g4463" />
  <use
     transform="translate(152.9483,-4.623554e-6)"
     id="use4205"
     x="0"
     y="0"
     width="237"
     height="331"
     xlink:href="#g4463" />
  <g
     id="g5134"
     style="fill:#e3dcc0"
     transform="translate(10.5,-14.48493)">
    <text
       x="15"
       y="275"
       style="font-size:10px;font-style:normal;font-variant:normal;font-weight:normal;font-stretch:normal;text-align:start;line-height:125%;writing-mode:lr-tb;text-anchor:start;fill:#e3dcc0;font-family:Interstate-Bold"
       id="text5114"
       xml:space="preserve"
       sodipodi:linespacing="125%"><tspan
         x="15"
         y="275"
         id="tspan5116"
         style="fill:#e3dcc0">Disk</tspan></text>
    <use
       transform="translate(41.6,0)"
       id="use5120"
       x="0"
       y="0"
       width="1"
       height="1"
       xlink:href="#text5114"
       style="fill:#e3dcc0" />
    <use
       transform="translate(80.7,0)"
       id="use5122"
       x="0"
       y="0"
       width="1"
       height="1"
       xlink:href="#text5114"
       style="fill:#e3dcc0" />
    <use
       transform="translate(117.3,0)"
       id="use5124"
       x="0"
       y="0"
       width="1"
       height="1"
       xlink:href="#text5114"
       style="fill:#e3dcc0" />
    <use
       transform="translate(156.4,0)"
       id="use5128"
       x="0"
       y="0"
       width="1"
       height="1"
       xlink:href="#text5114"
       style="fill:#e3dcc0" />
    <use
       transform="translate(195.5,0)"
       id="use5118"
       x="0"
       y="0"
       width="315"
       height="290"
       xlink:href="#text5114"
       style="fill:#e3dcc0" />
    <text
       x="22.5"
       y="286.5"
       style="font-size:10px;font-style:normal;font-variant:normal;font-weight:normal;font-stretch:normal;text-align:start;line-height:125%;writing-mode:lr-tb;text-anchor:start;fill:#e3dcc0;font-family:Interstate-Bold"
       id="text5130"
       xml:space="preserve"
       sodipodi:linespacing="125%"><tspan
         x="22.5"
         y="286.5"
         style="font-size:10px;font-style:normal;font-variant:normal;font-weight:normal;font-stretch:normal;text-align:start;line-height:125%;letter-spacing:14.56300354;writing-mode:lr-tb;text-anchor:start;fill:#e3dcc0;font-family:Interstate-Bold"
         id="tspan5132">A B C D E F</tspan></text>
  </g>
  <flowRoot
     transform="translate(-135.6416,33.01387)"
     style="font-size:10px;font-style:normal;font-variant:normal;font-weight:normal;font-stretch:normal;text-align:end;line-height:125%;writing-mode:lr-tb;text-anchor:end;fill:white;font-family:Interstate-Bold"
     id="flowRoot5248"
     xml:space="preserve"><flowRegion
       id="flowRegion5250"><rect
         width="64.068542"
         height="47.17514"
         x="379.00925"
         y="131.4487"
         style="font-size:10px;font-style:normal;font-variant:normal;font-weight:normal;font-stretch:normal;text-align:end;line-height:125%;writing-mode:lr-tb;text-anchor:end;fill:white;font-family:Interstate-Bold"
         id="rect5252" /></flowRegion><flowPara
       id="flowPara5254"
       style="font-size:10px;font-style:normal;font-variant:normal;font-weight:normal;font-stretch:normal;text-align:end;line-height:125%;writing-mode:lr-tb;text-anchor:end;font-family:Interstate-Bold">GNBD servers</flowPara></flowRoot>  <flowRoot
     xml:space="preserve"
     id="flowRoot5256"
     style="font-size:10px;font-style:normal;font-variant:normal;font-weight:normal;font-stretch:normal;text-align:end;line-height:125%;writing-mode:lr-tb;text-anchor:end;fill:white;font-family:Interstate-Bold"
     transform="translate(-122.7208,103.8249)"><flowRegion
       id="flowRegion5258"><rect
         id="rect5260"
         style="font-size:10px;font-style:normal;font-variant:normal;font-weight:normal;font-stretch:normal;text-align:end;line-height:125%;writing-mode:lr-tb;text-anchor:end;fill:white;font-family:Interstate-Bold"
         y="131.4487"
         x="379.00925"
         height="47.17514"
         width="52.290367" /></flowRegion><flowPara
       style="font-size:10px;font-style:normal;font-variant:normal;font-weight:normal;font-stretch:normal;text-align:end;line-height:125%;writing-mode:lr-tb;text-anchor:end;font-family:Interstate-Bold"
       id="flowPara5262">Shared files</flowPara></flowRoot>  <path
     style="fill:none;stroke:white;stroke-width:2;stroke-miterlimit:4;stroke-dasharray:none;stroke-dashoffset:0"
     d="M 40.547727,127.99033 L 246.66935,127.99033"
     id="path5289"
     sodipodi:nodetypes="cc" />
</svg>
