<?xml version="1.0" encoding="UTF-8" standalone="no"?>
<!-- Created with Inkscape (http://www.inkscape.org/) -->
<svg
   xmlns:a="http://ns.adobe.com/AdobeSVGViewerExtensions/3.0/"
   xmlns:dc="http://purl.org/dc/elements/1.1/"
   xmlns:cc="http://web.resource.org/cc/"
   xmlns:rdf="http://www.w3.org/1999/02/22-rdf-syntax-ns#"
   xmlns:svg="http://www.w3.org/2000/svg"
   xmlns="http://www.w3.org/2000/svg"
   xmlns:xlink="http://www.w3.org/1999/xlink"
   xmlns:sodipodi="http://sodipodi.sourceforge.net/DTD/sodipodi-0.dtd"
   xmlns:inkscape="http://www.inkscape.org/namespaces/inkscape"
   id="svg2"
   sodipodi:version="0.32"
   inkscape:version="0.44+devel"
   width="431.99982"
   height="375.00031"
   version="1.0"
   sodipodi:docbase="/home/andy/Desktop/Paul/SVG"
   sodipodi:docname="lvs-nat-routing.svg"
   inkscape:output_extension="org.inkscape.output.svg.inkscape"
   inkscape:export-filename="/home/andy/Desktop/Paul/SVG/lvs-nat-routing.png"
   inkscape:export-xdpi="90"
   inkscape:export-ydpi="90"
   sodipodi:modified="TRUE">
  <metadata
     id="metadata7">
    <rdf:RDF>
      <cc:Work
         rdf:about="">
        <dc:format>image/svg+xml</dc:format>
        <dc:type
           rdf:resource="http://purl.org/dc/dcmitype/StillImage" />
      </cc:Work>
    </rdf:RDF>
  </metadata>
  <defs
     id="defs5">
    <pattern
       inkscape:collect="always"
       xlink:href="#pattern3604"
       id="pattern3636"
       patternTransform="matrix(0.542842,0,0,0.202209,-246.2086,1040.985)" />
    <pattern
       inkscape:collect="always"
       xlink:href="#pattern4384"
       id="pattern3604"
       patternTransform="matrix(0.542842,0,0,0.223392,-589.7084,978.6301)" />
    <linearGradient
       id="linearGradient4307">
      <stop
         id="stop4309"
         offset="0"
         style="stop-color:#5c5c4f;stop-opacity:0" />
      <stop
         id="stop4311"
         offset="1"
         style="stop-color:#5c5c4f;stop-opacity:1" />
    </linearGradient>
    <pattern
       inkscape:collect="always"
       xlink:href="#pattern4038"
       id="pattern4313"
       patternTransform="matrix(0.361895,0,0,0.868548,-76.3056,819.3073)" />
    <pattern
       inkscape:collect="always"
       xlink:href="#pattern4313"
       id="pattern4384"
       patternTransform="matrix(0.430827,0,0,0.223392,-440.2686,974.9264)" />
    <linearGradient
       id="linearGradient4054">
      <stop
         style="stop-color:#a70000;stop-opacity:0;"
         offset="0"
         id="stop4056" />
      <stop
         style="stop-color:#a70000;stop-opacity:1;"
         offset="1"
         id="stop4058" />
    </linearGradient>
    <radialGradient
       inkscape:collect="always"
       xlink:href="#linearGradient4054"
       id="radialGradient4393"
       gradientUnits="userSpaceOnUse"
       gradientTransform="matrix(1.522104,0,0,1.217683,-946.194,61.51896)"
       cx="710"
       cy="668.36218"
       fx="710"
       fy="668.36218"
       r="75" />
    <pattern
       patternUnits="userSpaceOnUse"
       width="32"
       height="32"
       id="black-spots"
       patternTransform="matrix(0.455007,0,0,0.455007,20.99995,116)">
      <g
         inkscape:label="#g3039"
         id="black-spot"
         transform="translate(-448.3997,-513.505)">
        <path
           style="opacity:0.1;fill:black"
           id="path2961"
           d="M 473.39967,529.50504 C 473.39967,534.47304 469.36767,538.50504 464.39967,538.50504 C 459.43167,538.50504 455.39967,534.47304 455.39967,529.50504 C 455.39967,524.53704 459.43167,520.50504 464.39967,520.50504 C 469.36767,520.50504 473.39967,524.53704 473.39967,529.50504 z "
           sodipodi:nodetypes="czzzz" />
      </g>
    </pattern>
    <pattern
       inkscape:collect="always"
       xlink:href="#black-spots"
       id="pattern4038"
       patternTransform="matrix(0.361895,0,0,0.361895,-33.80556,922.2561)" />
    <pattern
       inkscape:collect="always"
       xlink:href="#pattern4038"
       id="pattern4315"
       patternTransform="matrix(0.361895,0,0,0.361895,253.6944,752.2561)" />
    <pattern
       inkscape:collect="always"
       xlink:href="#pattern4315"
       id="pattern4396"
       patternTransform="matrix(0.361895,0,0,0.361895,41.1944,774.2561)" />
    <pattern
       inkscape:collect="always"
       xlink:href="#pattern4396"
       id="pattern4704"
       patternTransform="matrix(0.147111,0,0,0.689323,170.5545,339.875)" />
    <marker
       inkscape:stockid="TriangleOutM"
       orient="auto"
       refY="0"
       refX="0"
       id="TriangleOutM"
       style="overflow:visible">
      <path
         id="path4158"
         d="M 5.77,0 L -2.88,5 L -2.88,-5 L 5.77,0 z "
         style="fill:#5c5c4f"
         transform="scale(0.4,0.4)" />
    </marker>
    <marker
       inkscape:stockid="TriangleInM"
       orient="auto"
       refY="0"
       refX="0"
       id="TriangleInM"
       style="overflow:visible">
      <path
         id="path4167"
         d="M 5.77,0 L -2.88,5 L -2.88,-5 L 5.77,0 z "
         style="fill:#5c5c4f"
         transform="scale(-0.4,-0.4)" />
    </marker>
    <radialGradient
       cx="603.19"
       cy="230.77"
       r="1.67"
       fx="603.19"
       fy="230.77"
       id="x5010_"
       gradientUnits="userSpaceOnUse"
       gradientTransform="matrix(1.1,0,0,1.1,-54.33,-75.4)">
      <stop
         style="stop-color:#c9ffc9;stop-opacity:1"
         offset="0"
         id="stop29201" />
      <stop
         style="stop-color:#23a11f;stop-opacity:1"
         offset="1"
         id="stop29203" />
      <a:midPointStop
         style="stop-color:#C9FFC9"
         offset="0" />
      <a:midPointStop
         style="stop-color:#C9FFC9"
         offset="0.5" />
      <a:midPointStop
         style="stop-color:#23A11F"
         offset="1" />
    </radialGradient>
    <radialGradient
       cx="603.19"
       cy="230.77"
       r="1.67"
       fx="603.19"
       fy="230.77"
       id="radialGradient5711"
       xlink:href="#x5010_"
       gradientUnits="userSpaceOnUse"
       gradientTransform="matrix(1.23,0,0,1.23,-709.93,-245.02)" />
    <linearGradient
       x1="592.31"
       y1="162.60001"
       x2="609.32001"
       y2="145.59"
       id="lg5722"
       xlink:href="#x5003_"
       gradientUnits="userSpaceOnUse"
       gradientTransform="matrix(1.12,0,0,1.12,-649.08,-160.62)" />
    <linearGradient
       x1="601.48999"
       y1="170.16"
       x2="613.84003"
       y2="170.16"
       id="x5002_"
       gradientUnits="userSpaceOnUse">
      <stop
         style="stop-color:#d9d9d9;stop-opacity:1"
         offset="0"
         id="stop29134" />
      <stop
         style="stop-color:white;stop-opacity:1"
         offset="0.20"
         id="stop29136" />
      <stop
         style="stop-color:#999;stop-opacity:1"
         offset="1"
         id="stop29138" />
      <a:midPointStop
         style="stop-color:#D9D9D9"
         offset="0" />
      <a:midPointStop
         style="stop-color:#D9D9D9"
         offset="0.5" />
      <a:midPointStop
         style="stop-color:#FFFFFF"
         offset="0.20" />
      <a:midPointStop
         style="stop-color:#FFFFFF"
         offset="0.5" />
      <a:midPointStop
         style="stop-color:#999999"
         offset="1" />
    </linearGradient>
    <linearGradient
       x1="601.48999"
       y1="170.16"
       x2="613.84003"
       y2="170.16"
       id="lg5725"
       xlink:href="#x5002_"
       gradientUnits="userSpaceOnUse"
       gradientTransform="matrix(1.12,0,0,1.12,-649.08,-160.62)" />
    <linearGradient
       x1="592.20001"
       y1="156.45"
       x2="609.98999"
       y2="174.23"
       id="x5004_"
       gradientUnits="userSpaceOnUse"
       gradientTransform="matrix(1.12,0,0,1.12,-649.08,-160.62)">
      <stop
         style="stop-color:#d9d9d9;stop-opacity:1"
         offset="0"
         id="stop29157" />
      <stop
         style="stop-color:white;stop-opacity:1"
         offset="1"
         id="stop29159" />
      <a:midPointStop
         style="stop-color:#D9D9D9"
         offset="0" />
      <a:midPointStop
         style="stop-color:#D9D9D9"
         offset="0.5" />
      <a:midPointStop
         style="stop-color:#FFFFFF"
         offset="1" />
    </linearGradient>
    <linearGradient
       x1="592.20001"
       y1="156.45"
       x2="609.98999"
       y2="174.23"
       id="lg5728"
       xlink:href="#x5004_"
       gradientUnits="userSpaceOnUse"
       gradientTransform="matrix(1.12,0,0,1.12,-649.08,-160.62)" />
    <linearGradient
       x1="592.31"
       y1="162.60001"
       x2="609.32001"
       y2="145.59"
       id="x5003_"
       gradientUnits="userSpaceOnUse">
      <stop
         style="stop-color:#f2f2f2;stop-opacity:1"
         offset="0"
         id="stop29143" />
      <stop
         style="stop-color:#e5e5e5;stop-opacity:1"
         offset="1"
         id="stop29145" />
      <a:midPointStop
         style="stop-color:#F2F2F2"
         offset="0" />
      <a:midPointStop
         style="stop-color:#F2F2F2"
         offset="0.5" />
      <a:midPointStop
         style="stop-color:#E5E5E5"
         offset="1" />
    </linearGradient>
    <linearGradient
       x1="592.31"
       y1="162.60001"
       x2="609.32001"
       y2="145.59"
       id="lg5732"
       xlink:href="#x5003_"
       gradientUnits="userSpaceOnUse"
       gradientTransform="matrix(1.12,0,0,1.12,-649.08,-160.62)" />
    <linearGradient
       x1="592.20001"
       y1="156.45"
       x2="609.98999"
       y2="174.24001"
       id="x5000_"
       gradientUnits="userSpaceOnUse"
       gradientTransform="matrix(1.12,0,0,1.12,-649.08,-160.62)">
      <stop
         style="stop-color:#d9d9d9;stop-opacity:1"
         offset="0"
         id="stop29124" />
      <stop
         style="stop-color:white;stop-opacity:1"
         offset="1"
         id="stop29126" />
      <a:midPointStop
         style="stop-color:#D9D9D9"
         offset="0" />
      <a:midPointStop
         style="stop-color:#D9D9D9"
         offset="0.5" />
      <a:midPointStop
         style="stop-color:#FFFFFF"
         offset="1" />
    </linearGradient>
    <linearGradient
       x1="592.20001"
       y1="156.45"
       x2="609.98999"
       y2="174.24001"
       id="lg5735"
       xlink:href="#x5000_"
       gradientUnits="userSpaceOnUse"
       gradientTransform="matrix(1.12,0,0,1.12,-649.08,-160.62)" />
    <linearGradient
       id="linearGradient3987">
      <stop
         style="stop-color:#e3dcc0;stop-opacity:0;"
         offset="0"
         id="stop3989" />
      <stop
         style="stop-color:#e3dcc0;stop-opacity:1;"
         offset="1"
         id="stop3991" />
    </linearGradient>
    <radialGradient
       inkscape:collect="always"
       xlink:href="#linearGradient3987"
       id="radialGradient4023"
       gradientUnits="userSpaceOnUse"
       gradientTransform="matrix(1.886887,0,0,1.602074,-235.025,-437.5826)"
       cx="265"
       cy="789.56696"
       fx="265"
       fy="789.56696"
       r="265" />
    <pattern
       patternUnits="userSpaceOnUse"
       width="32"
       height="32"
       id="white-spots"
       patternTransform="matrix(0.375,0,0,0.375,379,400)">
      <g
         inkscape:label="#g3035"
         id="white-spot"
         transform="translate(-484.3997,-513.505)">
        <path
           sodipodi:nodetypes="czzzz"
           d="M 509.39967,529.50504 C 509.39967,534.47304 505.36767,538.50504 500.39967,538.50504 C 495.43167,538.50504 491.39967,534.47304 491.39967,529.50504 C 491.39967,524.53704 495.43167,520.50504 500.39967,520.50504 C 505.36767,520.50504 509.39967,524.53704 509.39967,529.50504 z "
           id="path3033"
           style="opacity:0.3;fill:white" />
      </g>
    </pattern>
    <pattern
       inkscape:collect="always"
       xlink:href="#white-spots"
       id="pattern4015"
       patternTransform="matrix(0.375,0,0,0.375,379,437.7952)" />
    <pattern
       inkscape:collect="always"
       xlink:href="#pattern4015"
       id="pattern4062"
       patternTransform="matrix(0.460069,0,0,0.450001,0.856381,634.8332)" />
    <radialGradient
       inkscape:collect="always"
       xlink:href="#linearGradient4307"
       id="radialGradient3638"
       gradientUnits="userSpaceOnUse"
       gradientTransform="matrix(1.218067,0,0,0.406023,-730.3279,698.9922)"
       cx="710"
       cy="668.36218"
       fx="710"
       fy="668.36218"
       r="75" />
    <linearGradient
       inkscape:collect="always"
       xlink:href="#x5000_"
       id="linearGradient3640"
       gradientUnits="userSpaceOnUse"
       gradientTransform="matrix(1.12,0,0,1.12,-649.08,-160.62)"
       x1="592.20001"
       y1="156.45"
       x2="609.98999"
       y2="174.24001" />
    <linearGradient
       inkscape:collect="always"
       xlink:href="#x5003_"
       id="linearGradient3642"
       gradientUnits="userSpaceOnUse"
       gradientTransform="matrix(1.12,0,0,1.12,-649.08,-160.62)"
       x1="592.31"
       y1="162.60001"
       x2="609.32001"
       y2="145.59" />
    <linearGradient
       inkscape:collect="always"
       xlink:href="#x5004_"
       id="linearGradient3644"
       gradientUnits="userSpaceOnUse"
       gradientTransform="matrix(1.12,0,0,1.12,-649.08,-160.62)"
       x1="592.20001"
       y1="156.45"
       x2="609.98999"
       y2="174.23" />
    <linearGradient
       inkscape:collect="always"
       xlink:href="#x5002_"
       id="linearGradient3646"
       gradientUnits="userSpaceOnUse"
       gradientTransform="matrix(1.12,0,0,1.12,-649.08,-160.62)"
       x1="601.48999"
       y1="170.16"
       x2="613.84003"
       y2="170.16" />
    <linearGradient
       inkscape:collect="always"
       xlink:href="#x5003_"
       id="linearGradient3648"
       gradientUnits="userSpaceOnUse"
       gradientTransform="matrix(1.12,0,0,1.12,-649.08,-160.62)"
       x1="592.31"
       y1="162.60001"
       x2="609.32001"
       y2="145.59" />
    <radialGradient
       inkscape:collect="always"
       xlink:href="#x5010_"
       id="radialGradient3650"
       gradientUnits="userSpaceOnUse"
       gradientTransform="matrix(1.23,0,0,1.23,-709.93,-245.02)"
       cx="603.19"
       cy="230.77"
       fx="603.19"
       fy="230.77"
       r="1.67" />
  </defs>
  <sodipodi:namedview
     inkscape:window-height="834"
     inkscape:window-width="1208"
     inkscape:pageshadow="0"
     inkscape:pageopacity="0.0"
     guidetolerance="10.0"
     gridtolerance="10.0"
     objecttolerance="10.0"
     borderopacity="1.0"
     bordercolor="#666666"
     pagecolor="#ffffff"
     id="base"
     showgrid="false"
     inkscape:zoom="1"
     inkscape:cx="215.99991"
     inkscape:cy="187.20809"
     inkscape:window-x="216"
     inkscape:window-y="116"
     inkscape:current-layer="svg2"
     showguides="true"
     inkscape:guide-bbox="true" />
  <g
     transform="matrix(0.815094,0,0,0.833334,0,-501.9689)"
     id="background"
     inkscape:label="#g4018">
    <rect
       ry="23.999994"
       rx="24.537039"
       y="602.36218"
       x="0"
       height="450"
       width="530"
       id="rect1933"
       style="fill:#e3dcc0" />
    <rect
       style="fill:url(#pattern4062);fill-opacity:1"
       id="rect3092"
       width="530"
       height="450"
       x="0"
       y="602.36218"
       rx="24.537039"
       ry="23.999994" />
    <rect
       ry="23.999994"
       rx="24.537039"
       y="602.36218"
       x="0"
       height="450"
       width="530"
       id="rect3985"
       style="fill:url(#radialGradient4023);fill-opacity:1" />
  </g>
  <rect
     style="fill:none;stroke:#a70000;stroke-width:1.84801209;stroke-miterlimit:4;stroke-dasharray:7.39204836, 3.69602418;stroke-dashoffset:0"
     id="rect3659"
     width="125.10174"
     height="109.15199"
     x="240.82352"
     y="112.92372"
     rx="9.8578644"
     ry="9.8578644" />
  <g
     id="redbox"
     inkscape:label="#g4399"
     transform="matrix(2.46,0,0,0.525,-106.37,-146.5405)">
    <rect
       style="fill:#a70000"
       id="rect2056"
       width="150"
       height="120"
       x="59.5"
       y="815.37231"
       rx="4.0650425"
       ry="19.047617" />
    <rect
       ry="19.047617"
       rx="4.0650425"
       y="815.37231"
       x="59.5"
       height="120"
       width="150"
       id="rect4036"
       style="fill:url(#pattern4704);fill-opacity:1" />
    <rect
       style="fill:url(#radialGradient4393);fill-opacity:1"
       id="rect4052"
       width="150"
       height="120"
       x="59.5"
       y="815.37238"
       rx="4.0650425"
       ry="19.047617" />
  </g>
  <use
     x="0"
     y="0"
     xlink:href="#computer"
     id="use3322"
     transform="matrix(-0.258819,0.965926,-0.965926,-0.258819,581.662,-64.7382)"
     width="390"
     height="520" />
  <use
     x="0"
     y="0"
     xlink:href="#computer"
     id="use3324"
     transform="matrix(-0.258819,0.965926,-0.965926,-0.258819,672.662,-64.7382)"
     width="390"
     height="520" />
  <use
     height="520"
     width="390"
     transform="matrix(-0.258819,0.965926,-0.965926,-0.258819,763.662,-64.7382)"
     id="use2987"
     xlink:href="#computer"
     y="0"
     x="0" />
  <path
     style="fill:none;stroke:#5c5c4f;stroke-width:2;marker-start:url(#TriangleInM);marker-end:url(#TriangleOutM)"
     d="M 184.104,273.17649 L 184.104,261.99971 L 370.02773,261.99971 L 370.02773,273.26488"
     id="path4084"
     sodipodi:nodetypes="cccc" />
  <path
     id="path4293"
     d="M 222.07107,219.42903 L 222.07107,261.42903"
     style="fill:none;stroke:#5c5c4f;stroke-width:2;marker-start:url(#TriangleInM);marker-end:none"
     sodipodi:nodetypes="cc" />
  <path
     style="fill:none;stroke:#5c5c4f;stroke-width:2;marker-start:url(#TriangleInM);marker-end:url(#TriangleOutM)"
     d="M 207.57966,118.7359 C 207.57966,97.028773 159.65593,115.29911 159.65593,94.059123"
     id="path2560"
     sodipodi:nodetypes="cc" />
  <g
     id="g3652"
     transform="translate(-338,-81.73683)">
    <path
       d="M 491.71012,115.46165 C 483.16229,115.46165 475.59655,119.64819 470.96021,126.10262 C 459.83089,126.13898 450.80889,135.18267 450.80886,146.3205 C 445.41398,147.55375 442.06376,150.64551 440.50041,156.69543 C 440.50041,162.12873 444.91003,166.53835 450.34329,166.53835 C 453.73912,166.53835 456.72091,164.80056 458.49031,162.18219 C 461.93552,164.907 466.29646,166.53835 471.0267,166.53835 C 474.5307,166.53835 477.82918,165.61485 480.70335,164.04436 C 484.03556,165.63873 487.77177,166.53835 491.71012,166.53835 C 495.86069,166.53835 499.78308,165.53772 503.24894,163.77834 C 505.88003,165.49689 509.01862,166.53835 512.39353,166.53835 C 517.08608,166.53835 520.81506,166.11395 523.85833,163.0028 C 525.61129,166.00699 529.35017,166.53835 533.07693,166.53835 C 538.65706,166.53835 543.1859,162.00955 543.18586,156.42941 C 542.70929,148.79194 535.74998,144.80257 528.9203,147.18507 C 527.86359,140.37199 522.74367,134.91207 516.08462,133.41831 C 512.85886,123.00919 503.17502,115.46165 491.71012,115.46165 z "
       style="fill:#5c5c4f"
       id="path74038" />
    <text
       sodipodi:linespacing="125%"
       id="text5846"
       y="152.34778"
       x="491.59958"
       style="font-size:12px;font-style:normal;font-variant:normal;font-weight:normal;font-stretch:normal;text-align:center;line-height:125%;writing-mode:lr-tb;text-anchor:middle;fill:white;font-family:Interstate-Bold"
       xml:space="preserve"><tspan
         y="152.34778"
         x="491.59958"
         id="tspan5848"
         sodipodi:role="line">Internet</tspan></text>
  </g>
  <text
     xml:space="preserve"
     style="font-size:12;font-style:normal;font-variant:normal;font-weight:normal;font-stretch:normal;text-align:center;line-height:125%;writing-mode:lr;text-anchor:middle;fill:#a70000;font-family:Interstate-Regular"
     x="303.30402"
     y="104.30586"
     id="text3293"
     sodipodi:linespacing="125%"><tspan
       sodipodi:role="line"
       id="tspan3295"
       x="303.30402"
       y="104.30586">Primary Heartbeat</tspan></text>
  <use
     x="0"
     y="0"
     xlink:href="#rect4082"
     id="use3355"
     transform="translate(-246,-71.44827)"
     width="390"
     height="520"
     style="font-size:12px;font-style:normal;font-variant:normal;font-weight:normal;font-stretch:normal;text-align:start;line-height:125%;writing-mode:lr-tb;text-anchor:start;font-family:Interstate-Bold" />
  <text
     xml:space="preserve"
     style="font-size:12px;font-style:normal;font-variant:normal;font-weight:normal;font-stretch:normal;text-align:start;line-height:125%;writing-mode:lr-tb;text-anchor:start;fill:#a70000;font-family:Interstate-Bold"
     x="32.287994"
     y="192.71111"
     id="text3301"
     sodipodi:linespacing="125%"><tspan
       sodipodi:role="line"
       id="tspan3303"
       x="32.287994"
       y="192.71111">NAT Virtual IP Address</tspan></text>
  <path
     sodipodi:nodetypes="cc"
     style="fill:none;stroke:#5c5c4f;stroke-width:2;marker-start:url(#TriangleInM);marker-end:none"
     d="M 281.06587,271.95517 L 281.06587,261.46127"
     id="path3320" />
  <text
     xml:space="preserve"
     style="font-size:12px;font-style:normal;font-variant:normal;font-weight:normal;font-stretch:normal;text-align:center;line-height:125%;writing-mode:lr-tb;text-anchor:middle;fill:white;font-family:Interstate-Bold"
     x="100.22272"
     y="318.755"
     id="text3326"
     sodipodi:linespacing="125%"><tspan
       sodipodi:role="line"
       id="tspan3328"
       x="100.22272"
       y="318.755">Real Servers</tspan></text>
  <g
     id="g4558"
     transform="translate(-246,-117.5965)">
    <rect
       style="font-size:12px;font-style:normal;font-variant:normal;font-weight:normal;font-stretch:normal;text-align:start;line-height:125%;writing-mode:lr-tb;text-anchor:start;fill:white;font-family:Interstate-Bold"
       id="rect4082"
       width="180.44543"
       height="36.202797"
       x="267.86798"
       y="248.25562"
       rx="5"
       ry="5" />
    <text
       xml:space="preserve"
       style="font-size:12px;font-style:normal;font-variant:normal;font-weight:normal;font-stretch:normal;text-align:start;line-height:125%;writing-mode:lr-tb;text-anchor:start;fill:#a70000;font-family:Interstate-Bold"
       x="278.28799"
       y="263.74518"
       id="text3297"
       sodipodi:linespacing="125%"><tspan
         sodipodi:role="line"
         id="tspan3299"
         x="278.28799"
         y="263.74518">Public Virtual IP Address</tspan></text>
    <text
       sodipodi:linespacing="125%"
       id="text4550"
       y="277.88733"
       x="354.38147"
       style="font-size:12px;font-style:normal;font-variant:normal;font-weight:normal;font-stretch:normal;text-align:start;line-height:125%;writing-mode:lr-tb;text-anchor:start;font-family:Interstate-Bold"
       xml:space="preserve"><tspan
         style="text-align:center;text-anchor:middle;font-family:Interstate-Regular"
         y="277.88733"
         x="354.38147"
         id="tspan4552"
         sodipodi:role="line">(eth0:1)</tspan></text>
  </g>
  <g
     id="g3612"
     transform="translate(-229,-113.0003)">
    <g
       transform="translate(0,-6)"
       id="g3579">
      <g
         id="g4387"
         transform="matrix(0.666667,0,0,1.789706,376.3333,-1448.163)">
        <rect
           ry="5.5875173"
           rx="15"
           y="945.36243"
           x="59.5"
           height="50.000038"
           width="150"
           id="rect4297"
           style="fill:#5c5c4f" />
        <rect
           style="fill:url(#pattern3636);fill-opacity:1"
           id="rect4299"
           width="150"
           height="50.000038"
           x="59.5"
           y="945.36243"
           rx="15"
           ry="5.5875173" />
        <rect
           ry="5.5875173"
           rx="15"
           y="945.36243"
           x="59.5"
           height="50.000038"
           width="150"
           id="rect4301"
           style="fill:url(#radialGradient3638);fill-opacity:1" />
      </g>
      <g
         id="computer"
         inkscape:label="#g5739"
         transform="matrix(1.214136,0,0,1.214136,436.9032,251.3018)">
        <path
           d="M 10.98,7.35 L 10.98,31.17 L 24.76,45.05 C 24.76,45.05 28.25,45.27 31.9,44.16 C 35.55,43.05 36.95,41.49 36.95,41.49 L 36.95,17.46 L 23.59,4.07 L 10.98,7.35 z "
           style="fill:url(#linearGradient3640)"
           id="path4802" />
        <path
           d="M 36.18,16.79 L 23.61,3.9 L 10.61,7.23 L 24.81,21.11 C 24.81,21.11 28.44,21 31.76,20.11 C 35.07,19.22 37.03,17.66 37.03,17.66 L 36.18,16.79 z "
           style="fill:url(#linearGradient3642)"
           id="path4804" />
        <path
           d="M 10.98,7.35 L 10.98,31.17 L 24.76,45.05 C 24.76,45.05 28.25,45.27 31.9,44.16 C 35.55,43.05 36.95,41.49 36.95,41.49 L 36.95,17.46 L 23.59,4.07 L 10.98,7.35 z "
           style="fill:none;stroke:black;stroke-width:1.92999995;stroke-linecap:round;stroke-linejoin:round"
           id="path4806" />
        <path
           d="M 10.98,7.35 L 10.98,31.17 L 24.76,45.05 C 24.76,45.05 28.25,45.27 31.9,44.16 C 35.55,43.05 36.95,41.49 36.95,41.49 L 36.95,17.46 L 23.59,4.07 L 10.98,7.35 z "
           style="fill:url(#linearGradient3644)"
           id="path4808" />
        <path
           d="M 24.52,14.7 L 37,17.81 L 37,41.59 C 33.22,44.88 29.67,44.95 24.7,45 L 24.52,14.7 z "
           style="fill:url(#linearGradient3646)"
           id="path4810" />
        <path
           d="M 23.58,4.02 L 11.03,7.42 L 24.81,21.11 C 24.81,21.11 28.44,21 31.76,20.11 C 35.07,19.22 37.03,17.66 37.03,17.66 L 23.58,4.02 z "
           style="fill:url(#linearGradient3648)"
           id="path4812" />
        <path
           d="M 11.27,7.58 L 24.82,21.12 C 24.82,21.12 28.03,21.33 31.68,20.35 C 35.18,19.41 36.83,17.71 36.83,17.71"
           style="fill:none;stroke:white;stroke-width:0.47999999;stroke-linecap:round"
           id="path4814" />
        <path
           d="M 24.74,21.3 L 24.74,44.76"
           style="fill:none;stroke:white;stroke-width:0.47999999;stroke-linecap:round"
           id="path4816" />
        <path
           d="M 27.44,23.79 C 30.4,23.66 33.22,22.96 35.54,21.38 C 35.75,21.91 35.7,23.06 35.54,23.36 C 35.45,23.45 34.62,23.99 33.18,24.54 C 31.77,25.07 29.77,25.62 27.47,25.68 C 27.19,25.22 27.27,24.04 27.44,23.79 z "
           style="fill:gray"
           id="path4818" />
        <path
           d="M 35.53,23.38 L 27.44,25.56 C 27.45,25.6 27.45,25.66 27.47,25.69 C 29.78,25.63 31.78,25.07 33.19,24.53 C 34.63,23.98 35.44,23.46 35.53,23.38 z "
           style="fill:#b2b2b2"
           id="path4820" />
        <path
           d="M 27.44,27.28 C 30.4,27.16 33.22,26.46 35.54,24.88 C 35.75,25.4 35.7,26.56 35.54,26.86 C 35.45,26.95 34.62,27.49 33.18,28.03 C 31.77,28.57 29.77,29.12 27.47,29.18 C 27.19,28.72 27.27,27.54 27.44,27.28 z "
           style="fill:gray"
           id="path4822" />
        <path
           d="M 35.53,26.87 L 27.44,29.06 C 27.45,29.1 27.45,29.16 27.47,29.19 C 29.78,29.13 31.78,28.57 33.19,28.03 C 34.63,27.48 35.44,26.96 35.53,26.87 z "
           style="fill:#b2b2b2"
           id="path4824" />
        <path
           d="M 27.21,42.71 L 27.21,31.52 C 27.21,31.52 29,31.51 31.85,30.69 C 34.68,29.87 35.58,29.02 35.58,29.02 L 35.58,40.05 C 35.58,40.05 34.21,41.19 31.54,41.98 C 28.88,42.76 27.21,42.71 27.21,42.71 z "
           style="fill:none;stroke:#b2b2b2;stroke-width:0.47999999;stroke-linecap:round;stroke-linejoin:round"
           id="path4826" />
        <path
           d="M 31.68,37.72 C 32.29,37.54 32.79,37.95 32.79,38.62 C 32.79,39.29 32.29,39.97 31.68,40.15 C 31.07,40.33 30.58,39.93 30.58,39.27 C 30.58,38.58 31.07,37.9 31.68,37.72 z "
           style="fill:url(#radialGradient3650);stroke:#328e36;stroke-width:0.44"
           id="path4828" />
      </g>
    </g>
    <text
       sodipodi:linespacing="125%"
       id="text3357"
       y="312.41174"
       x="465.63843"
       style="font-size:12px;font-style:normal;font-variant:normal;font-weight:normal;font-stretch:normal;text-align:center;line-height:125%;writing-mode:lr-tb;text-anchor:middle;fill:white;font-family:Interstate-Bold"
       xml:space="preserve"><tspan
         y="312.41174"
         x="465.63843"
         id="tspan3359"
         sodipodi:role="line">Active router</tspan></text>
  </g>
  <use
     x="0"
     y="0"
     xlink:href="#g3579"
     id="use3600"
     transform="translate(-110,-113.0003)"
     width="390"
     height="520" />
  <text
     sodipodi:linespacing="125%"
     id="text3608"
     y="200.00545"
     x="355.33844"
     style="font-size:12px;font-style:normal;font-variant:normal;font-weight:normal;font-stretch:normal;text-align:center;line-height:125%;writing-mode:lr-tb;text-anchor:middle;fill:white;font-family:Interstate-Bold"
     xml:space="preserve"><tspan
       y="200.00545"
       x="355.33844"
       id="tspan3610"
       sodipodi:role="line">Backup router</tspan></text>
  <text
     sodipodi:linespacing="125%"
     id="text4546"
     y="235.30586"
     x="303.30402"
     style="font-size:12;font-style:normal;font-variant:normal;font-weight:normal;font-stretch:normal;text-align:center;line-height:125%;writing-mode:lr;text-anchor:middle;fill:#a70000;font-family:Interstate-Regular"
     xml:space="preserve"><tspan
       y="235.30586"
       x="303.30402"
       id="tspan4548"
       sodipodi:role="line">Backup Heartbeat</tspan></text>
  <text
     sodipodi:linespacing="125%"
     id="text4554"
     y="204.83858"
     x="108.38147"
     style="font-size:12px;font-style:normal;font-variant:normal;font-weight:normal;font-stretch:normal;text-align:start;line-height:125%;writing-mode:lr-tb;text-anchor:start;font-family:Interstate-Bold"
     xml:space="preserve"><tspan
       style="text-align:center;text-anchor:middle;font-family:Interstate-Regular"
       y="204.83858"
       x="108.38147"
       id="tspan4556"
       sodipodi:role="line">(eth1:1)</tspan></text>
</svg>
