<?xml version="1.0" encoding="UTF-8" standalone="no"?>
<!-- Created with Inkscape (http://www.inkscape.org/) -->
<svg
   xmlns:a="http://ns.adobe.com/AdobeSVGViewerExtensions/3.0/"
   xmlns:dc="http://purl.org/dc/elements/1.1/"
   xmlns:cc="http://web.resource.org/cc/"
   xmlns:rdf="http://www.w3.org/1999/02/22-rdf-syntax-ns#"
   xmlns:svg="http://www.w3.org/2000/svg"
   xmlns="http://www.w3.org/2000/svg"
   xmlns:xlink="http://www.w3.org/1999/xlink"
   xmlns:sodipodi="http://sodipodi.sourceforge.net/DTD/sodipodi-0.dtd"
   xmlns:inkscape="http://www.inkscape.org/namespaces/inkscape"
   version="1.0"
   width="485.16534"
   height="380"
   id="svg3017"
   sodipodi:version="0.32"
   inkscape:version="0.44+devel"
   sodipodi:docname="fence-example-pwr.svg"
   sodipodi:docbase="/home/andy/Desktop/Pauls_Illustrations.tar.gz_FILES/SVG"
   inkscape:output_extension="org.inkscape.output.svg.inkscape"
   inkscape:export-filename="/home/andy/Desktop/Pauls_Illustrations.tar.gz_FILES/SVG/fence-example-pwr.png"
   inkscape:export-xdpi="90"
   inkscape:export-ydpi="90"
   sodipodi:modified="true">
  <metadata
     id="metadata149">
    <rdf:RDF>
      <cc:Work
         rdf:about="">
        <dc:format>image/svg+xml</dc:format>
        <dc:type
           rdf:resource="http://purl.org/dc/dcmitype/StillImage" />
      </cc:Work>
    </rdf:RDF>
  </metadata>
  <sodipodi:namedview
     inkscape:window-height="821"
     inkscape:window-width="746"
     inkscape:pageshadow="0"
     inkscape:pageopacity="0.0"
     guidetolerance="10.0"
     gridtolerance="10.0"
     objecttolerance="10.0"
     borderopacity="1.0"
     bordercolor="#666666"
     pagecolor="#ffffff"
     id="base"
     inkscape:zoom="1"
     inkscape:cx="229.95997"
     inkscape:cy="198.80272"
     inkscape:window-x="117"
     inkscape:window-y="153"
     inkscape:current-layer="svg3017" />
  <defs
     id="defs3019">
    <linearGradient
       id="linearGradient4096">
      <stop
         style="stop-color:white;stop-opacity:1"
         offset="0"
         id="stop4098" />
      <stop
         style="stop-color:#f7f2d0;stop-opacity:0"
         offset="1"
         id="stop4100" />
    </linearGradient>
    <linearGradient
       id="linearGradient3181">
      <stop
         style="stop-color:#e3dcc0;stop-opacity:0"
         offset="0"
         id="stop3183" />
      <stop
         style="stop-color:#e3dcc0;stop-opacity:1"
         offset="1"
         id="stop3185" />
    </linearGradient>
    <linearGradient
       x1="200.7363"
       y1="100.4028"
       x2="211.99519"
       y2="89.143997"
       id="linearGradient3440"
       xlink:href="#XMLID_3298_"
       gradientUnits="userSpaceOnUse"
       gradientTransform="matrix(1.029078,0,0,1,-183.2624,-79.44655)" />
    <linearGradient
       x1="181.2925"
       y1="110.8481"
       x2="192.6369"
       y2="99.5037"
       id="linearGradient3438"
       xlink:href="#XMLID_3297_"
       gradientUnits="userSpaceOnUse"
       gradientTransform="matrix(1.029078,0,0,1,-183.2624,-79.44655)" />
    <linearGradient
       x1="211.77589"
       y1="105.7749"
       x2="212.6619"
       y2="108.2092"
       id="linearGradient3436"
       xlink:href="#XMLID_3296_"
       gradientUnits="userSpaceOnUse"
       gradientTransform="matrix(1.029078,0,0,1,-183.2624,-79.44655)" />
    <linearGradient
       x1="208.9834"
       y1="116.8296"
       x2="200.0811"
       y2="96.834602"
       id="linearGradient3434"
       xlink:href="#XMLID_3295_"
       gradientUnits="userSpaceOnUse"
       gradientTransform="matrix(1.029078,0,0,1,-183.2624,-79.44655)" />
    <linearGradient
       x1="195.5264"
       y1="97.911102"
       x2="213.5213"
       y2="115.9061"
       id="linearGradient3432"
       xlink:href="#XMLID_3294_"
       gradientUnits="userSpaceOnUse"
       gradientTransform="matrix(1.029078,0,0,1,-183.2624,-79.44655)" />
    <linearGradient
       x1="186.1938"
       y1="109.1343"
       x2="206.6881"
       y2="88.639999"
       id="linearGradient3430"
       xlink:href="#XMLID_3293_"
       gradientUnits="userSpaceOnUse"
       gradientTransform="matrix(1.029078,0,0,1,-183.2624,-79.44655)" />
    <linearGradient
       x1="184.8569"
       y1="112.2676"
       x2="211.94099"
       y2="89.541397"
       id="linearGradient3428"
       xlink:href="#XMLID_3292_"
       gradientUnits="userSpaceOnUse"
       gradientTransform="matrix(1.029078,0,0,1,-183.2624,-79.44655)" />
    <linearGradient
       x1="200.7363"
       y1="100.4028"
       x2="211.99519"
       y2="89.143997"
       id="XMLID_3298_"
       gradientUnits="userSpaceOnUse">
      <stop
         style="stop-color:#bfbfbf;stop-opacity:1"
         offset="0"
         id="stop20103" />
      <stop
         style="stop-color:#f2f2f2;stop-opacity:1"
         offset="1"
         id="stop20105" />
      <a:midPointStop
         style="stop-color:#BFBFBF"
         offset="0" />
      <a:midPointStop
         style="stop-color:#BFBFBF"
         offset="0.5" />
      <a:midPointStop
         style="stop-color:#F2F2F2"
         offset="1" />
    </linearGradient>
    <linearGradient
       x1="200.7363"
       y1="100.4028"
       x2="211.99519"
       y2="89.143997"
       id="linearGradient36592"
       xlink:href="#XMLID_3298_"
       gradientUnits="userSpaceOnUse"
       gradientTransform="matrix(1.029078,0,0,1,-183.2624,-79.44655)" />
    <linearGradient
       x1="181.2925"
       y1="110.8481"
       x2="192.6369"
       y2="99.5037"
       id="XMLID_3297_"
       gradientUnits="userSpaceOnUse">
      <stop
         style="stop-color:#e5e5e5;stop-opacity:1"
         offset="0"
         id="stop20096" />
      <stop
         style="stop-color:#ccc;stop-opacity:1"
         offset="1"
         id="stop20098" />
      <a:midPointStop
         style="stop-color:#E5E5E5"
         offset="0" />
      <a:midPointStop
         style="stop-color:#E5E5E5"
         offset="0.5" />
      <a:midPointStop
         style="stop-color:#CCCCCC"
         offset="1" />
    </linearGradient>
    <linearGradient
       x1="181.2925"
       y1="110.8481"
       x2="192.6369"
       y2="99.5037"
       id="linearGradient36595"
       xlink:href="#XMLID_3297_"
       gradientUnits="userSpaceOnUse"
       gradientTransform="matrix(1.029078,0,0,1,-183.2624,-79.44655)" />
    <linearGradient
       x1="211.77589"
       y1="105.7749"
       x2="212.6619"
       y2="108.2092"
       id="XMLID_3296_"
       gradientUnits="userSpaceOnUse">
      <stop
         style="stop-color:#0f6124;stop-opacity:1"
         offset="0"
         id="stop20087" />
      <stop
         style="stop-color:#219630;stop-opacity:1"
         offset="1"
         id="stop20089" />
      <a:midPointStop
         style="stop-color:#0F6124"
         offset="0" />
      <a:midPointStop
         style="stop-color:#0F6124"
         offset="0.5" />
      <a:midPointStop
         style="stop-color:#219630"
         offset="1" />
    </linearGradient>
    <linearGradient
       x1="211.77589"
       y1="105.7749"
       x2="212.6619"
       y2="108.2092"
       id="linearGradient36677"
       xlink:href="#XMLID_3296_"
       gradientUnits="userSpaceOnUse"
       gradientTransform="matrix(1.029078,0,0,1,-183.2624,-79.44655)" />
    <linearGradient
       x1="208.9834"
       y1="116.8296"
       x2="200.0811"
       y2="96.834602"
       id="XMLID_3295_"
       gradientUnits="userSpaceOnUse">
      <stop
         style="stop-color:#b2b2b2;stop-opacity:1"
         offset="0"
         id="stop20076" />
      <stop
         style="stop-color:#e5e5e5;stop-opacity:1"
         offset="0.5"
         id="stop20078" />
      <stop
         style="stop-color:white;stop-opacity:1"
         offset="1"
         id="stop20080" />
      <a:midPointStop
         style="stop-color:#B2B2B2"
         offset="0" />
      <a:midPointStop
         style="stop-color:#B2B2B2"
         offset="0.5" />
      <a:midPointStop
         style="stop-color:#E5E5E5"
         offset="0.5" />
      <a:midPointStop
         style="stop-color:#E5E5E5"
         offset="0.5" />
      <a:midPointStop
         style="stop-color:#FFFFFF"
         offset="1" />
    </linearGradient>
    <linearGradient
       x1="208.9834"
       y1="116.8296"
       x2="200.0811"
       y2="96.834602"
       id="linearGradient36604"
       xlink:href="#XMLID_3295_"
       gradientUnits="userSpaceOnUse"
       gradientTransform="matrix(1.029078,0,0,1,-183.2624,-79.44655)" />
    <linearGradient
       x1="195.5264"
       y1="97.911102"
       x2="213.5213"
       y2="115.9061"
       id="XMLID_3294_"
       gradientUnits="userSpaceOnUse">
      <stop
         style="stop-color:#ccc;stop-opacity:1"
         offset="0"
         id="stop20069" />
      <stop
         style="stop-color:white;stop-opacity:1"
         offset="1"
         id="stop20071" />
      <a:midPointStop
         style="stop-color:#CCCCCC"
         offset="0" />
      <a:midPointStop
         style="stop-color:#CCCCCC"
         offset="0.5" />
      <a:midPointStop
         style="stop-color:#FFFFFF"
         offset="1" />
    </linearGradient>
    <linearGradient
       x1="195.5264"
       y1="97.911102"
       x2="213.5213"
       y2="115.9061"
       id="linearGradient36607"
       xlink:href="#XMLID_3294_"
       gradientUnits="userSpaceOnUse"
       gradientTransform="matrix(1.029078,0,0,1,-183.2624,-79.44655)" />
    <linearGradient
       x1="186.1938"
       y1="109.1343"
       x2="206.6881"
       y2="88.639999"
       id="XMLID_3293_"
       gradientUnits="userSpaceOnUse">
      <stop
         style="stop-color:#b2b2b2;stop-opacity:1"
         offset="0"
         id="stop20056" />
      <stop
         style="stop-color:#e5e5e5;stop-opacity:1"
         offset="0.16850001"
         id="stop20058" />
      <stop
         style="stop-color:white;stop-opacity:1"
         offset="0.23029999"
         id="stop20060" />
      <stop
         style="stop-color:#e5e5e5;stop-opacity:1"
         offset="0.2809"
         id="stop20062" />
      <stop
         style="stop-color:#c2c2c2;stop-opacity:1"
         offset="0.5"
         id="stop20064" />
      <a:midPointStop
         style="stop-color:#B2B2B2"
         offset="0" />
      <a:midPointStop
         style="stop-color:#B2B2B2"
         offset="0.5" />
      <a:midPointStop
         style="stop-color:#E5E5E5"
         offset="0.1685" />
      <a:midPointStop
         style="stop-color:#E5E5E5"
         offset="0.5" />
      <a:midPointStop
         style="stop-color:#FFFFFF"
         offset="0.2303" />
      <a:midPointStop
         style="stop-color:#FFFFFF"
         offset="0.5" />
      <a:midPointStop
         style="stop-color:#E5E5E5"
         offset="0.2809" />
      <a:midPointStop
         style="stop-color:#E5E5E5"
         offset="0.5" />
      <a:midPointStop
         style="stop-color:#C2C2C2"
         offset="0.5" />
    </linearGradient>
    <linearGradient
       x1="186.1938"
       y1="109.1343"
       x2="206.6881"
       y2="88.639999"
       id="linearGradient36610"
       xlink:href="#XMLID_3293_"
       gradientUnits="userSpaceOnUse"
       gradientTransform="matrix(1.029078,0,0,1,-183.2624,-79.44655)" />
    <linearGradient
       x1="184.8569"
       y1="112.2676"
       x2="211.94099"
       y2="89.541397"
       id="XMLID_3292_"
       gradientUnits="userSpaceOnUse">
      <stop
         style="stop-color:#b2b2b2;stop-opacity:1"
         offset="0"
         id="stop20043" />
      <stop
         style="stop-color:#e5e5e5;stop-opacity:1"
         offset="0.16850001"
         id="stop20045" />
      <stop
         style="stop-color:white;stop-opacity:1"
         offset="0.23029999"
         id="stop20047" />
      <stop
         style="stop-color:#e5e5e5;stop-opacity:1"
         offset="0.2809"
         id="stop20049" />
      <stop
         style="stop-color:#ccc;stop-opacity:1"
         offset="1"
         id="stop20051" />
      <a:midPointStop
         style="stop-color:#B2B2B2"
         offset="0" />
      <a:midPointStop
         style="stop-color:#B2B2B2"
         offset="0.5" />
      <a:midPointStop
         style="stop-color:#E5E5E5"
         offset="0.1685" />
      <a:midPointStop
         style="stop-color:#E5E5E5"
         offset="0.5" />
      <a:midPointStop
         style="stop-color:#FFFFFF"
         offset="0.2303" />
      <a:midPointStop
         style="stop-color:#FFFFFF"
         offset="0.5" />
      <a:midPointStop
         style="stop-color:#E5E5E5"
         offset="0.2809" />
      <a:midPointStop
         style="stop-color:#E5E5E5"
         offset="0.5" />
      <a:midPointStop
         style="stop-color:#CCCCCC"
         offset="1" />
    </linearGradient>
    <linearGradient
       x1="184.8569"
       y1="112.2676"
       x2="211.94099"
       y2="89.541397"
       id="linearGradient36613"
       xlink:href="#XMLID_3292_"
       gradientUnits="userSpaceOnUse"
       gradientTransform="matrix(1.029078,0,0,1,-183.2624,-79.44655)" />
    <pattern
       xlink:href="#pattern4344"
       id="pattern2940"
       patternTransform="matrix(0.375,0,0,0.375,337.567,-218.539)" />
    <pattern
       xlink:href="#white-spots"
       id="pattern4344"
       patternTransform="matrix(0.375,0,0,0.375,450.9843,-145.4703)" />
    <radialGradient
       cx="603.19"
       cy="230.77"
       r="1.67"
       fx="603.19"
       fy="230.77"
       id="x5010_"
       gradientUnits="userSpaceOnUse"
       gradientTransform="matrix(1.1,0,0,1.1,-54.33,-75.4)">
      <stop
         style="stop-color:#c9ffc9;stop-opacity:1"
         offset="0"
         id="stop29201" />
      <stop
         style="stop-color:#23a11f;stop-opacity:1"
         offset="1"
         id="stop29203" />
      <a:midPointStop
         style="stop-color:#C9FFC9"
         offset="0" />
      <a:midPointStop
         style="stop-color:#C9FFC9"
         offset="0.5" />
      <a:midPointStop
         style="stop-color:#23A11F"
         offset="1" />
    </radialGradient>
    <linearGradient
       x1="601.48999"
       y1="170.16"
       x2="613.84003"
       y2="170.16"
       id="x5002_"
       gradientUnits="userSpaceOnUse">
      <stop
         style="stop-color:#d9d9d9;stop-opacity:1"
         offset="0"
         id="stop29134" />
      <stop
         style="stop-color:white;stop-opacity:1"
         offset="0.2"
         id="stop29136" />
      <stop
         style="stop-color:#999;stop-opacity:1"
         offset="1"
         id="stop29138" />
      <a:midPointStop
         style="stop-color:#D9D9D9"
         offset="0" />
      <a:midPointStop
         style="stop-color:#D9D9D9"
         offset="0.5" />
      <a:midPointStop
         style="stop-color:#FFFFFF"
         offset="0.20" />
      <a:midPointStop
         style="stop-color:#FFFFFF"
         offset="0.5" />
      <a:midPointStop
         style="stop-color:#999999"
         offset="1" />
    </linearGradient>
    <linearGradient
       x1="592.20001"
       y1="156.45"
       x2="609.98999"
       y2="174.23"
       id="x5004_"
       gradientUnits="userSpaceOnUse"
       gradientTransform="matrix(1.12,0,0,1.12,-649.08,-160.62)">
      <stop
         style="stop-color:#d9d9d9;stop-opacity:1"
         offset="0"
         id="stop29157" />
      <stop
         style="stop-color:white;stop-opacity:1"
         offset="1"
         id="stop29159" />
      <a:midPointStop
         style="stop-color:#D9D9D9"
         offset="0" />
      <a:midPointStop
         style="stop-color:#D9D9D9"
         offset="0.5" />
      <a:midPointStop
         style="stop-color:#FFFFFF"
         offset="1" />
    </linearGradient>
    <linearGradient
       x1="592.31"
       y1="162.60001"
       x2="609.32001"
       y2="145.59"
       id="x5003_"
       gradientUnits="userSpaceOnUse">
      <stop
         style="stop-color:#f2f2f2;stop-opacity:1"
         offset="0"
         id="stop29143" />
      <stop
         style="stop-color:#e5e5e5;stop-opacity:1"
         offset="1"
         id="stop29145" />
      <a:midPointStop
         style="stop-color:#F2F2F2"
         offset="0" />
      <a:midPointStop
         style="stop-color:#F2F2F2"
         offset="0.5" />
      <a:midPointStop
         style="stop-color:#E5E5E5"
         offset="1" />
    </linearGradient>
    <linearGradient
       x1="592.20001"
       y1="156.45"
       x2="609.98999"
       y2="174.24001"
       id="x5000_"
       gradientUnits="userSpaceOnUse"
       gradientTransform="matrix(1.12,0,0,1.12,-649.08,-160.62)">
      <stop
         style="stop-color:#d9d9d9;stop-opacity:1"
         offset="0"
         id="stop29124" />
      <stop
         style="stop-color:white;stop-opacity:1"
         offset="1"
         id="stop29126" />
      <a:midPointStop
         style="stop-color:#D9D9D9"
         offset="0" />
      <a:midPointStop
         style="stop-color:#D9D9D9"
         offset="0.5" />
      <a:midPointStop
         style="stop-color:#FFFFFF"
         offset="1" />
    </linearGradient>
    <pattern
       patternUnits="userSpaceOnUse"
       width="32"
       height="32"
       id="white-spots"
       patternTransform="matrix(0.375,0,0,0.375,379,400)">
      <g
         inkscape:label="#g3035"
         id="white-spot"
         transform="translate(-484.3997,-513.505)">
        <path
           sodipodi:nodetypes="czzzz"
           d="M 509.39967,529.50504 C 509.39967,534.47304 505.36767,538.50504 500.39967,538.50504 C 495.43167,538.50504 491.39967,534.47304 491.39967,529.50504 C 491.39967,524.53704 495.43167,520.50504 500.39967,520.50504 C 505.36767,520.50504 509.39967,524.53704 509.39967,529.50504 z "
           id="path3033"
           style="opacity:0.25;fill:white" />
      </g>
    </pattern>
    <linearGradient
       x1="592.20001"
       y1="156.45"
       x2="609.98999"
       y2="174.24001"
       id="linearGradient2887"
       xlink:href="#x5000_"
       gradientUnits="userSpaceOnUse"
       gradientTransform="matrix(0.940918,0,0,0.94231,-533.8438,-138.0809)" />
    <linearGradient
       x1="592.31"
       y1="162.60001"
       x2="609.32001"
       y2="145.59"
       id="linearGradient2889"
       xlink:href="#x5003_"
       gradientUnits="userSpaceOnUse"
       gradientTransform="matrix(0.940918,0,0,0.94231,-533.8438,-138.0809)" />
    <linearGradient
       x1="592.20001"
       y1="156.45"
       x2="609.98999"
       y2="174.23"
       id="linearGradient2891"
       xlink:href="#x5004_"
       gradientUnits="userSpaceOnUse"
       gradientTransform="matrix(0.940918,0,0,0.94231,-533.8438,-138.0809)" />
    <linearGradient
       x1="601.48999"
       y1="170.16"
       x2="613.84003"
       y2="170.16"
       id="linearGradient2893"
       xlink:href="#x5002_"
       gradientUnits="userSpaceOnUse"
       gradientTransform="matrix(0.940918,0,0,0.94231,-533.8438,-138.0809)" />
    <linearGradient
       x1="592.31"
       y1="162.60001"
       x2="609.32001"
       y2="145.59"
       id="linearGradient2895"
       xlink:href="#x5003_"
       gradientUnits="userSpaceOnUse"
       gradientTransform="matrix(0.940918,0,0,0.94231,-533.8438,-138.0809)" />
    <radialGradient
       cx="603.19"
       cy="230.77"
       r="1.67"
       fx="603.19"
       fy="230.77"
       id="radialGradient2897"
       xlink:href="#x5010_"
       gradientUnits="userSpaceOnUse"
       gradientTransform="matrix(1.033329,0,0,1.034858,-584.964,-209.0907)" />
    <radialGradient
       cx="242.5827"
       cy="186.93126"
       r="242.58267"
       fx="242.5827"
       fy="186.93126"
       id="radialGradient3187"
       xlink:href="#linearGradient3181"
       gradientUnits="userSpaceOnUse"
       gradientTransform="matrix(1.499006,0,0,1.155115,-121.0501,-28.99591)" />
    <radialGradient
       cx="52.378742"
       cy="-127.89157"
       r="247.21439"
       fx="52.378742"
       fy="-127.89157"
       id="radialGradient4102"
       xlink:href="#linearGradient4096"
       gradientUnits="userSpaceOnUse"
       gradientTransform="matrix(-0.247916,-0.925235,0.964868,-0.25853,158.3839,33.39886)" />
  </defs>
  <rect
     width="480.16534"
     height="374.86252"
     rx="20"
     ry="20"
     x="4.0000277"
     y="8.4472657e-07"
     style="fill:#e3dcc0"
     id="rect1933" />
  <rect
     width="485.16534"
     height="373.86252"
     rx="20"
     ry="20"
     x="2.788086e-05"
     y="8.4472657e-07"
     style="fill:url(#pattern2940);fill-opacity:1"
     id="rect2455" />
  <rect
     width="485.16534"
     height="373.86252"
     rx="20"
     ry="20"
     x="2.788086e-05"
     y="8.4472657e-07"
     style="fill:url(#radialGradient3187);fill-opacity:1"
     id="rect2293" />
  <path
     sodipodi:nodetypes="csssssc"
     id="path2307"
     style="fill:none;stroke:#5c5c4f;stroke-width:2"
     d="M 68.56695,114.72335 C 95.51072,87.599289 145.27943,67.235403 201.24745,57.283446 C 222.32224,53.53603 244.27603,51.264925 266.22116,50.665104 C 289.28939,50.034585 312.34804,51.250791 334.36608,54.540186 C 354.86768,57.603032 406.64272,59.230745 423.04349,70.938783 C 483.16419,113.85724 478.38043,205.1677 442.78639,208.48567 C 401.26954,212.35574 101.02381,210.6286 96.01269,211.19495" />
  <path
     d="M 242.36594,284.64471 L 242.36594,59.25888"
     style="fill:none;stroke:#5c5c4f;stroke-width:2"
     id="path3088"
     sodipodi:nodetypes="cc" />
  <path
     d="M 221.68827,290.16195 C 221.68827,256.98927 154.03878,280.3228 154.03878,220.14113 M 409.56695,212.76855 C 410.56695,298.71764 320.83638,246.76814 302.8304,286.18276 M 56.232426,246.56754 C 56.232426,278.47945 178.55475,261.29262 178.55475,286.62642"
     style="fill:none;stroke:#5c5c4f;stroke-width:2"
     id="path3058" />
  <use
     transform="translate(85.68124,0)"
     id="use3545"
     x="0"
     y="0"
     width="1"
     height="1"
     xlink:href="#rect3541" />
  <rect
     id="use3547"
     style="fill:#5c5c4f"
     y="139.51566"
     x="278.1012"
     ry="6.3976998"
     rx="6.3976998"
     height="83.307632"
     width="69.849251" />
  <path
     d="M 241.6819,36.24896 C 233.35338,36.24896 225.98175,40.32809 221.46438,46.61691 C 210.6206,46.65235 201.83009,55.46399 201.83007,66.31603 C 187.85784,66.31603 187.86721,86.01515 201.37645,86.01515 C 204.68514,86.01515 207.59042,84.32194 209.31443,81.77076 C 215.79279,86.73933 223.78583,87.07236 230.95754,83.58515 C 238.09817,86.99231 247.17615,86.6603 252.92464,83.32596 C 259.07497,87.06282 267.33746,87.2054 273.00524,82.5703 C 274.71322,85.49741 278.35617,86.01515 281.9873,86.01515 C 287.42427,86.01515 291.83689,81.60254 291.83687,76.16558 C 291.37252,68.72407 284.59177,64.83707 277.93732,67.15843 C 276.90773,60.52016 271.91918,55.20033 265.43099,53.74489 C 262.28799,43.60285 252.85262,36.24896 241.6819,36.24896 z "
     style="fill:#5c5c4f"
     id="path74038" />
  <path
     id="path2308"
     style="fill:none;stroke:#5c5c4f;stroke-width:2"
     d="M 242.70519,81.953792 C 246.94783,120.78332 311.76889,88.257412 311.76889,148.43908 M 135.43668,155.81166 C 134.43668,69.862572 231.06317,117.83288 242.70519,81.953792 M 394.01889,141.10455 C 393.31178,70.936523 257.55444,117.90566 242.70519,81.953792"
     sodipodi:nodetypes="cccccc" />
  <rect
     width="69.849251"
     height="83.307632"
     rx="6.3976998"
     ry="6.3976998"
     x="109.9961"
     y="139.51566"
     style="fill:#a70000"
     id="rect3541" />
  <use
     transform="matrix(1.27954,0,0,1.27954,309.4389,143.6876)"
     id="use3539"
     x="0"
     y="0"
     width="485.16534"
     height="380"
     xlink:href="#g2871" />
  <use
     transform="translate(252.1074,0)"
     id="use3543"
     x="0"
     y="0"
     width="485.16534"
     height="380"
     xlink:href="#rect3541" />
  <use
     transform="matrix(1.27954,0,0,1.27954,392.6912,143.6876)"
     id="use3535"
     x="0"
     y="0"
     width="485.16534"
     height="380"
     xlink:href="#g2871" />
  <path
     d="M 124.49969,152.46952 C 124.49969,151.28722 123.8548,150.50414 122.99495,150.12028 C 123.70126,149.69036 124.13118,148.95334 124.13118,148.03207 C 124.13118,146.18954 122.8107,145.19149 120.72249,145.19149 L 115.7937,145.19149 L 115.7937,155.93963 L 120.67643,155.93963 C 122.9796,155.93963 124.49969,154.72662 124.49969,152.46952 M 121.95085,148.20097 C 121.95085,148.7998 121.6284,149.21437 120.73784,149.21437 L 117.89727,149.21437 L 117.89727,147.17222 L 120.63036,147.17222 C 121.56699,147.17222 121.95085,147.52538 121.95085,148.20097 M 122.28865,152.50022 C 122.28865,153.34472 121.7973,153.89748 120.7532,153.89748 L 117.89727,153.89748 L 117.89727,151.11832 L 120.7532,151.11832 C 121.7973,151.11832 122.28865,151.57896 122.28865,152.50022"
     style="font-size:15.35447502px;fill:white;font-family:Interstate-Bold"
     id="path3555" />
  <g
     transform="matrix(1.27954,0,0,1.27954,40.55018,112.3148)"
     id="g5739">
    <rect
       width="64.526093"
       height="118.98036"
       rx="5"
       ry="5"
       x="-19.49894"
       y="-2.2275021"
       style="fill:#a70000"
       id="rect1977" />
    <g
       transform="translate(-18.79125,-1.563065)"
       id="g2871">
      <path
         d="M 20.676158,3.2403213 L 20.676158,23.281229 L 32.25281,34.959138 C 32.25281,34.959138 35.184778,35.144235 38.251162,34.210338 C 41.317547,33.276442 42.493694,31.963939 42.493694,31.963939 L 42.493694,11.746349 L 31.269887,0.48070006 L 20.676158,3.2403213 z "
         style="fill:url(#linearGradient2887)"
         id="path4374" />
      <path
         d="M 41.846813,11.182646 L 31.286689,0.33767096 L 20.365319,3.1393596 L 32.294815,14.817269 C 32.294815,14.817269 35.344398,14.72472 38.133548,13.975921 C 40.914296,13.227121 42.560903,11.914618 42.560903,11.914618 L 41.846813,11.182646 z "
         style="fill:url(#linearGradient2889)"
         id="path4376" />
      <path
         d="M 20.676154,3.240322 L 20.676154,23.281231 L 32.252801,34.959141 C 32.252801,34.959141 35.184767,35.144238 38.25115,34.210342 C 41.317534,33.276445 42.493681,31.963943 42.493681,31.963943 L 42.493681,11.74635 L 31.269878,0.48070056 L 20.676154,3.240322 z "
         style="fill:none;stroke:black;stroke-width:1.50835478;stroke-linecap:round;stroke-linejoin:round"
         id="path4378" />
      <path
         d="M 20.676158,3.2403213 L 20.676158,23.281229 L 32.25281,34.959138 C 32.25281,34.959138 35.184778,35.144235 38.251162,34.210338 C 41.317547,33.276442 42.493694,31.963939 42.493694,31.963939 L 42.493694,11.746349 L 31.269887,0.48070006 L 20.676158,3.2403213 z "
         style="fill:url(#linearGradient2891)"
         id="path4380" />
      <path
         d="M 32.051185,9.4242282 L 42.5357,12.04082 L 42.5357,32.048074 C 39.360101,34.816109 36.377727,34.875003 32.202404,34.917071 L 32.051185,9.4242282 z "
         style="fill:url(#linearGradient2893)"
         id="path4382" />
      <path
         d="M 31.261486,0.43863266 L 20.718163,3.2992157 L 32.294815,14.817269 C 32.294815,14.817269 35.344398,14.72472 38.133548,13.975921 C 40.914296,13.227121 42.560903,11.914618 42.560903,11.914618 L 31.261486,0.43863266 z "
         style="fill:url(#linearGradient2895)"
         id="path4384" />
      <path
         d="M 20.919784,3.433832 L 32.303207,14.825684 C 32.303207,14.825684 34.999944,15.002367 38.066327,14.177846 C 41.006695,13.386979 42.392868,11.956687 42.392868,11.956687"
         style="fill:none;stroke:white;stroke-width:0.37513486;stroke-linecap:round"
         id="path4386" />
      <path
         d="M 32.235999,14.977126 L 32.235999,34.71515"
         style="fill:none;stroke:white;stroke-width:0.37513486;stroke-linecap:round"
         id="path4388" />
      <path
         d="M 34.504292,17.072081 C 36.991004,16.962706 39.360101,16.373762 41.309146,15.044433 C 41.485568,15.490347 41.443563,16.457897 41.309146,16.710301 C 41.233536,16.786023 40.536249,17.240351 39.326497,17.703092 C 38.141949,18.149006 36.461738,18.611748 34.529495,18.662229 C 34.294266,18.275209 34.361474,17.282418 34.504292,17.072081 z "
         style="fill:gray"
         id="path4390" />
      <path
         d="M 41.300745,16.727128 L 34.504292,18.561267 C 34.512693,18.594921 34.512693,18.645402 34.529495,18.670642 C 36.470139,18.620161 38.15035,18.149006 39.334898,17.694679 C 40.54465,17.231937 41.225135,16.794436 41.300745,16.727128 z "
         style="fill:#b2b2b2"
         id="path4392" />
      <path
         d="M 34.504292,20.008385 C 36.991004,19.907424 39.360101,19.31848 41.309146,17.98915 C 41.485568,18.426651 41.443563,19.402615 41.309146,19.655019 C 41.233536,19.730741 40.536249,20.185068 39.326497,20.639396 C 38.141949,21.093724 36.461738,21.556466 34.529495,21.606946 C 34.294266,21.219926 34.361474,20.227136 34.504292,20.008385 z "
         style="fill:gray"
         id="path4394" />
      <path
         d="M 41.300745,19.663433 L 34.504292,21.505985 C 34.512693,21.539639 34.512693,21.590119 34.529495,21.61536 C 36.470139,21.564879 38.15035,21.093724 39.334898,20.639396 C 40.54465,20.176655 41.225135,19.739154 41.300745,19.663433 z "
         style="fill:#b2b2b2"
         id="path4396" />
      <path
         d="M 34.311058,32.990387 L 34.311058,23.575703 C 34.311058,23.575703 35.814846,23.567289 38.209145,22.877384 C 40.586642,22.187479 41.342737,21.472333 41.342737,21.472333 L 41.342737,30.752401 C 41.342737,30.752401 40.191793,31.711538 37.948713,32.376203 C 35.714033,33.032454 34.311058,32.990387 34.311058,32.990387 z "
         style="fill:none;stroke:#b2b2b2;stroke-width:0.37513486;stroke-linecap:round;stroke-linejoin:round"
         id="path4398" />
      <path
         d="M 38.066327,28.792061 C 38.578791,28.640618 38.998844,28.985571 38.998844,29.549274 C 38.998844,30.112977 38.578791,30.685094 38.066327,30.836536 C 37.553863,30.987979 37.142212,30.65144 37.142212,30.09615 C 37.142212,29.51562 37.553863,28.943503 38.066327,28.792061 z "
         style="fill:url(#radialGradient2897);stroke:#328e36;stroke-width:0.34387362"
         id="path4400" />
    </g>
  </g>
  <path
     d="M 375.28588,155.93963 L 375.28588,153.83606 L 369.74292,153.83606 L 369.74292,151.24116 L 372.82917,151.24116 L 372.82917,149.15295 L 369.74292,149.15295 L 369.74292,147.29506 L 375.05557,147.29506 L 375.05557,145.19149 L 367.59329,145.19149 L 367.59329,155.93963 L 375.28588,155.93963"
     style="font-size:15.35447502px;fill:white;font-family:Interstate-Bold"
     id="text3038" />
  <path
     d="M 295.26043,150.56556 C 295.26043,146.63482 292.98796,145.19149 289.91707,145.19149 L 286.55444,145.19149 L 286.55444,155.93963 L 289.76352,155.93963 C 292.52733,155.93963 295.26043,154.34276 295.26043,150.56556 M 293.04938,150.56556 C 293.04938,152.53093 292.02063,153.85142 289.76352,153.85142 L 288.70407,153.85142 L 288.70407,147.2797 L 289.8403,147.2797 C 292.11276,147.2797 293.04938,148.36987 293.04938,150.56556"
     style="font-size:15.35447502px;fill:white;font-family:Interstate-Bold"
     id="path4030" />
  <path
     d="M 212.07506,147.40254 C 211.39946,146.00528 210.1711,145.0226 208.14432,145.0226 C 205.33445,145.0226 203.36907,147.29506 203.36907,150.56556 C 203.36907,153.9589 205.25768,156.10853 208.06754,156.10853 C 210.01756,156.10853 211.30734,155.20261 212.04435,153.68252 L 210.23252,152.60771 C 209.66441,153.55968 209.09629,153.97425 208.12896,153.97425 C 206.51674,153.97425 205.58012,152.50022 205.58012,150.56556 C 205.58012,148.56948 206.50139,147.15687 208.11361,147.15687 C 209.08094,147.15687 209.69512,147.58679 210.07898,148.32381 L 212.07506,147.40254"
     style="font-size:15.35447502px;fill:white;font-family:Interstate-Bold"
     id="path4079" />
  <path
     d="M 32.94152,124.93963 L 28.85723,114.19149 L 26.76902,114.19149 L 22.654022,124.93963 L 24.957193,124.93963 L 25.801689,122.54433 L 29.73243,122.54433 L 30.57693,124.93963 L 32.94152,124.93963 M 28.99542,120.50218 L 26.5387,120.50218 L 27.22966,118.55217 C 27.44462,117.92263 27.65958,117.27774 27.76706,116.87853 C 27.87454,117.27774 28.08951,117.92263 28.30447,118.55217 L 28.99542,120.50218"
     style="font-size:15.35447502px;fill:white;font-family:Interstate-Bold"
     id="path3559" />
  <g
     transform="translate(-113.4173,-73.06874)"
     style="opacity:1"
     id="layer1" />
  <rect
     width="74.620056"
     height="33.133579"
     rx="5"
     ry="5"
     x="19.844406"
     y="224.5827"
     style="fill:white"
     id="rect2904" />
  <text
     x="240.46107"
     y="74.418785"
     style="font-size:12px;font-style:normal;font-variant:normal;font-weight:normal;font-stretch:normal;text-align:center;line-height:125%;writing-mode:lr-tb;text-anchor:middle;fill:white;font-family:Interstate-Bold"
     id="text2948"
     xml:space="preserve"
     sodipodi:linespacing="125%"><tspan
       x="240.46107"
       y="74.418785"
       style="font-size:12px;font-style:normal;font-variant:normal;font-weight:normal;font-stretch:normal;text-align:center;line-height:125%;writing-mode:lr-tb;text-anchor:middle;fill:white;font-family:Interstate-Bold"
       id="tspan2950">TCP/IP</tspan></text>
  <flowRoot
     transform="translate(0.706075,41.39949)"
     style="font-size:10px;font-style:normal;font-variant:normal;font-weight:normal;font-stretch:normal;text-align:center;line-height:125%;writing-mode:lr-tb;text-anchor:middle;font-family:Interstate-Regular"
     id="flowRoot2952"
     xml:space="preserve"><flowRegion
       id="flowRegion2954"><rect
         width="59"
         height="32"
         x="26"
         y="186.5"
         style="font-size:10px;font-style:normal;font-variant:normal;font-weight:normal;font-stretch:normal;text-align:center;line-height:125%;writing-mode:lr-tb;text-anchor:middle;font-family:Interstate-Regular"
         id="rect2956" /></flowRegion><flowPara
       id="flowPara2958">Fencing program</flowPara></flowRoot>  <rect
     width="74.620056"
     height="42.883579"
     rx="5"
     ry="5"
     x="19.844406"
     y="165.43321"
     style="fill:white"
     id="rect2970" />
  <flowRoot
     transform="translate(-4.503417,-14)"
     style="font-size:10px;font-style:normal;font-variant:normal;font-weight:normal;font-stretch:normal;text-align:center;line-height:125%;writing-mode:lr-tb;text-anchor:middle;font-family:Interstate-Regular"
     id="flowRoot2962"
     xml:space="preserve"><flowRegion
       id="flowRegion2964"><rect
         width="72.435028"
         height="38.717514"
         x="26"
         y="186.5"
         style="font-size:10px;font-style:normal;font-variant:normal;font-weight:normal;font-stretch:normal;text-align:center;line-height:125%;writing-mode:lr-tb;text-anchor:middle;font-family:Interstate-Regular"
         id="rect2966" /></flowRegion><flowPara
       id="flowPara2968">Power fencing agent</flowPara></flowRoot>  <use
     transform="matrix(1.27954,0,0,1.27954,140.6579,143.6876)"
     id="use3532"
     x="0"
     y="0"
     width="485.16534"
     height="380"
     xlink:href="#g2871" />
  <use
     transform="matrix(1.27954,0,0,1.27954,226.1675,143.6876)"
     id="use3537"
     x="0"
     y="0"
     width="485.16534"
     height="380"
     xlink:href="#g2871" />
  <rect
     width="157.76677"
     height="28.868099"
     rx="5"
     ry="5"
     x="162.55617"
     y="282.62952"
     style="fill:#5c5c4f"
     id="rect2056" />
  <text
     x="242.95819"
     y="300.7326"
     style="font-size:12px;font-style:normal;font-variant:normal;font-weight:normal;font-stretch:normal;text-align:center;line-height:125%;writing-mode:lr-tb;text-anchor:middle;fill:white;font-family:Interstate-Bold"
     id="text3044"
     xml:space="preserve"
     sodipodi:linespacing="125%"><tspan
       x="242.95819"
       y="300.7326"
       style="font-size:12px;font-style:normal;font-variant:normal;font-weight:normal;font-stretch:normal;text-align:center;line-height:125%;writing-mode:lr-tb;text-anchor:middle;fill:white;font-family:Interstate-Bold"
       id="tspan3046">Fibre channel switch</tspan></text>
  <path
     d="M 243.24473,302.03806 L 243.24473,327.03806"
     style="fill:none;stroke:#5c5c4f;stroke-width:2"
     id="path3502" />
  <rect
     width="236.93329"
     height="28.868099"
     rx="5"
     ry="5"
     x="123.4729"
     y="325.76303"
     style="fill:#5c5c4f"
     id="rect3778" />
  <g
     transform="matrix(1.06899,0,0,1.06899,125.0498,319.5586)"
     id="g36679">
    <path
       d="M 15.668619,34.233452 L 3.0932858,22.173452 C 2.9697964,22.033452 2.897761,21.843452 2.897761,21.613452 L 2.897761,14.893452 C 2.897761,14.313452 3.3814276,13.723452 3.9885836,13.573452 L 25.321371,8.4434523 C 25.691839,8.3534523 26.010853,8.4534523 26.206378,8.6734523 L 38.76113,20.703452 C 38.9052,20.883452 38.977236,21.063452 38.977236,21.283452 L 38.977236,28.003452 C 38.977236,28.583452 38.493569,29.173452 37.886413,29.323452 L 16.553626,34.453452 C 16.183158,34.533452 15.864144,34.443452 15.668619,34.233452 z "
       style="fill:url(#linearGradient3428);stroke:black;stroke-width:1.86011016;stroke-miterlimit:3.86369991;stroke-dasharray:none"
       id="path20053" />
    <path
       d="M 15.668621,34.233452 L 3.093286,22.173452 C 2.9697967,22.033452 2.8977612,21.843452 2.8977612,21.613452 L 2.8977612,14.893452 C 2.8977612,14.313452 3.3814279,13.723452 3.988584,13.573452 L 25.321373,8.4434523 C 25.691841,8.3534523 26.010855,8.4534523 26.20638,8.6734523 L 38.792005,20.743452 L 15.668621,34.233452 z "
       style="fill:url(#linearGradient3430);fill-rule:evenodd"
       id="path20066" />
    <path
       d="M 16.543337,25.613452 L 37.876126,20.483452 C 38.472991,20.343452 38.966948,20.693452 38.966948,21.273452 L 38.966948,27.993452 C 38.966948,28.573452 38.483282,29.163452 37.876126,29.313452 L 16.543337,34.443452 C 15.946472,34.593452 15.452514,34.233452 15.452514,33.653452 L 15.452514,26.933452 C 15.452514,26.353452 15.936181,25.763452 16.543337,25.613452 z "
       style="fill:url(#linearGradient3432);fill-rule:evenodd"
       id="path20073" />
    <path
       d="M 37.258679,20.193452 C 38.298048,19.923452 38.966948,20.423452 38.966948,21.493452 L 38.966948,27.873452 C 38.966948,28.633452 38.370083,29.333452 37.639438,29.513452 L 17.212238,34.573452 C 16.656536,34.703452 15.503968,34.713452 15.503968,33.413452 L 15.503968,26.893452 C 15.503968,26.133452 16.100833,25.433452 16.831479,25.253452 L 37.258679,20.193452 z M 16.471301,33.683452 C 16.533046,33.683452 16.646245,33.683452 16.821188,33.643452 L 37.258679,28.583452 C 37.67031,28.483452 37.999615,28.053452 37.999615,27.713452 L 37.999615,21.333452 C 37.999615,21.183452 37.999615,21.123452 37.979033,21.073452 C 37.917289,21.073452 37.80409,21.083452 37.639438,21.123452 L 17.201947,26.193452 C 16.790316,26.293452 16.461011,26.723452 16.461011,27.063452 L 16.461011,33.583452 L 16.471301,33.683452 z "
       style="fill:url(#linearGradient3434)"
       id="path20082" />
    <path
       d="M 34.222898,26.90345 L 36.023785,26.49345 C 37.176353,26.23345 37.176353,27.91345 36.023785,28.17345 L 34.222898,28.58345 C 33.070331,28.85345 33.070331,27.16345 34.222898,26.90345 z "
       style="fill:url(#linearGradient3436)"
       id="path20091" />
    <line
       style="fill:none;stroke:#7cc771;stroke-width:1.20639753;stroke-linecap:round;stroke-miterlimit:3.86369991"
       id="line20093"
       y2="27.22345"
       x2="35.890015"
       y1="27.623451"
       x1="34.161156"
       stroke-miterlimit="3.8637" />
    <path
       d="M 3.7210237,21.753452 L 14.546925,31.813452 L 14.495472,28.473452 C 12.622549,29.333452 3.7210237,19.643452 3.7210237,19.643452 L 3.7210237,21.753452 z "
       style="fill:url(#linearGradient3438);fill-rule:evenodd"
       id="path20100" />
    <path
       d="M 25.506607,9.3634523 L 36.394253,19.493452 L 25.249338,22.433452 C 17.386146,15.343452 19.091329,10.003452 22.995657,10.003452 L 25.506607,9.3634523 z "
       style="fill:url(#linearGradient3440);fill-rule:evenodd"
       id="path20107" />
  </g>
  <text
     x="247.76312"
     y="344.18451"
     style="font-size:12px;font-style:normal;font-variant:normal;font-weight:normal;font-stretch:normal;text-align:center;line-height:125%;writing-mode:lr-tb;text-anchor:middle;fill:white;font-family:Interstate-Bold"
     id="text3442"
     xml:space="preserve"
     sodipodi:linespacing="125%"><tspan
       x="247.76312"
       y="344.18451"
       style="font-size:12px;font-style:normal;font-variant:normal;font-weight:normal;font-stretch:normal;text-align:center;line-height:125%;writing-mode:lr-tb;text-anchor:middle;fill:white;font-family:Interstate-Bold"
       id="tspan3444">Shared storage</tspan></text>
  <path
     d="M 262.654,290.16195 C 262.654,256.98927 321.11111,280.3228 321.11111,220.14113"
     style="fill:none;stroke:#5c5c4f;stroke-width:2"
     id="path4074" />
  <rect
     id="rect3188"
     style="fill:#5c5c4f"
     y="44.629517"
     x="336.55615"
     ry="5"
     rx="5"
     height="28.868099"
     width="121.76677" />
  <text
     xml:space="preserve"
     id="text3190"
     style="font-size:12px;font-style:normal;font-variant:normal;font-weight:normal;font-stretch:normal;text-align:center;line-height:125%;writing-mode:lr-tb;text-anchor:middle;fill:white;font-family:Interstate-Bold"
     y="62.732605"
     x="398.95819"
     sodipodi:linespacing="125%"><tspan
       id="tspan3192"
       style="font-size:12px;font-style:normal;font-variant:normal;font-weight:normal;font-stretch:normal;text-align:center;line-height:125%;writing-mode:lr-tb;text-anchor:middle;fill:white;font-family:Interstate-Bold"
       y="62.732605"
       x="398.95819">Power controller</tspan></text>
  <text
     sodipodi:linespacing="125%"
     x="404.95819"
     y="37.732605"
     style="font-size:12px;font-style:normal;font-variant:normal;font-weight:normal;font-stretch:normal;text-align:center;line-height:125%;writing-mode:lr-tb;text-anchor:middle;fill:#5c5c4f;font-family:Interstate-Bold"
     id="text4083"
     xml:space="preserve"><tspan
       x="404.95819"
       y="37.732605"
       style="font-size:12px;font-style:normal;font-variant:normal;font-weight:normal;font-stretch:normal;text-align:center;line-height:125%;writing-mode:lr-tb;text-anchor:middle;fill:#5c5c4f;font-family:Interstate-Regular"
       id="tspan4085">Fencing device</tspan></text>
  <path
     sodipodi:type="star"
     style="fill:white"
     id="path4091"
     sodipodi:sides="3"
     sodipodi:cx="79"
     sodipodi:cy="196.5"
     sodipodi:r1="6.5"
     sodipodi:r2="3.25"
     sodipodi:arg1="-1.5707963"
     sodipodi:arg2="-0.52359878"
     inkscape:flatsided="true"
     inkscape:rounded="0"
     inkscape:randomized="0"
     d="M 79,190 L 84.629165,199.75 L 73.370835,199.75 L 79,190 z "
     transform="matrix(0.74877,0,0,0.74877,-1.998422,69.95839)" />
  <path
     sodipodi:nodetypes="cs"
     id="path2311"
     style="fill:none;stroke:#e3dcc0;stroke-width:2;stroke-miterlimit:4;stroke-dasharray:8,8;stroke-dashoffset:0"
     d="M 201.24745,57.283446 C 222.32224,53.53603 244.27603,51.264925 266.22116,50.665104" />
  <path
     d="M 347.92874,210.69169 C 326.27188,210.86503 302.7021,210.97017 278.95642,211.03185 M 264.80696,211.06363 C 240.99669,211.10915 217.35626,211.1159 195.63659,211.10884 M 178.80524,211.10078 C 150.26161,211.08326 126.30614,211.05187 111.61133,211.07317 M 431.34293,209.18112 C 416.27396,209.83226 391.8051,210.26862 362.75754,210.55886"
     style="fill:none;stroke:#e3dcc0;stroke-width:2;stroke-miterlimit:4;stroke-dasharray:8,8;stroke-dashoffset:0"
     id="path3198"
     sodipodi:nodetypes="cscscscs" />
</svg>
