<?xml version="1.0" encoding="UTF-8" standalone="no"?>
<!-- Created with Inkscape (http://www.inkscape.org/) -->
<svg
   xmlns:dc="http://purl.org/dc/elements/1.1/"
   xmlns:cc="http://web.resource.org/cc/"
   xmlns:rdf="http://www.w3.org/1999/02/22-rdf-syntax-ns#"
   xmlns:svg="http://www.w3.org/2000/svg"
   xmlns="http://www.w3.org/2000/svg"
   xmlns:sodipodi="http://sodipodi.sourceforge.net/DTD/sodipodi-0.dtd"
   xmlns:inkscape="http://www.inkscape.org/namespaces/inkscape"
   version="1.0"
   width="48"
   height="48"
   id="svg2"
   sodipodi:version="0.32"
   inkscape:version="0.44+devel"
   sodipodi:docname="warning.svg"
   sodipodi:docbase="/home/andy/Desktop/images"
   inkscape:output_extension="org.inkscape.output.svg.inkscape"
   sodipodi:modified="true">
  <metadata
     id="metadata11">
    <rdf:RDF>
      <cc:Work
         rdf:about="">
        <dc:format>image/svg+xml</dc:format>
        <dc:type
           rdf:resource="http://purl.org/dc/dcmitype/StillImage" />
      </cc:Work>
    </rdf:RDF>
  </metadata>
  <sodipodi:namedview
     inkscape:window-height="500"
     inkscape:window-width="749"
     inkscape:pageshadow="0"
     inkscape:pageopacity="0.0"
     guidetolerance="10.0"
     gridtolerance="10.0"
     objecttolerance="10.0"
     borderopacity="1.0"
     bordercolor="#666666"
     pagecolor="#ffffff"
     id="base"
     inkscape:zoom="6.1458333"
     inkscape:cx="24"
     inkscape:cy="23.918644"
     inkscape:window-x="760"
     inkscape:window-y="662"
     inkscape:current-layer="svg2" />
  <defs
     id="defs5" />
  <path
     d="M 26.936562,5.1697713 C 25.589787,2.8215473 23.379693,2.8215473 22.050184,5.1697713 L 2.9535991,38.476565 C 1.6068236,40.824789 2.7291364,42.758619 5.4399537,42.758619 L 43.546792,42.758619 C 46.25761,42.758619 47.379923,40.824789 46.015881,38.476565 L 26.936562,5.1697713 z "
     style="fill:#fac521;fill-opacity:1;stroke:#000000;stroke-width:2.93148518"
     id="use2812" />
  <path
     d="M 26.936562,5.1697713 C 25.589787,2.8215473 23.379693,2.8215473 22.050184,5.1697713 L 2.9535991,38.476565 C 1.6068236,40.824789 2.7291364,42.758619 5.4399537,42.758619 L 43.546792,42.758619 C 46.25761,42.758619 47.379923,40.824789 46.015881,38.476565 L 26.936562,5.1697713 z "
     style="fill:#fde087;fill-opacity:1"
     id="use2814" />
  <path
     d="M 27.995881,8.2919041 C 26.771364,6.1568523 24.761903,6.1568523 23.553088,8.2919041 L 6.1900939,38.575098 C 4.9655814,40.71015 5.9860091,42.468427 8.4507377,42.468427 L 43.098231,42.468427 C 45.562959,42.468427 46.583389,40.71015 45.343174,38.575098 L 27.995881,8.2919041 z "
     style="fill:#fac521;fill-opacity:1"
     id="path2991" />
  <path
     d="M 28.766795,36.249205 C 28.766795,37.768644 27.471819,38.908223 25.503454,38.908223 L 25.468923,38.908223 C 23.517825,38.908223 22.205582,37.768644 22.205582,36.249205 C 22.205582,34.660701 23.552358,33.572921 25.503454,33.572921 C 27.437286,33.572921 28.732263,34.660701 28.766795,36.249205 z M 28.421468,31.690888 L 29.561048,17.739676 L 21.394063,17.739676 L 22.533643,31.690888 L 28.421468,31.690888 z "
     style="fill:#ffffff"
     id="path55" />
  <path
     id="path2163"
     style="fill:#000000"
     d="M 27.302389,35.110222 C 27.302389,36.629661 26.007413,37.76924 24.039048,37.76924 L 24.004517,37.76924 C 22.053419,37.76924 20.741176,36.629661 20.741176,35.110222 C 20.741176,33.521718 22.087952,32.433938 24.039048,32.433938 C 25.97288,32.433938 27.267857,33.521718 27.302389,35.110222 z M 26.957062,30.551905 L 28.096642,16.600693 L 19.929657,16.600693 L 21.069237,30.551905 L 26.957062,30.551905 z " />
</svg>
