<?xml version="1.0" encoding="UTF-8" standalone="no"?>
<!-- Created with Inkscape (http://www.inkscape.org/) -->
<svg
   xmlns:dc="http://purl.org/dc/elements/1.1/"
   xmlns:cc="http://web.resource.org/cc/"
   xmlns:rdf="http://www.w3.org/1999/02/22-rdf-syntax-ns#"
   xmlns:svg="http://www.w3.org/2000/svg"
   xmlns="http://www.w3.org/2000/svg"
   xmlns:sodipodi="http://sodipodi.sourceforge.net/DTD/sodipodi-0.dtd"
   xmlns:inkscape="http://www.inkscape.org/namespaces/inkscape"
   version="1.0"
   width="48"
   height="48"
   id="svg2"
   sodipodi:version="0.32"
   inkscape:version="0.44+devel"
   sodipodi:docname="caution.svg"
   sodipodi:docbase="/home/andy/Desktop/images"
   inkscape:output_extension="org.inkscape.output.svg.inkscape"
   sodipodi:modified="true">
  <metadata
     id="metadata13">
    <rdf:RDF>
      <cc:Work
         rdf:about="">
        <dc:format>image/svg+xml</dc:format>
        <dc:type
           rdf:resource="http://purl.org/dc/dcmitype/StillImage" />
      </cc:Work>
    </rdf:RDF>
  </metadata>
  <sodipodi:namedview
     inkscape:window-height="500"
     inkscape:window-width="749"
     inkscape:pageshadow="0"
     inkscape:pageopacity="0.0"
     guidetolerance="10.0"
     gridtolerance="10.0"
     objecttolerance="10.0"
     borderopacity="1.0"
     bordercolor="#666666"
     pagecolor="#ffffff"
     id="base"
     width="48px"
     height="48px"
     inkscape:zoom="1"
     inkscape:cx="19.793863"
     inkscape:cy="16.892052"
     inkscape:window-x="412"
     inkscape:window-y="507"
     inkscape:current-layer="svg2" />
  <defs
     id="defs5" />
  <path
     d="M 14.775913,1.0473265 L 14.333532,1.4344096 L 1.8362762,13.931665 L 1.4491931,14.374046 L 1.4491931,14.982319 L 1.4491931,32.622252 L 1.4491931,33.230525 L 1.8362762,33.672906 L 14.333532,46.114865 L 14.775913,46.557244 L 15.384187,46.557244 L 33.024118,46.557244 L 33.632392,46.557244 L 34.074772,46.114865 L 46.51673,33.672906 L 46.959111,33.230525 L 46.959111,32.622252 L 46.959111,14.982319 L 46.959111,14.374046 L 46.51673,13.931665 L 34.074772,1.4344096 L 33.632392,1.0473265 L 33.024118,1.0473265 L 15.384187,1.0473265 L 14.775913,1.0473265 z M 15.99246,3.9228013 L 32.360548,3.9228013 L 44.083636,15.590593 L 44.083636,31.95868 L 32.360548,43.68177 L 15.99246,43.68177 L 4.3246679,31.95868 L 4.3246679,15.590593 L 15.99246,3.9228013 z "
     style="fill:#000000;fill-opacity:1;stroke:none;stroke-width:1.64160597;stroke-opacity:1"
     id="polygon151" />
  <path
     d="M 15.364279,45.112872 L 2.8891424,32.62004 L 2.8891424,14.977896 L 15.364279,2.4850638 L 33.024118,2.4850638 L 45.51695,14.977896 L 45.51695,32.62004 L 33.024118,45.112872 L 15.364279,45.112872 z "
     style="fill:#ff0606;fill-opacity:1"
     id="use167" />
  <path
     d="M 16.213977,44.726731 L 4.7181296,33.247166 L 4.7181296,16.996661 L 16.213977,5.5170964 L 32.448199,5.5170964 L 43.944047,16.996661 L 43.944047,33.247166 L 32.448199,44.726731 L 16.213977,44.726731 z "
     style="fill:#cc0000"
     id="polygon181" />
  <path
     d="M 15.230292,11.145596 C 13.573583,11.147012 12.083679,12.154225 11.464953,13.69106 C 10.846227,15.227896 11.222629,16.986479 12.416209,18.135414 L 30.84391,36.563115 C 31.860255,37.649208 33.388878,38.093062 34.828852,37.720187 C 36.268824,37.347312 37.389909,36.217331 37.75139,34.774455 C 38.112869,33.331579 37.656947,31.806512 36.562852,30.798785 L 18.180539,12.371083 C 17.405725,11.576864 16.339791,11.134092 15.230292,11.145596 z "
     style="fill:#a70000;fill-opacity:1;stroke:none;stroke-width:5.5939002;stroke-linecap:round;stroke-linejoin:round;stroke-opacity:1"
     id="line187" />
  <path
     d="M 33.612604,11.145596 C 32.566278,11.182092 31.574433,11.621106 30.84391,12.371083 L 12.416209,30.798785 C 10.824433,32.39056 10.824433,34.971339 12.416209,36.563115 C 14.007985,38.154891 16.588764,38.154891 18.180539,36.563115 L 36.562852,18.135414 C 37.776,16.969503 38.144943,15.176438 37.490657,13.626282 C 36.836369,12.076125 35.294255,11.089676 33.612604,11.145596 L 33.612604,11.145596 z "
     style="fill:#a70000;fill-opacity:1;stroke:none;stroke-width:5.5939002;stroke-linecap:round;stroke-linejoin:round;stroke-opacity:1"
     id="line189" />
  <path
     d="M 15.27568,12.507249 C 14.158795,12.489058 13.145299,13.158389 12.723527,14.192735 C 12.301755,15.22708 12.558227,16.414263 13.369366,17.182257 L 31.797067,35.609958 C 32.862429,36.662786 34.579561,36.652625 35.632389,35.587264 C 36.685218,34.521902 36.675057,32.80477 35.609695,31.751942 L 17.227382,13.32424 C 16.714487,12.798566 16.010107,12.503709 15.27568,12.507249 z "
     style="fill:#ffffff;fill-opacity:1;stroke:none;stroke-width:3.72929978;stroke-linecap:round;stroke-linejoin:round;stroke-opacity:1"
     id="line193" />
  <path
     d="M 33.657993,12.507249 C 32.955153,12.527708 32.287816,12.820685 31.797067,13.32424 L 13.369366,31.751942 C 12.304004,32.817303 12.304004,34.544596 13.369366,35.609958 C 14.434728,36.675319 16.162021,36.675319 17.227382,35.609958 L 35.609695,17.182257 C 36.427728,16.408701 36.681931,15.209761 36.248191,14.170802 C 35.81445,13.131843 34.783224,12.469538 33.657993,12.507249 L 33.657993,12.507249 z "
     style="fill:#ffffff;fill-opacity:1;stroke:none;stroke-width:3.72929978;stroke-linecap:round;stroke-linejoin:round;stroke-opacity:1"
     id="line195" />
</svg>
