<?xml version="1.0" encoding="UTF-8" standalone="no"?>
<!-- Created with Inkscape (http://www.inkscape.org/) -->
<svg
   xmlns:a="http://ns.adobe.com/AdobeSVGViewerExtensions/3.0/"
   xmlns:dc="http://purl.org/dc/elements/1.1/"
   xmlns:cc="http://web.resource.org/cc/"
   xmlns:rdf="http://www.w3.org/1999/02/22-rdf-syntax-ns#"
   xmlns:svg="http://www.w3.org/2000/svg"
   xmlns="http://www.w3.org/2000/svg"
   xmlns:xlink="http://www.w3.org/1999/xlink"
   xmlns:sodipodi="http://sodipodi.sourceforge.net/DTD/sodipodi-0.dtd"
   xmlns:inkscape="http://www.inkscape.org/namespaces/inkscape"
   version="1.0"
   width="550"
   height="320"
   id="svg3017"
   sodipodi:version="0.32"
   inkscape:version="0.44+devel"
   sodipodi:docname="rhds-deployment-02.svg"
   sodipodi:docbase="/home/andy/Desktop/stuff">
  <metadata
     id="metadata131">
    <rdf:RDF>
      <cc:Work
         rdf:about="">
        <dc:format>image/svg+xml</dc:format>
        <dc:type
           rdf:resource="http://purl.org/dc/dcmitype/StillImage" />
      </cc:Work>
    </rdf:RDF>
  </metadata>
  <sodipodi:namedview
     inkscape:window-height="762"
     inkscape:window-width="927"
     inkscape:pageshadow="0"
     inkscape:pageopacity="0.0"
     guidetolerance="10.0"
     gridtolerance="10.0"
     objecttolerance="10.0"
     borderopacity="1.0"
     bordercolor="#666666"
     pagecolor="#ffffff"
     id="base"
     inkscape:zoom="1"
     inkscape:cx="347.69099"
     inkscape:cy="216.36269"
     inkscape:window-x="399"
     inkscape:window-y="69"
     inkscape:current-layer="layer-resources" />
  <defs
     id="defs3019">
    <linearGradient
       id="linearGradient3365">
      <stop
         style="stop-color:#e3dcc0;stop-opacity:1"
         offset="0"
         id="stop3367" />
      <stop
         style="stop-color:#e3dcc0;stop-opacity:0"
         offset="1"
         id="stop3369" />
    </linearGradient>
    <marker
       refX="0"
       refY="0"
       orient="auto"
       style="overflow:visible"
       id="TriangleOutM">
      <path
         d="M 5.77,0 L -2.88,5 L -2.88,-5 L 5.77,0 z "
         transform="scale(0.4,0.4)"
         style="fill:#5c5c4f;fill-rule:evenodd;stroke-width:1pt;marker-start:none"
         id="path3238" />
    </marker>
    <linearGradient
       x1="43.799999"
       y1="32.5"
       x2="63.299999"
       y2="66.400002"
       id="XMLID_2708_"
       gradientUnits="userSpaceOnUse">
      <stop
         style="stop-color:white;stop-opacity:1"
         offset="0"
         id="stop75318" />
      <stop
         style="stop-color:#fffcea;stop-opacity:1"
         offset="1"
         id="stop75320" />
      <a:midPointStop
         offset="0"
         style="stop-color:#FFFFFF" />
      <a:midPointStop
         offset="0.5"
         style="stop-color:#FFFFFF" />
      <a:midPointStop
         offset="1"
         style="stop-color:#FFFCEA" />
    </linearGradient>
    <linearGradient
       x1="43.799999"
       y1="32.5"
       x2="63.299999"
       y2="66.400002"
       id="lg1907"
       xlink:href="#XMLID_2708_"
       gradientUnits="userSpaceOnUse"
       gradientTransform="translate(-29,-22.6)" />
    <linearGradient
       x1="52.5"
       y1="40.400002"
       x2="58.200001"
       y2="64"
       id="XMLID_2707_"
       gradientUnits="userSpaceOnUse">
      <stop
         style="stop-color:#ffdea0;stop-opacity:1"
         offset="0"
         id="stop75305" />
      <stop
         style="stop-color:#ffd89e;stop-opacity:1"
         offset="0.30000001"
         id="stop75307" />
      <stop
         style="stop-color:#ffd79e;stop-opacity:1"
         offset="0.30000001"
         id="stop75309" />
      <stop
         style="stop-color:#dbaf6d;stop-opacity:1"
         offset="0.69999999"
         id="stop75311" />
      <stop
         style="stop-color:#6f4c24;stop-opacity:1"
         offset="1"
         id="stop75313" />
      <a:midPointStop
         offset="0"
         style="stop-color:#FFDEA0" />
      <a:midPointStop
         offset="0.6"
         style="stop-color:#FFDEA0" />
      <a:midPointStop
         offset="0.3"
         style="stop-color:#FFD79E" />
      <a:midPointStop
         offset="0.5"
         style="stop-color:#FFD79E" />
      <a:midPointStop
         offset="0.7"
         style="stop-color:#DBAF6D" />
      <a:midPointStop
         offset="0.5"
         style="stop-color:#DBAF6D" />
      <a:midPointStop
         offset="1"
         style="stop-color:#6F4C24" />
    </linearGradient>
    <linearGradient
       x1="52.5"
       y1="40.400002"
       x2="58.200001"
       y2="64"
       id="lg1910"
       xlink:href="#XMLID_2707_"
       gradientUnits="userSpaceOnUse"
       gradientTransform="translate(-29,-22.6)" />
    <linearGradient
       x1="58"
       y1="73.199997"
       x2="44.5"
       y2="19"
       id="XMLID_2704_"
       gradientUnits="userSpaceOnUse"
       gradientTransform="translate(-29,-22.6)">
      <stop
         style="stop-color:#d4a96c;stop-opacity:1"
         offset="0.5"
         id="stop75284" />
      <stop
         style="stop-color:#dcb273;stop-opacity:1"
         offset="0.60000002"
         id="stop75286" />
      <stop
         style="stop-color:#f0ca87;stop-opacity:1"
         offset="0.80000001"
         id="stop75288" />
      <stop
         style="stop-color:#ffdc96;stop-opacity:1"
         offset="0.69999999"
         id="stop75290" />
      <stop
         style="stop-color:#c18a42;stop-opacity:1"
         offset="1"
         id="stop75292" />
      <a:midPointStop
         offset="0.5"
         style="stop-color:#D4A96C" />
      <a:midPointStop
         offset="0.6"
         style="stop-color:#D4A96C" />
      <a:midPointStop
         offset="0.7"
         style="stop-color:#FFDC96" />
      <a:midPointStop
         offset="0.5"
         style="stop-color:#FFDC96" />
      <a:midPointStop
         offset="1"
         style="stop-color:#C18A42" />
    </linearGradient>
    <linearGradient
       x1="53.700001"
       y1="32"
       x2="53.700001"
       y2="64.599998"
       id="XMLID_2703_"
       gradientUnits="userSpaceOnUse">
      <stop
         style="stop-color:#e5c9b0;stop-opacity:1"
         offset="0"
         id="stop75268" />
      <stop
         style="stop-color:#e5c9b0;stop-opacity:1"
         offset="0.40000001"
         id="stop75270" />
      <stop
         style="stop-color:#c0aa94;stop-opacity:1"
         offset="1"
         id="stop75272" />
      <a:midPointStop
         offset="0"
         style="stop-color:#E5C9B0" />
      <a:midPointStop
         offset="0.5"
         style="stop-color:#E5C9B0" />
      <a:midPointStop
         offset="0.4"
         style="stop-color:#E5C9B0" />
      <a:midPointStop
         offset="0.5"
         style="stop-color:#E5C9B0" />
      <a:midPointStop
         offset="1"
         style="stop-color:#C0AA94" />
    </linearGradient>
    <linearGradient
       x1="53.700001"
       y1="32"
       x2="53.700001"
       y2="64.599998"
       id="lg1916"
       xlink:href="#XMLID_2703_"
       gradientUnits="userSpaceOnUse"
       gradientTransform="translate(-29,-22.6)" />
    <pattern
       patternUnits="userSpaceOnUse"
       width="32"
       height="32"
       id="white-spots"
       patternTransform="matrix(0.375,0,0,0.375,384.6693,321.7531)">
      <g
         inkscape:label="#g3035"
         id="white-spot"
         transform="translate(-484.3997,-513.505)">
        <path
           sodipodi:nodetypes="czzzz"
           d="M 509.39967,529.50504 C 509.39967,534.47304 505.36767,538.50504 500.39967,538.50504 C 495.43167,538.50504 491.39967,534.47304 491.39967,529.50504 C 491.39967,524.53704 495.43167,520.50504 500.39967,520.50504 C 505.36767,520.50504 509.39967,524.53704 509.39967,529.50504 z "
           id="path3033"
           style="opacity:0.25;fill:white" />
      </g>
    </pattern>
    <radialGradient
       cx="320"
       cy="170"
       r="320"
       fx="320"
       fy="170"
       id="radialGradient3371"
       xlink:href="#linearGradient3365"
       gradientUnits="userSpaceOnUse"
       gradientTransform="matrix(1.313575,0,0,0.820984,-100.3439,30.43269)" />
  </defs>
  <g
     transform="translate(0,30)"
     id="layer-resources">
    <rect
       width="550"
       height="320"
       rx="20"
       ry="20"
       x="0"
       y="-30"
       style="fill:#e3dcc0"
       id="rect2424" />
    <rect
       width="550"
       height="310"
       rx="20"
       ry="20"
       x="0"
       y="-30"
       style="fill:url(#white-spots);fill-opacity:1"
       id="rect7353" />
    <rect
       width="550"
       height="320"
       rx="20"
       ry="20"
       x="0"
       y="-30"
       style="fill:url(#radialGradient3371);fill-opacity:1"
       id="rect2472" />
    <use
       transform="translate(-115.2929,0)"
       id="use2436"
       x="0"
       y="0"
       width="744.09448"
       height="600"
       xlink:href="#g2426" />
    <g
       transform="translate(379.1,-19.4)"
       id="g5551">
      <path
         d="M 34.7,9.6 C 35.4,9.4 36,9.5 36.5,10.1 C 37,10.5 37.8,12.8 38.3,16.6 C 40,16.2 41.2,15.9 41.4,15.8 C 42.5,15.5 43.3,16.2 42.9,17.5 C 42.6,18.5 41.9,21 41.1,25.4 C 40.4,30 40.8,34.4 39.2,34.8 C 37.8,35.1 13.5,41 10,41.9 C 9.9,42 9.7,42 9.6,42 L 10,41.9 L 9.5,42 C 8.9,42.2 8.2,41.2 8.2,38.9 C 8.2,36.5 8.3,34 7.9,27.1 C 7.5,20.9 6.7,15.2 6.5,13.8 C 6.2,12.4 6.7,11.6 7.5,11.5 C 8.4,11.4 15.1,9.6 16,9.4 C 17.2,9.2 18.1,9.6 18.5,10.5 C 19,11.6 19.7,12.5 20.7,12.8 C 21.6,13 22.4,12.8 22.4,12.8 C 22.4,12.8 34.1,9.8 34.7,9.6 z "
         style="fill:url(#lg1916);stroke:black;stroke-width:2;stroke-miterlimit:3.9000001"
         id="p75274" />
      <path
         d="M 34.7,9.6 C 35.4,9.4 36,9.5 36.5,10.1 C 37.1,10.6 38.2,14.1 38.7,19.9 C 39.1,25.4 39,30.3 39,32 C 39,33.3 38.4,34.3 37,34.9 L 9.5,42 C 8.9,42.2 8.2,41.2 8.2,38.9 C 8.2,36.6 8.3,34 7.9,27.1 C 7.5,20.9 6.7,15.2 6.5,13.8 C 6.2,12.4 6.7,11.6 7.5,11.5 C 8.4,11.4 15.1,9.6 16,9.4 C 17.2,9.2 18.1,9.6 18.5,10.6 C 19,11.6 19.7,12.5 20.7,12.8 C 21.6,13.1 22.4,12.8 22.4,12.8 C 22.4,12.8 34.1,9.8 34.7,9.6 z "
         style="fill:url(#XMLID_2704_);fill-rule:evenodd"
         id="p75294" />
      <path
         d="M 40,17.1 C 39.9,16.4 38.8,15.9 38,16.1 L 38,16.1 C 37.8,16.2 15.6,21.7 14.6,22 C 13.2,22.3 12.2,23.3 11.6,24.6 C 11.2,25.7 10.9,27.4 10.4,31.9 L 10.4,33.1 C 10.3,34.7 9.9,39.6 9.7,40.3 L 9.6,40.4 L 9.5,40.6 L 9.5,40.8 L 9.5,41.6 L 11.6,41.6 C 11.7,41.5 11.8,41.3 11.8,41.2 C 12.2,40.5 12.2,39.6 12.3,38.3 L 12.4,36.5 C 12.7,33 13,27.7 13.8,25.5 C 14,25.1 14.3,24.5 15.1,24.3 C 16.2,24 38.2,18.5 39.3,18.2 C 39.9,18.1 40.2,17.5 40,17.1 z "
         style="fill:#b2864e"
         id="p75302" />
      <path
         d="M 39.2,34.8 C 40.8,34.4 40.4,30 41.1,25.4 C 41.9,21 42.6,18.5 42.9,17.6 C 43.3,16.2 42.5,15.5 41.4,15.8 C 40.2,16.2 15.2,22.7 14.1,22.9 C 13.4,23.1 12.8,23.8 12.4,24.8 C 11.9,26.1 11.6,28.2 11.2,33.5 C 10.8,38.9 10.9,42.1 9.6,42 C 9.6,42 37.7,35.1 39.2,34.8 z "
         style="fill:url(#lg1910);fill-rule:evenodd"
         id="p75315" />
      <path
         d="M 7.1,13.3 C 7.2,14 8.4,20.6 8.7,28.1 C 8.9,32.1 8.9,34.8 8.9,36.7 C 8.8,37.6 8.7,39.4 8.9,40.2 C 9.2,41.4 10,41.3 10.4,40.5 C 10.8,39.6 11.1,32.8 11.2,32 C 11.6,27.5 11.9,25.9 12.3,24.9 C 12.7,24 13.5,23 14.7,22.7 C 15.8,22.5 41.7,15.8 41.7,15.8 C 42.2,15.6 43.1,16.2 42.6,16.4 C 42.6,16.4 16,23.3 14.9,23.5 C 14,23.7 13.4,24.5 13.1,25.2 C 12.1,27.9 11.8,34.9 11.6,38.2 C 11.5,39.5 11.4,40.3 11.1,40.9 C 10.3,42.8 8.5,42.2 8.1,40.4 C 7.9,39.4 8,37.7 8,36.7 C 8.1,34.8 8.1,32.1 7.9,28.2 C 7.5,20.7 6.4,14.1 6.3,13.4 C 6.2,12.8 6.4,12 7.1,11.7 C 7.6,11.6 7,12.4 7.1,13.3 z "
         style="fill:url(#lg1907)"
         id="p75322" />
    </g>
    <text
       x="73.998627"
       y="54.009926"
       style="font-size:12px;font-style:normal;font-variant:normal;font-weight:normal;font-stretch:normal;text-align:center;line-height:125%;writing-mode:lr-tb;text-anchor:middle;fill:white;font-family:Interstate-Bold"
       id="text2382"
       xml:space="preserve"><tspan
         x="73.998627"
         y="54.009926"
         id="tspan2384">Attributes</tspan></text>
    <g
       transform="translate(-31,0)"
       id="g2426">
      <rect
         width="109.99999"
         height="200"
         rx="10"
         ry="10"
         x="165"
         y="35"
         style="fill:#5c5c4f"
         id="rect2056" />
      <rect
         width="100"
         height="20"
         rx="5"
         ry="5"
         x="170"
         y="60"
         style="fill:white"
         id="rect2410" />
      <use
         transform="translate(0,25)"
         id="use2414"
         x="0"
         y="0"
         width="744.09448"
         height="600"
         xlink:href="#rect2410" />
      <use
         transform="translate(0,50)"
         id="use2416"
         x="0"
         y="0"
         width="744.09448"
         height="600"
         xlink:href="#rect2410" />
      <use
         transform="translate(0,75)"
         id="use2418"
         x="0"
         y="0"
         width="744.09448"
         height="600"
         xlink:href="#rect2410" />
      <use
         transform="translate(0,100)"
         id="use2420"
         x="0"
         y="0"
         width="744.09448"
         height="600"
         xlink:href="#rect2410" />
      <use
         transform="translate(0,125)"
         id="use2422"
         x="0"
         y="0"
         width="744.09448"
         height="600"
         xlink:href="#rect2410" />
      <use
         transform="translate(0,150)"
         id="use2412"
         x="0"
         y="0"
         width="744.09448"
         height="600"
         xlink:href="#rect2410" />
    </g>
    <text
       x="187.39449"
       y="52.437923"
       style="font-size:12px;font-style:normal;font-variant:normal;font-weight:normal;font-stretch:normal;text-align:center;line-height:125%;writing-mode:lr-tb;text-anchor:middle;fill:white;font-family:Interstate-Bold"
       id="text2390"
       xml:space="preserve"><tspan
         x="187.39449"
         y="52.437923"
         id="tspan2392">Accounting</tspan></text>
    <text
       x="85.981079"
       y="17.933287"
       style="font-size:12px;font-style:normal;font-variant:normal;font-weight:normal;font-stretch:normal;text-align:center;line-height:125%;writing-mode:lr-tb;text-anchor:middle;fill:#a70000;font-family:Interstate-Bold"
       id="text2394"
       xml:space="preserve"
       sodipodi:linespacing="125%"><tspan
         x="85.981079"
         y="17.933287"
         style="font-size:16px;fill:#a70000;font-family:Interstate-Bold"
         id="tspan2396">What</tspan></text>
    <text
       x="199.4393"
       y="17.845287"
       style="font-size:12px;font-style:normal;font-variant:normal;font-weight:normal;font-stretch:normal;text-align:center;line-height:125%;writing-mode:lr-tb;text-anchor:middle;fill:#a70000;font-family:Interstate-Bold"
       id="text2398"
       xml:space="preserve"
       sodipodi:linespacing="125%"><tspan
         x="199.4393"
         y="17.845287"
         style="font-size:16px;fill:#a70000;font-family:Interstate-Bold"
         id="tspan2400">Who</tspan></text>
    <g
       transform="translate(-1.061988,13.65329)"
       id="g2632">
      <path
         d="M -110,-110 C -110,-98.954305 -118.95431,-90 -130,-90 C -141.04569,-90 -150,-98.954305 -150,-110 C -150,-121.04569 -141.04569,-130 -130,-130 C -118.95431,-130 -110,-121.04569 -110,-110 z "
         transform="matrix(0.717157,0,0,0.717157,138.899,78.88727)"
         style="fill:#a70000"
         id="path2438" />
      <text
         x="46.113811"
         y="6.0050836"
         style="font-size:17.88726425px;font-style:normal;font-variant:normal;font-weight:normal;font-stretch:normal;text-align:center;line-height:125%;writing-mode:lr-tb;text-anchor:middle;fill:white;font-family:Interstate-Bold"
         id="text2440"
         xml:space="preserve"
         sodipodi:linespacing="125%"><tspan
           x="46.113811"
           y="6.0050836"
           id="tspan2442">2</tspan></text>
    </g>
    <use
       transform="translate(187.6746,264.3431)"
       id="use2448"
       x="0"
       y="0"
       width="744.09448"
       height="600"
       xlink:href="#path2438" />
    <g
       transform="translate(-103.9011,13.65329)"
       id="g2627">
      <use
         transform="translate(218.496,0)"
         id="use2446"
         x="0"
         y="0"
         width="1"
         height="1"
         xlink:href="#path2438" />
      <text
         x="263.90271"
         y="6.0050836"
         style="font-size:17.88726425px;font-style:normal;font-variant:normal;font-weight:normal;font-stretch:normal;text-align:center;line-height:125%;writing-mode:lr-tb;text-anchor:middle;fill:white;font-family:Interstate-Bold"
         id="text2454"
         xml:space="preserve"
         sodipodi:linespacing="125%"><tspan
           x="263.90271"
           y="6.0050836"
           id="tspan2456">1</tspan></text>
    </g>
    <g
       transform="translate(-63.28684,-67.77819)"
       id="g2433">
      <use
         transform="translate(318.6746,75.65686)"
         id="use2444"
         x="0"
         y="0"
         width="744.09448"
         height="600"
         xlink:href="#path2438" />
      <text
         x="364.1138"
         y="82"
         style="font-size:17.88726425px;font-style:normal;font-variant:normal;font-weight:normal;font-stretch:normal;text-align:center;line-height:125%;writing-mode:lr-tb;text-anchor:middle;fill:white;font-family:Interstate-Bold"
         id="text2458"
         xml:space="preserve"
         sodipodi:linespacing="125%"><tspan
           x="364.1138"
           y="82"
           id="tspan2460">3</tspan></text>
    </g>
    <text
       x="232.1138"
       y="270"
       style="font-size:17.88726425px;font-style:normal;font-variant:normal;font-weight:normal;font-stretch:normal;text-align:center;line-height:125%;writing-mode:lr-tb;text-anchor:middle;fill:white;font-family:Interstate-Bold"
       id="text2450"
       xml:space="preserve"><tspan
         x="232.1138"
         y="270"
         id="tspan2452">4</tspan></text>
    <text
       x="407.94141"
       y="40"
       style="font-size:12px;font-style:normal;font-variant:normal;font-weight:normal;font-stretch:normal;text-align:center;line-height:125%;writing-mode:lr-tb;text-anchor:middle;font-family:Interstate-Bold"
       id="text3373"
       xml:space="preserve"><tspan
         x="407.94141"
         y="40"
         id="tspan3375">dc=example,dc=com</tspan></text>
    <rect
       width="120"
       height="120.2467"
       rx="5"
       ry="5"
       x="273.2355"
       y="129.7533"
       style="fill:#c8c5ac"
       id="rect3381" />
    <text
       x="344.61407"
       y="152.29492"
       style="font-size:12px;font-style:normal;font-variant:normal;font-weight:normal;font-stretch:normal;text-align:center;line-height:125%;writing-mode:lr-tb;text-anchor:middle;font-family:Interstate-Bold"
       id="text3383"
       xml:space="preserve"><tspan
         x="344.61407"
         y="152.29492"
         id="tspan3385">uid=scarter,...</tspan></text>
    <path
       d="M 417,45 L 432,60"
       style="fill:none;fill-opacity:0.75;fill-rule:evenodd;stroke:#5c5c4f;stroke-width:1.99999976;stroke-linecap:butt;stroke-linejoin:miter;marker-mid:none;marker-end:url(#TriangleOutM);stroke-miterlimit:4;stroke-dasharray:none;stroke-opacity:1"
       id="path3393" />
    <use
       transform="matrix(-1,0,0,1,799.514,0)"
       id="use3395"
       x="0"
       y="0"
       width="744.09448"
       height="600"
       xlink:href="#path3393" />
    <use
       transform="matrix(0.707107,0.707107,-0.707107,0.707107,196.9563,-227.5133)"
       id="use2429"
       x="0"
       y="0"
       width="744.09448"
       height="600"
       xlink:href="#path3393" />
    <use
       transform="translate(-127,0)"
       id="use2431"
       x="0"
       y="0"
       width="744.09448"
       height="600"
       xlink:href="#use2429" />
    <use
       transform="translate(136.4717,0)"
       style="fill:#c8c5ac"
       id="use2449"
       x="0"
       y="0"
       width="744.09448"
       height="600"
       xlink:href="#rect3381" />
    <flowRoot
       transform="translate(-10.25,-51)"
       style="font-size:12px;font-style:normal;font-variant:normal;font-weight:normal;font-stretch:normal;text-align:start;line-height:125%;writing-mode:lr-tb;text-anchor:start;font-family:Interstate-Bold"
       id="flowRoot2438"
       xml:space="preserve"><flowRegion
         id="flowRegion2440"><rect
           width="93"
           height="37"
           x="447"
           y="193"
           style="font-size:12px;font-style:normal;font-variant:normal;font-weight:normal;font-stretch:normal;text-align:start;line-height:125%;writing-mode:lr-tb;text-anchor:start;font-family:Interstate-Bold"
           id="rect2442" /></flowRegion><flowPara
         id="flowPara2444">cn=Accounting Managers,...</flowPara></flowRoot>    <text
       x="279"
       y="152.25"
       style="font-size:12px;font-family:Interstate-Bold"
       id="text2455"
       xml:space="preserve"><tspan
         x="279"
         y="152.25"
         id="tspan2457">dn:  </tspan></text>
    <use
       transform="translate(134.75,0)"
       id="use2459"
       x="0"
       y="0"
       width="744.09448"
       height="600"
       xlink:href="#text2455" />
    <path
       d="M 284.09878,159 L 284.09878,230 M 294.09878,166.41243 L 284.09878,166.41243 M 294.09878,180.90812 L 284.09878,180.90812 M 294.09878,197.87868 L 284.09878,197.87868 M 294.09878,213.08148 L 284.09878,213.08148"
       style="fill:none;stroke:#5c5c4f;stroke-width:2;stroke-linecap:round;stroke-linejoin:round"
       id="path2461" />
    <text
       x="299"
       y="170"
       style="font-size:12px;font-family:Interstate-Regular"
       id="text2469"
       xml:space="preserve"><tspan
         x="299"
         y="170"
         id="tspan2471">cn: Sam Carter</tspan><tspan
         x="299"
         y="185"
         id="tspan2473">sn: Carter</tspan><tspan
         x="299"
         y="200"
         id="tspan2475">uid: scarter</tspan><tspan
         x="299"
         y="215"
         id="tspan2477">ou: Accounting</tspan></text>
    <path
       d="M 420.59878,159 L 420.59878,230 M 430.59878,197.87868 L 420.59878,197.87868"
       style="fill:none;stroke:#5c5c4f;stroke-width:2;stroke-linecap:round;stroke-linejoin:round"
       id="path2491" />
    <text
       x="437.23938"
       y="198.99138"
       style="font-size:12px;font-family:Interstate-Regular"
       id="text2493"
       xml:space="preserve"><tspan
         x="437.23938"
         y="198.99138"
         id="tspan2501">uniquemember:</tspan><tspan
         x="437.23938"
         y="213.99138"
         id="tspan2512">  uid=scarter,...</tspan></text>
    <text
       x="73"
       y="73.5"
       style="font-size:12px;text-align:center;line-height:210.00001431%;writing-mode:lr-tb;text-anchor:middle;font-family:Interstate-Regular"
       id="text2514"
       xml:space="preserve"><tspan
         x="73"
         y="73.5"
         id="tspan2537">sn</tspan><tspan
         x="73"
         y="98.700005"
         id="tspan2548">cn</tspan><tspan
         x="73"
         y="123.9"
         id="tspan2550">givenname</tspan><tspan
         x="73"
         y="149.10001"
         id="tspan2552">uid</tspan><tspan
         x="73"
         y="174.3"
         id="tspan2554">ou</tspan><tspan
         x="73"
         y="199.50002"
         id="tspan2556">mail</tspan><tspan
         x="73"
         y="224.70001"
         id="tspan2558">telephone</tspan></text>
    <text
       x="188"
       y="122.5"
       style="font-size:12px;text-align:center;line-height:210.00001431%;writing-mode:lr-tb;text-anchor:middle;font-family:Interstate-Regular"
       id="text2560"
       xml:space="preserve"><tspan
         x="188"
         y="122.5"
         id="tspan2605">w</tspan><tspan
         x="188"
         y="147.7"
         id="tspan2611" /><tspan
         x="188"
         y="172.89999"
         id="tspan2613">w</tspan><tspan
         x="188"
         y="198.10001"
         id="tspan2615">w</tspan><tspan
         x="188"
         y="223.3"
         id="tspan2617">w</tspan></text>
    <text
       x="195.34375"
       y="270"
       style="font-size:12px;font-style:normal;font-variant:normal;font-weight:normal;font-stretch:normal;text-align:center;line-height:125%;writing-mode:lr-tb;text-anchor:middle;fill:#a70000;font-family:Interstate-Bold"
       id="text2619"
       xml:space="preserve"><tspan
         x="195.34375"
         y="270"
         style="font-size:16px;fill:#a70000;font-family:Interstate-Bold"
         id="tspan2621">How</tspan></text>
    <text
       x="301.65625"
       y="38.686279"
       style="font-size:12px;font-style:normal;font-variant:normal;font-weight:normal;font-stretch:normal;text-align:center;line-height:125%;writing-mode:lr-tb;text-anchor:middle;fill:#a70000;font-family:Interstate-Bold"
       id="text2623"
       xml:space="preserve"
       sodipodi:linespacing="125%"><tspan
         x="301.65625"
         y="38.686279"
         style="font-size:16px;fill:#a70000;font-family:Interstate-Bold"
         id="tspan2625">Where</tspan></text>
    <rect
       width="120"
       height="36.81525"
       rx="5"
       ry="5"
       x="277.47815"
       y="63.992367"
       style="fill:#a70000"
       id="rect3379" />
    <text
       x="344.61407"
       y="86.533989"
       style="font-size:12px;font-style:normal;font-variant:normal;font-weight:normal;font-stretch:normal;text-align:center;line-height:125%;writing-mode:lr-tb;text-anchor:middle;fill:white;font-family:Interstate-Bold"
       id="text2462"
       xml:space="preserve"
       sodipodi:linespacing="125%"><tspan
         x="344.61407"
         y="86.533989"
         id="tspan2464"
         style="fill:white">ou=People,...</tspan></text>
    <use
       transform="translate(135.7645,-4.696117e-7)"
       style="fill:#a70000"
       id="use2447"
       x="0"
       y="0"
       width="744.09448"
       height="600"
       xlink:href="#rect3379" />
    <text
       x="464.11511"
       y="86.455986"
       style="font-size:12px;font-style:normal;font-variant:normal;font-weight:normal;font-stretch:normal;text-align:center;line-height:125%;writing-mode:lr-tb;text-anchor:middle;fill:white;font-family:Interstate-Bold"
       id="text2468"
       xml:space="preserve"
       sodipodi:linespacing="125%"><tspan
         x="464.11511"
         y="86.455986"
         id="tspan2470"
         style="fill:white">ou=Groups,...</tspan></text>
  </g>
  <g
     transform="translate(0,30)"
     style="opacity:1"
     id="layer1" />
</svg>
