<?xml version="1.0" encoding="UTF-8" standalone="no"?>
<!-- Created with Inkscape (http://www.inkscape.org/) -->
<svg
   xmlns:a="http://ns.adobe.com/AdobeSVGViewerExtensions/3.0/"
   xmlns:dc="http://purl.org/dc/elements/1.1/"
   xmlns:cc="http://web.resource.org/cc/"
   xmlns:rdf="http://www.w3.org/1999/02/22-rdf-syntax-ns#"
   xmlns:svg="http://www.w3.org/2000/svg"
   xmlns="http://www.w3.org/2000/svg"
   xmlns:xlink="http://www.w3.org/1999/xlink"
   xmlns:sodipodi="http://sodipodi.sourceforge.net/DTD/sodipodi-0.dtd"
   xmlns:inkscape="http://www.inkscape.org/namespaces/inkscape"
   version="1.0"
   width="392.16534"
   height="481.86255"
   id="svg3017"
   sodipodi:version="0.32"
   inkscape:version="0.44+devel"
   sodipodi:docname="clustercomputer2.svg"
   sodipodi:docbase="/home/andy/Desktop/Pauls_Illustrations.tar.gz_FILES/SVG"
   inkscape:export-filename="/home/andy/Desktop/stuff/clustercomputer2.png"
   inkscape:export-xdpi="90"
   inkscape:export-ydpi="90"
   inkscape:output_extension="org.inkscape.output.svg.inkscape"
   sodipodi:modified="true">
  <metadata
     id="metadata113">
    <rdf:RDF>
      <cc:Work
         rdf:about="">
        <dc:format>image/svg+xml</dc:format>
        <dc:type
           rdf:resource="http://purl.org/dc/dcmitype/StillImage" />
      </cc:Work>
    </rdf:RDF>
  </metadata>
  <sodipodi:namedview
     inkscape:window-height="903"
     inkscape:window-width="858"
     inkscape:pageshadow="0"
     inkscape:pageopacity="0.0"
     guidetolerance="10.0"
     gridtolerance="10.0"
     objecttolerance="10.0"
     borderopacity="1.0"
     bordercolor="#666666"
     pagecolor="#ffffff"
     id="base"
     width="392px"
     height="516px"
     inkscape:zoom="1"
     inkscape:cx="229.37724"
     inkscape:cy="261.96523"
     inkscape:window-x="223"
     inkscape:window-y="133"
     inkscape:current-layer="svg3017" />
  <defs
     id="defs3019">
    <pattern
       patternTransform="matrix(0.375,0,0,0.375,242.5669,-218.5391)"
       id="pattern2053"
       xlink:href="#pattern3347" />
    <pattern
       xlink:href="#white-spots"
       id="pattern3347"
       patternTransform="matrix(0.375,0,0,0.375,442,-142)" />
    <linearGradient
       id="linearGradient2785">
      <stop
         style="stop-color:black;stop-opacity:1"
         offset="0"
         id="stop2787" />
      <stop
         style="stop-color:black;stop-opacity:0"
         offset="1"
         id="stop2789" />
    </linearGradient>
    <marker
       refX="0"
       refY="0"
       orient="auto"
       style="overflow:visible"
       id="TriangleOutM">
      <path
         d="M 5.77,0 L -2.88,5 L -2.88,-5 L 5.77,0 z "
         transform="scale(0.4,0.4)"
         style="fill:#5c5c4f;fill-rule:evenodd;stroke-width:1pt;marker-start:none"
         id="path3238" />
    </marker>
    <radialGradient
       cx="603.19"
       cy="230.77"
       r="1.67"
       fx="603.19"
       fy="230.77"
       id="x5010_"
       gradientUnits="userSpaceOnUse"
       gradientTransform="matrix(1.1,0,0,1.1,-54.33,-75.4)">
      <stop
         style="stop-color:#c9ffc9;stop-opacity:1"
         offset="0"
         id="stop29201" />
      <stop
         style="stop-color:#23a11f;stop-opacity:1"
         offset="1"
         id="stop29203" />
      <a:midPointStop
         style="stop-color:#C9FFC9"
         offset="0" />
      <a:midPointStop
         style="stop-color:#C9FFC9"
         offset="0.5" />
      <a:midPointStop
         style="stop-color:#23A11F"
         offset="1" />
    </radialGradient>
    <radialGradient
       cx="603.19"
       cy="230.77"
       r="1.67"
       fx="603.19"
       fy="230.77"
       id="radialGradient5711"
       xlink:href="#x5010_"
       gradientUnits="userSpaceOnUse"
       gradientTransform="matrix(1.23,0,0,1.23,-709.93,-245.02)" />
    <linearGradient
       x1="592.31"
       y1="162.60001"
       x2="609.32001"
       y2="145.59"
       id="lg5722"
       xlink:href="#x5003_"
       gradientUnits="userSpaceOnUse"
       gradientTransform="matrix(1.12,0,0,1.12,-649.08,-160.62)" />
    <linearGradient
       x1="601.48999"
       y1="170.16"
       x2="613.84003"
       y2="170.16"
       id="x5002_"
       gradientUnits="userSpaceOnUse">
      <stop
         style="stop-color:#d9d9d9;stop-opacity:1"
         offset="0"
         id="stop29134" />
      <stop
         style="stop-color:white;stop-opacity:1"
         offset="0.2"
         id="stop29136" />
      <stop
         style="stop-color:#999;stop-opacity:1"
         offset="1"
         id="stop29138" />
      <a:midPointStop
         style="stop-color:#D9D9D9"
         offset="0" />
      <a:midPointStop
         style="stop-color:#D9D9D9"
         offset="0.5" />
      <a:midPointStop
         style="stop-color:#FFFFFF"
         offset="0.20" />
      <a:midPointStop
         style="stop-color:#FFFFFF"
         offset="0.5" />
      <a:midPointStop
         style="stop-color:#999999"
         offset="1" />
    </linearGradient>
    <linearGradient
       x1="601.48999"
       y1="170.16"
       x2="613.84003"
       y2="170.16"
       id="lg5725"
       xlink:href="#x5002_"
       gradientUnits="userSpaceOnUse"
       gradientTransform="matrix(1.12,0,0,1.12,-649.08,-160.62)" />
    <linearGradient
       x1="592.20001"
       y1="156.45"
       x2="609.98999"
       y2="174.23"
       id="x5004_"
       gradientUnits="userSpaceOnUse"
       gradientTransform="matrix(1.12,0,0,1.12,-649.08,-160.62)">
      <stop
         style="stop-color:#d9d9d9;stop-opacity:1"
         offset="0"
         id="stop29157" />
      <stop
         style="stop-color:white;stop-opacity:1"
         offset="1"
         id="stop29159" />
      <a:midPointStop
         style="stop-color:#D9D9D9"
         offset="0" />
      <a:midPointStop
         style="stop-color:#D9D9D9"
         offset="0.5" />
      <a:midPointStop
         style="stop-color:#FFFFFF"
         offset="1" />
    </linearGradient>
    <linearGradient
       x1="592.20001"
       y1="156.45"
       x2="609.98999"
       y2="174.23"
       id="lg5728"
       xlink:href="#x5004_"
       gradientUnits="userSpaceOnUse"
       gradientTransform="matrix(1.12,0,0,1.12,-649.08,-160.62)" />
    <linearGradient
       x1="592.31"
       y1="162.60001"
       x2="609.32001"
       y2="145.59"
       id="x5003_"
       gradientUnits="userSpaceOnUse">
      <stop
         style="stop-color:#f2f2f2;stop-opacity:1"
         offset="0"
         id="stop29143" />
      <stop
         style="stop-color:#e5e5e5;stop-opacity:1"
         offset="1"
         id="stop29145" />
      <a:midPointStop
         style="stop-color:#F2F2F2"
         offset="0" />
      <a:midPointStop
         style="stop-color:#F2F2F2"
         offset="0.5" />
      <a:midPointStop
         style="stop-color:#E5E5E5"
         offset="1" />
    </linearGradient>
    <linearGradient
       x1="592.31"
       y1="162.60001"
       x2="609.32001"
       y2="145.59"
       id="lg5732"
       xlink:href="#x5003_"
       gradientUnits="userSpaceOnUse"
       gradientTransform="matrix(1.12,0,0,1.12,-649.08,-160.62)" />
    <linearGradient
       x1="592.20001"
       y1="156.45"
       x2="609.98999"
       y2="174.24001"
       id="x5000_"
       gradientUnits="userSpaceOnUse"
       gradientTransform="matrix(1.12,0,0,1.12,-649.08,-160.62)">
      <stop
         style="stop-color:#d9d9d9;stop-opacity:1"
         offset="0"
         id="stop29124" />
      <stop
         style="stop-color:white;stop-opacity:1"
         offset="1"
         id="stop29126" />
      <a:midPointStop
         style="stop-color:#D9D9D9"
         offset="0" />
      <a:midPointStop
         style="stop-color:#D9D9D9"
         offset="0.5" />
      <a:midPointStop
         style="stop-color:#FFFFFF"
         offset="1" />
    </linearGradient>
    <linearGradient
       x1="592.20001"
       y1="156.45"
       x2="609.98999"
       y2="174.24001"
       id="lg5735"
       xlink:href="#x5000_"
       gradientUnits="userSpaceOnUse"
       gradientTransform="matrix(1.12,0,0,1.12,-649.08,-160.62)" />
    <pattern
       patternUnits="userSpaceOnUse"
       width="32"
       height="32"
       id="white-spots"
       patternTransform="matrix(0.375,0,0,0.375,379,400)">
      <g
         inkscape:label="#g3035"
         id="white-spot"
         transform="translate(-484.3997,-513.505)">
        <path
           sodipodi:nodetypes="czzzz"
           d="M 509.39967,529.50504 C 509.39967,534.47304 505.36767,538.50504 500.39967,538.50504 C 495.43167,538.50504 491.39967,534.47304 491.39967,529.50504 C 491.39967,524.53704 495.43167,520.50504 500.39967,520.50504 C 505.36767,520.50504 509.39967,524.53704 509.39967,529.50504 z "
           id="path3033"
           style="opacity:0.25;fill:white" />
      </g>
    </pattern>
    <linearGradient
       x1="38.810085"
       y1="42.932034"
       x2="32.340218"
       y2="36.462166"
       id="linearGradient3348"
       xlink:href="#linearGradient2785"
       gradientUnits="userSpaceOnUse" />
    <linearGradient
       x1="20.183903"
       y1="-236.96107"
       x2="20.183903"
       y2="38.55719"
       id="linearGradient3350"
       xlink:href="#linearGradient2785"
       gradientUnits="userSpaceOnUse" />
  </defs>
  <rect
     width="392.16534"
     height="481.86255"
     rx="20"
     ry="20"
     x="0"
     y="0"
     style="fill:#e3dcc0"
     id="rect1933" />
  <rect
     width="384.16534"
     height="480.86255"
     rx="20"
     ry="20"
     x="2"
     y="0"
     style="fill:url(#pattern2053);fill-opacity:1"
     id="rect2455" />
  <rect
     width="336.97546"
     height="229.86809"
     rx="10"
     ry="10"
     x="26.130615"
     y="121.02686"
     style="fill:white;stroke:none"
     id="rect3417" />
  <rect
     width="96.33239"
     height="91.315254"
     rx="5"
     ry="5"
     x="222.66534"
     y="181.93304"
     style="fill:#5c5c4f"
     id="rect2058" />
  <g
     transform="translate(245.796,185.4617)"
     id="g2417">
    <path
       d="M 30.48551,42.98 L 12.04551,42.98 L 12.04551,9 L 38.02551,9 L 38.00551,35.44 C 38.01551,39.03 33.98551,42.98 30.48551,42.98 z "
       style="fill:none;fill-rule:evenodd;stroke:black;stroke-width:2;stroke-linecap:round;stroke-linejoin:round;stroke-miterlimit:3.86369991"
       id="path2419" />
    <path
       d="M 30.48551,42.98 L 12.04551,42.98 L 12.04551,9 L 38.02551,9 L 38.00551,35.44 C 38.01551,39.03 33.98551,42.98 30.48551,42.98 z "
       style="fill:white;fill-rule:evenodd;stroke:none;stroke-width:2;stroke-linecap:round;stroke-linejoin:round;stroke-miterlimit:3.86369991"
       id="path2421" />
    <path
       d="M 30.504408,42.999191 C 30.504408,42.999191 33.250616,42.207097 33.250616,38.006231 C 37.152676,38.006231 38.018499,35.358611 38.018499,35.358611 C 38.018499,38.915187 34.436592,42.999191 30.504408,42.999191 z "
       style="fill:url(#linearGradient3348);fill-opacity:1;fill-rule:evenodd"
       id="path2423" />
    <path
       d="M 30.48551,42.98 L 13.04551,42.98 L 13.04551,10 L 37.02551,10 L 37.00551,35.44 C 37.01551,39.03 33.98551,42.98 30.48551,42.98 z "
       style="fill:url(#linearGradient3350);fill-opacity:1;fill-rule:evenodd;stroke:none;stroke-width:2;stroke-linecap:round;stroke-linejoin:round;stroke-miterlimit:3.86369991"
       id="path2425" />
  </g>
  <g
     transform="translate(-26.43307,-514.4178)"
     id="g3376">
    <g
       id="g3356">
      <use
         transform="translate(80.67464,0)"
         id="use3352"
         x="0"
         y="0"
         width="744.09448"
         height="600"
         xlink:href="#g5739" />
      <use
         transform="translate(40.33732,12)"
         id="use3316"
         x="0"
         y="0"
         width="744.09448"
         height="600"
         xlink:href="#g5739" />
      <g
         transform="translate(171.1407,564.2573)"
         id="g5739">
        <path
           d="M 10.98,7.35 L 10.98,31.17 L 24.76,45.05 C 24.76,45.05 28.25,45.27 31.9,44.16 C 35.55,43.05 36.95,41.49 36.95,41.49 L 36.95,17.46 L 23.59,4.07 L 10.98,7.35 z "
           style="fill:url(#lg5735)"
           id="path4374" />
        <path
           d="M 36.18,16.79 L 23.61,3.9 L 10.61,7.23 L 24.81,21.11 C 24.81,21.11 28.44,21 31.76,20.11 C 35.07,19.22 37.03,17.66 37.03,17.66 L 36.18,16.79 z "
           style="fill:url(#lg5732)"
           id="path4376" />
        <path
           d="M 10.98,7.35 L 10.98,31.17 L 24.76,45.05 C 24.76,45.05 28.25,45.27 31.9,44.16 C 35.55,43.05 36.95,41.49 36.95,41.49 L 36.95,17.46 L 23.59,4.07 L 10.98,7.35 z "
           style="fill:none;stroke:black;stroke-width:1.92999995;stroke-linecap:round;stroke-linejoin:round"
           id="path4378" />
        <path
           d="M 10.98,7.35 L 10.98,31.17 L 24.76,45.05 C 24.76,45.05 28.25,45.27 31.9,44.16 C 35.55,43.05 36.95,41.49 36.95,41.49 L 36.95,17.46 L 23.59,4.07 L 10.98,7.35 z "
           style="fill:url(#lg5728)"
           id="path4380" />
        <path
           d="M 24.52,14.7 L 37,17.81 L 37,41.59 C 33.22,44.88 29.67,44.95 24.7,45 L 24.52,14.7 z "
           style="fill:url(#lg5725)"
           id="path4382" />
        <path
           d="M 23.58,4.02 L 11.03,7.42 L 24.81,21.11 C 24.81,21.11 28.44,21 31.76,20.11 C 35.07,19.22 37.03,17.66 37.03,17.66 L 23.58,4.02 z "
           style="fill:url(#lg5722)"
           id="path4384" />
        <path
           d="M 11.27,7.58 L 24.82,21.12 C 24.82,21.12 28.03,21.33 31.68,20.35 C 35.18,19.41 36.83,17.71 36.83,17.71"
           style="fill:none;stroke:white;stroke-width:0.47999999;stroke-linecap:round"
           id="path4386" />
        <path
           d="M 24.74,21.3 L 24.74,44.76"
           style="fill:none;stroke:white;stroke-width:0.47999999;stroke-linecap:round"
           id="path4388" />
        <path
           d="M 27.44,23.79 C 30.4,23.66 33.22,22.96 35.54,21.38 C 35.75,21.91 35.7,23.06 35.54,23.36 C 35.45,23.45 34.62,23.99 33.18,24.54 C 31.77,25.07 29.77,25.62 27.47,25.68 C 27.19,25.22 27.27,24.04 27.44,23.79 z "
           style="fill:gray"
           id="path4390" />
        <path
           d="M 35.53,23.38 L 27.44,25.56 C 27.45,25.6 27.45,25.66 27.47,25.69 C 29.78,25.63 31.78,25.07 33.19,24.53 C 34.63,23.98 35.44,23.46 35.53,23.38 z "
           style="fill:#b2b2b2"
           id="path4392" />
        <path
           d="M 27.44,27.28 C 30.4,27.16 33.22,26.46 35.54,24.88 C 35.75,25.4 35.7,26.56 35.54,26.86 C 35.45,26.95 34.62,27.49 33.18,28.03 C 31.77,28.57 29.77,29.12 27.47,29.18 C 27.19,28.72 27.27,27.54 27.44,27.28 z "
           style="fill:gray"
           id="path4394" />
        <path
           d="M 35.53,26.87 L 27.44,29.06 C 27.45,29.1 27.45,29.16 27.47,29.19 C 29.78,29.13 31.78,28.57 33.19,28.03 C 34.63,27.48 35.44,26.96 35.53,26.87 z "
           style="fill:#b2b2b2"
           id="path4396" />
        <path
           d="M 27.21,42.71 L 27.21,31.52 C 27.21,31.52 29,31.51 31.85,30.69 C 34.68,29.87 35.58,29.02 35.58,29.02 L 35.58,40.05 C 35.58,40.05 34.21,41.19 31.54,41.98 C 28.88,42.76 27.21,42.71 27.21,42.71 z "
           style="fill:none;stroke:#b2b2b2;stroke-width:0.47999999;stroke-linecap:round;stroke-linejoin:round"
           id="path4398" />
        <path
           d="M 31.68,37.72 C 32.29,37.54 32.79,37.95 32.79,38.62 C 32.79,39.29 32.29,39.97 31.68,40.15 C 31.07,40.33 30.58,39.93 30.58,39.27 C 30.58,38.58 31.07,37.9 31.68,37.72 z "
           style="fill:url(#radialGradient5711);stroke:#328e36;stroke-width:0.44"
           id="path4400" />
      </g>
      <use
         transform="translate(161.3493,0)"
         style="opacity:1"
         id="use3332"
         x="0"
         y="0"
         width="744.09448"
         height="600"
         xlink:href="#g5739" />
      <use
         transform="translate(121.012,12)"
         id="use3318"
         x="0"
         y="0"
         width="744.09448"
         height="600"
         xlink:href="#g5739" />
    </g>
  </g>
  <use
     transform="matrix(3.213022,0,0,3.213022,-522.3398,-1775.607)"
     id="use3354"
     x="0"
     y="0"
     width="744.09448"
     height="600"
     xlink:href="#g5739" />
  <flowRoot
     transform="translate(-161.0752,-600.6881)"
     style="font-size:10.52000046px;font-style:normal;font-variant:normal;font-weight:normal;font-stretch:normal;text-align:center;line-height:100%;writing-mode:lr-tb;text-anchor:middle;fill:black;font-family:Interstate-Regular"
     id="flowRoot3427"
     xml:space="preserve"><flowRegion
       id="flowRegion3429"><rect
         width="99.443649"
         height="29.008621"
         x="321"
         y="755"
         style="font-size:10.52000046px;font-style:normal;font-variant:normal;font-weight:normal;font-stretch:normal;text-align:center;line-height:100%;writing-mode:lr-tb;text-anchor:middle;fill:black;font-family:Interstate-Regular"
         id="rect3431" /></flowRegion><flowPara
       style="font-size:10.52000046px;fill:black"
       id="flowPara3433">Check for valid member</flowPara></flowRoot>  <flowRoot
     transform="translate(-92.66857,-523.0391)"
     style="font-size:12px;font-style:normal;font-variant:normal;font-weight:normal;font-stretch:normal;text-align:center;line-height:100%;writing-mode:lr-tb;text-anchor:middle;fill:white;font-family:Interstate-Bold"
     id="flowRoot3439"
     xml:space="preserve"><flowRegion
       id="flowRegion3441"><rect
         width="85"
         height="61.5"
         x="321"
         y="755"
         style="font-size:12px;font-style:normal;font-variant:normal;font-weight:normal;font-stretch:normal;text-align:center;line-height:100%;writing-mode:lr-tb;text-anchor:middle;fill:white;font-family:Interstate-Bold"
         id="rect3443" /></flowRegion><flowPara
       id="flowPara3445">Cluster  configuration file</flowPara></flowRoot>  <path
     d="M 202.30867,181.54051 L 202.30867,203.96272"
     style="fill:none;fill-opacity:0.75;fill-rule:evenodd;stroke:#5c5c4f;stroke-width:1.99999976;stroke-linecap:butt;stroke-linejoin:miter;marker-mid:none;marker-end:url(#TriangleOutM);stroke-miterlimit:4;stroke-dasharray:none;stroke-opacity:1"
     id="path3447" />
  <path
     d="M 248.06693,214.46094 L 131.06693,214.46094"
     style="fill:none;stroke:#5c5c4f;stroke-width:2"
     id="path3449" />
  <rect
     width="96.33239"
     height="51.815254"
     rx="5"
     ry="5"
     x="222.66534"
     y="281.43304"
     style="fill:#5c5c4f"
     id="rect3473" />
  <path
     d="M 131.06693,232.37515 L 201.56693,232.37515 L 201.56693,308.46094 L 245.06693,308.46094"
     style="fill:none;stroke:#5c5c4f;stroke-width:2"
     id="path3451" />
  <text
     x="29.868439"
     y="34.460934"
     style="font-size:14px;font-style:normal;font-variant:normal;font-weight:normal;font-stretch:normal;text-align:start;line-height:125%;writing-mode:lr-tb;text-anchor:start;fill:#a70000;font-family:Interstate-Bold"
     id="text3453"
     xml:space="preserve"
     sodipodi:linespacing="125%"><tspan
       x="29.868439"
       y="34.460934"
       id="tspan3455">Cluster Computer</tspan></text>
  <flowRoot
     transform="translate(-89.94727,-457.3053)"
     style="font-size:12px;font-style:normal;font-variant:normal;font-weight:normal;font-stretch:normal;text-align:center;line-height:100%;writing-mode:lr-tb;text-anchor:middle;fill:white;font-family:Interstate-Bold"
     id="flowRoot3461"
     xml:space="preserve"><flowRegion
       id="flowRegion3463"><rect
         width="80"
         height="39"
         x="321"
         y="755"
         style="font-size:12px;font-style:normal;font-variant:normal;font-weight:normal;font-stretch:normal;text-align:center;line-height:100%;writing-mode:lr-tb;text-anchor:middle;fill:white;font-family:Interstate-Bold"
         id="rect3465" /></flowRegion><flowPara
       id="flowPara3467">Quorum count</flowPara></flowRoot>  <rect
     width="96.33239"
     height="53.815254"
     rx="5"
     ry="5"
     x="55.788147"
     y="195.43304"
     style="fill:#5c5c4f"
     id="rect3330" />
  <flowRoot
     transform="translate(-259.6686,-545.0391)"
     style="font-size:12px;font-style:normal;font-variant:normal;font-weight:normal;font-stretch:normal;text-align:center;line-height:100%;writing-mode:lr-tb;text-anchor:middle;fill:white;font-family:Interstate-Bold"
     id="flowRoot3338"
     xml:space="preserve"><flowRegion
       id="flowRegion3340"><rect
         width="85"
         height="35.5"
         x="321"
         y="755"
         style="font-size:12px;font-style:normal;font-variant:normal;font-weight:normal;font-stretch:normal;text-align:center;line-height:100%;writing-mode:lr-tb;text-anchor:middle;fill:white;font-family:Interstate-Bold"
         id="rect3342" /></flowRegion><flowPara
       id="flowPara3344">Cluster Manager</flowPara></flowRoot>  <flowRoot
     transform="translate(-190.2946,-438.5469)"
     style="font-size:10.52000046px;font-style:normal;font-variant:normal;font-weight:normal;font-stretch:normal;text-align:center;line-height:100%;writing-mode:lr-tb;text-anchor:middle;fill:black;font-family:Interstate-Regular"
     id="flowRoot3369"
     xml:space="preserve"><flowRegion
       id="flowRegion3371"><rect
         width="83.109123"
         height="24.508621"
         x="321"
         y="755"
         style="font-size:10.52000046px;font-style:normal;font-variant:normal;font-weight:normal;font-stretch:normal;text-align:center;line-height:100%;writing-mode:lr-tb;text-anchor:middle;fill:black;font-family:Interstate-Regular"
         id="rect3373" /></flowRegion><flowPara
       style="font-size:10.52000046px;fill:black"
       id="flowPara3375">Update quorum</flowPara></flowRoot>  <path
     d="M 166.56693,311.92369 C 166.56693,299.80027 172.79314,286.50148 190.06693,286.50148"
     style="fill:none;fill-opacity:0.75;fill-rule:evenodd;stroke:#5c5c4f;stroke-width:1.99999976;stroke-linecap:butt;stroke-linejoin:miter;marker-mid:none;marker-end:url(#TriangleOutM);stroke-miterlimit:4;stroke-dasharray:none;stroke-opacity:1"
     id="path3377" />
  <g
     transform="translate(-199.4331,-76.53906)"
     style="opacity:1"
     id="layer1" />
  <path
     d="M 71.000025,400.14151 L 71.000025,259.45941"
     style="fill:none;fill-opacity:0.75;fill-rule:evenodd;stroke:#5c5c4f;stroke-width:1.99999976;stroke-linecap:butt;stroke-linejoin:miter;marker-mid:none;marker-end:url(#TriangleOutM);stroke-miterlimit:4;stroke-dasharray:none;stroke-opacity:1"
     id="path1981"
     sodipodi:nodetypes="cc" />
  <use
     transform="matrix(1,0,0,-1,36,638.4996)"
     id="use1983"
     x="0"
     y="0"
     width="392.16534"
     height="362.86252"
     xlink:href="#path1981" />
  <text
     x="-340.32907"
     y="62.690838"
     transform="matrix(0,-1,1,0,0,0)"
     style="font-size:12px;fill:black;font-family:Interstate-Bold"
     id="text1989"
     xml:space="preserve"><tspan
       x="-340.32907"
       y="62.690838"
       id="tspan1991"
       style="fill:black">Request</tspan></text>
  <text
     x="-345.23572"
     y="98.690834"
     transform="matrix(0,-1,1,0,0,0)"
     style="font-size:12px;fill:black;font-family:Interstate-Bold"
     id="text1985"
     xml:space="preserve"><tspan
       x="-345.23572"
       y="98.690834"
       id="tspan1987"
       style="fill:black">Response</tspan></text>
  <g
     id="g1987"
     transform="translate(-21.92031,-57.27565)">
    <rect
       id="rect2056"
       style="fill:#5c5c4f"
       y="453.01526"
       x="55.788147"
       ry="5"
       rx="5"
       height="53.815254"
       width="158.3324" />
    <use
       xlink:href="#g5739"
       height="600"
       width="744.09448"
       y="0"
       x="0"
       id="use2058"
       transform="translate(-106.1057,-109.3814)" />
    <flowRoot
       xml:space="preserve"
       id="flowRoot2060"
       style="font-size:12px;font-style:normal;font-variant:normal;font-weight:normal;font-stretch:normal;text-align:center;line-height:100%;writing-mode:lr-tb;text-anchor:middle;fill:white;font-family:Interstate-Bold"
       transform="translate(-210.6228,-291.2012)"><flowRegion
         id="flowRegion2062"><rect
           id="rect2064"
           style="font-size:12px;font-style:normal;font-variant:normal;font-weight:normal;font-stretch:normal;text-align:center;line-height:100%;writing-mode:lr-tb;text-anchor:middle;fill:white;font-family:Interstate-Bold"
           y="755"
           x="321"
           height="39"
           width="89" /></flowRegion><flowPara
         id="flowPara2066">Computer Requesting membership</flowPara></flowRoot>  </g>
</svg>
