<?xml version="1.0" encoding="UTF-8" standalone="no"?>
<!-- Created with Inkscape (http://www.inkscape.org/) -->
<svg
   xmlns:dc="http://purl.org/dc/elements/1.1/"
   xmlns:cc="http://web.resource.org/cc/"
   xmlns:rdf="http://www.w3.org/1999/02/22-rdf-syntax-ns#"
   xmlns:svg="http://www.w3.org/2000/svg"
   xmlns="http://www.w3.org/2000/svg"
   xmlns:sodipodi="http://sodipodi.sourceforge.net/DTD/sodipodi-0.dtd"
   xmlns:inkscape="http://www.inkscape.org/namespaces/inkscape"
   version="1.0"
   width="48"
   height="48"
   id="svg2"
   sodipodi:version="0.32"
   inkscape:version="0.44+devel"
   sodipodi:docname="important.svg"
   sodipodi:docbase="/home/andy/Desktop/images"
   inkscape:output_extension="org.inkscape.output.svg.inkscape"
   sodipodi:modified="true">
  <metadata
     id="metadata15">
    <rdf:RDF>
      <cc:Work
         rdf:about="">
        <dc:format>image/svg+xml</dc:format>
        <dc:type
           rdf:resource="http://purl.org/dc/dcmitype/StillImage" />
      </cc:Work>
    </rdf:RDF>
  </metadata>
  <sodipodi:namedview
     inkscape:window-height="772"
     inkscape:window-width="853"
     inkscape:pageshadow="0"
     inkscape:pageopacity="0.0"
     guidetolerance="10.0"
     gridtolerance="10.0"
     objecttolerance="10.0"
     borderopacity="1.0"
     bordercolor="#666666"
     pagecolor="#ffffff"
     id="base"
     inkscape:zoom="8.6764706"
     inkscape:cx="17"
     inkscape:cy="16.884746"
     inkscape:window-x="505"
     inkscape:window-y="301"
     inkscape:current-layer="svg2"
     width="48px"
     height="48px" />
  <defs
     id="defs5" />
  <rect
     width="24.497581"
     height="30.023352"
     rx="4.0522318"
     ry="4.0522318"
     x="18.458532"
     y="13.837819"
     style="fill:#ffffff;fill-opacity:1"
     id="rect3163" />
  <g
     id="g3150"
     transform="matrix(1.4735388,0,0,1.4735388,-0.8816648,-0.713376)">
    <path
       d="M 4.2,29.8 C 3.4045977,29.004598 3,24.688889 3,17 C 3,9.3111111 3.4045977,4.9954023 4.2,4.2 C 5.8548733,2.5451267 28.145127,2.5451267 29.8,4.2 C 31.454873,5.8548733 31.454873,28.145127 29.8,29.8 C 28.145127,31.454873 5.8548733,31.454873 4.2,29.8 z M 28.960131,28.548039 C 29.622892,27.749461 30.015492,26.36637 29.832576,25.474504 C 29.570107,24.194758 28.880862,24.50083 26.562909,26.926465 C 23.864366,29.75037 23.793507,30 25.690464,30 C 26.82602,30 28.29737,29.346618 28.960131,28.548039 z M 16.381557,13.448062 C 16.723053,12.558137 16.555406,12.15674 15.988546,12.507079 C 15.444846,12.843104 15,13.541476 15,14.059017 C 15,15.497449 15.716766,15.180479 16.381557,13.448062 z "
       style="fill:#eea54d"
       id="path3156" />
    <path
       d="M 4.5714286,29.428571 C 2.2900164,27.147159 2.2900164,6.8528407 4.5714286,4.5714286 C 6.5675125,2.5753447 27.861838,2.2618382 29.8,4.2 C 31.454873,5.8548733 31.454873,28.145127 29.8,29.8 C 27.861838,31.738162 6.5675125,31.424655 4.5714286,29.428571 z M 28.8,28.8 C 29.584701,28.015299 30,23.874485 30,16.835184 C 30,7.2157813 29.794188,5.9602204 28.065741,5.0351838 C 25.31076,3.5607622 6.7051284,3.6948716 5.2,5.2 C 4.4271278,5.9728722 4,9.9491687 4,16.371259 C 4,29.821354 4.1763685,30 17.454988,30 C 24.012219,30 28.02438,29.57562 28.8,28.8 z M 11.370275,22.839802 C 12.217399,18.324242 11.217921,17.446646 8.324187,20.165168 L 6,22.348628 L 6,14.874314 C 6,10.394292 6.4807331,6.9192669 7.2,6.2 C 8.5065381,4.8934619 13.907647,4.6315294 18.910448,5.6320896 C 21.828433,6.2156866 21.95125,6.3963868 20.511338,7.9874718 C 18.406564,10.313221 19.534647,12.738881 23.08354,13.518348 C 26.500512,14.268841 26.700397,15.056175 24.07675,17.430542 C 22.593932,18.772474 22.286619,19.991377 22.734796,22.753166 C 23.26164,25.999725 23.137359,26.256015 21.408046,25.489162 C 18.97163,24.408748 15.03413,24.405916 12.608448,25.482833 C 10.896802,26.242743 10.779038,25.991363 11.370275,22.839802 z M 18.165724,22.17704 C 19.803351,22.408503 20.557757,21.933387 20.828587,20.5 C 21.036426,19.4 21.872047,17.74865 22.685524,16.830334 C 24.015167,15.329328 23.931507,15.1273 21.857318,14.830334 C 20.588328,14.64865 19.038985,13.470816 18.414334,12.212925 L 17.278605,9.92585 L 15.616249,12.462925 C 14.701954,13.858316 13.032125,15 11.905518,15 C 10.043359,15 10,15.142857 11.428571,16.571429 C 12.292857,17.435714 13,19.515814 13,21.193873 C 13,23.736372 13.240069,24.045649 14.440374,23.049485 C 15.23258,22.392013 16.908987,21.999413 18.165724,22.17704 z "
       style="fill:#d97327"
       id="path3154" />
    <path
       d="M 4.5714286,29.428571 C 3.3358396,28.192982 3,25.536797 3,17 C 3,2.8242377 2.8242377,3 17,3 C 31.281501,3 31.064003,2.7740812 30.787618,17.321429 L 30.575237,28.5 L 30.251853,17.559368 C 30.073992,11.542021 29.439463,6.029521 28.84179,5.3093684 C 27.387027,3.5564865 6.9381114,3.4618886 5.2,5.2 C 3.4618886,6.9381114 3.5564865,27.387027 5.3093684,28.84179 C 6.029521,29.439463 11.542021,30.073992 17.559368,30.251853 L 28.5,30.575237 L 17.321429,30.787618 C 8.2907219,30.959193 5.8409209,30.698064 4.5714286,29.428571 z M 11.700116,22.460542 C 12.157172,19.644035 11.802345,18.418508 9.9629314,16.460542 L 7.6513719,14 L 10.075686,13.984687 C 13.216402,13.964849 14.567183,13.023125 15.432606,10.25 C 16.365681,7.2600943 17.162745,7.4199607 19.20349,11.006323 C 20.395721,13.101525 21.671248,14 23.45349,14 C 26.522808,14 26.685066,15.070049 23.986119,17.512562 C 22.402377,18.945829 22.10946,20.066553 22.614702,22.759722 L 23.257165,26.184346 L 20.103102,24.553316 C 17.254269,23.080127 16.736424,23.071208 14.752013,24.461143 C 11.540346,26.710683 11.061366,26.396698 11.700116,22.460542 z M 18.934259,22.964816 C 21.596671,24.389696 21.887157,24.284493 21.316443,22.102078 C 21.043468,21.058221 21.552593,19.086271 22.44783,17.719965 C 24.018807,15.322352 23.989413,15.214159 21.604417,14.615563 C 20.245303,14.274447 18.847983,13.096398 18.499262,11.997676 C 17.750591,9.6388198 16,9.3240393 16,11.548274 C 16,12.399825 14.625572,13.674451 12.945716,14.380778 C 10.270898,15.505454 10.084538,15.825271 11.445716,16.954949 C 12.300572,17.664416 13,19.555622 13,21.157628 C 13,23.76049 13.212774,23.956494 15,23 C 16.38849,22.256903 17.591409,22.246145 18.934259,22.964816 z "
       style="fill:#322819"
       id="path3152" />
  </g>
  <rect
     width="41.099236"
     height="40.787945"
     rx="3.6591041"
     ry="3.6586928"
     x="3.7037876"
     y="3.348402"
     style="fill:#6a6a50;stroke:#000000;stroke-width:3.68384695;stroke-miterlimit:4;stroke-dasharray:none"
     id="rect3134" />
  <rect
     width="41.099236"
     height="40.787945"
     rx="3.6591041"
     ry="3.6586928"
     x="3.7037876"
     y="3.348402"
     style="fill:#ff8d00;stroke:none;stroke-width:2.5;stroke-miterlimit:4;stroke-dasharray:none"
     id="rect3136" />
  <path
     d="M 33.026047,35.491116 L 24.448262,32.410113 L 15.967973,35.750121 L 16.247499,26.64008 L 10.450409,19.606965 L 19.200951,17.057654 L 24.098442,9.3709412 L 29.227048,16.905421 L 38.050953,19.187885 L 32.470064,26.393762 L 33.026047,35.491116 z "
     style="fill:#ffffff"
     id="path3138" />
  <path
     d="M 7.1767503,5.9175484 C -0.89767387,10.579319 8.4777578,31.303852 8.4777578,16.608903 C 8.4777578,10.349416 9.31824,8.924807 12.143026,8.924807 C 30.208845,8.924807 14.530979,1.6715823 7.1767503,5.9175484 z "
     style="fill:#ffad47;fill-opacity:1;stroke:none;stroke-width:2.5;stroke-miterlimit:4;stroke-dasharray:none"
     id="rect3140" />
</svg>
