<?xml version="1.0" encoding="UTF-8" standalone="no"?>
<!-- Created with Inkscape (http://www.inkscape.org/) -->
<svg
   xmlns:dc="http://purl.org/dc/elements/1.1/"
   xmlns:cc="http://web.resource.org/cc/"
   xmlns:rdf="http://www.w3.org/1999/02/22-rdf-syntax-ns#"
   xmlns:svg="http://www.w3.org/2000/svg"
   xmlns="http://www.w3.org/2000/svg"
   xmlns:sodipodi="http://sodipodi.sourceforge.net/DTD/sodipodi-0.dtd"
   xmlns:inkscape="http://www.inkscape.org/namespaces/inkscape"
   version="1.0"
   width="48"
   height="48"
   id="svg2"
   sodipodi:version="0.32"
   inkscape:version="0.44+devel"
   sodipodi:docname="tip.svg"
   sodipodi:docbase="/home/andy/Desktop/images"
   inkscape:output_extension="org.inkscape.output.svg.inkscape"
   sodipodi:modified="true">
  <metadata
     id="metadata10">
    <rdf:RDF>
      <cc:Work
         rdf:about="">
        <dc:format>image/svg+xml</dc:format>
        <dc:type
           rdf:resource="http://purl.org/dc/dcmitype/StillImage" />
      </cc:Work>
    </rdf:RDF>
  </metadata>
  <sodipodi:namedview
     inkscape:window-height="500"
     inkscape:window-width="749"
     inkscape:pageshadow="0"
     inkscape:pageopacity="0.0"
     guidetolerance="10.0"
     gridtolerance="10.0"
     objecttolerance="10.0"
     borderopacity="1.0"
     bordercolor="#666666"
     pagecolor="#ffffff"
     id="base"
     inkscape:zoom="1"
     inkscape:cx="13.160656"
     inkscape:cy="18.480218"
     inkscape:window-x="759"
     inkscape:window-y="662"
     inkscape:current-layer="svg2" />
  <defs
     id="defs5" />
  <path
     d="M 32.797273,4.5221696 C 30.341727,3.0421292 27.507138,2.2527743 24.63959,2.3021091 C 21.772042,2.2527743 18.937453,3.0585742 16.481909,4.5221696 C 5.1600362,11.346801 7.335418,26.887226 17.717921,33.350069 C 17.948643,33.728301 18.162886,34.106534 18.377129,34.517656 C 18.888013,36.803497 19.019854,43.699182 22.134604,43.863632 C 22.826772,44.373423 23.61782,44.652986 24.623111,44.537872 C 25.6284,44.652986 26.435927,44.373423 27.111615,43.863632 C 30.242846,43.699182 30.374688,36.803497 30.885572,34.517656 C 31.099815,34.106534 31.314057,33.728301 31.561259,33.350069 C 41.943761,26.887226 44.119144,11.346801 32.797273,4.5221696 z "
     style="fill:#5c5c4f;fill-opacity:1;stroke:#000000;stroke-width:2.87090564"
     id="path73" />
  <path
     d="M 32.797273,4.5221696 C 30.341727,3.0421292 27.507138,2.2527743 24.63959,2.3021091 C 21.772042,2.2527743 18.937453,3.0585742 16.481909,4.5221696 C 5.1600362,11.346801 7.335418,26.887226 17.717921,33.350069 C 17.948643,33.728301 18.162886,34.106534 18.377129,34.517656 C 18.888013,36.803497 19.019854,43.699182 22.134604,43.863632 C 22.826772,44.373423 23.61782,44.652986 24.623111,44.537872 C 25.6284,44.652986 26.435927,44.373423 27.111615,43.863632 C 30.242846,43.699182 30.374688,36.803497 30.885572,34.517656 C 31.099815,34.106534 31.314057,33.728301 31.561259,33.350069 C 41.943761,26.887226 44.119144,11.346801 32.797273,4.5221696 z "
     style="fill:#5c5c4f;fill-opacity:1;stroke:none;stroke-width:2.87090564"
     id="path2171" />
  <path
     d="M 32.797271,4.5221699 C 30.341727,3.0421292 27.507138,2.2527743 24.63959,2.3021091 C 21.772042,2.2527743 18.937453,3.0585742 16.481909,4.5221699 C 5.1600364,11.346801 7.3354179,26.887226 17.717921,33.350069 C 22.104311,35.204563 27.603923,35.09772 31.561259,33.350069 C 41.943761,26.887226 44.119142,11.346801 32.797271,4.5221699 z "
     style="fill:#fac521;fill-opacity:1"
     id="path75" />
  <path
     d="M 19.190854,17.697732 C 16.649745,18.173112 17.091752,22.583116 18.379669,24.403519 C 19.486117,25.967431 19.922225,26.535225 20.383824,28.810832 C 21.277659,33.217286 21.958253,33.80218 22.538282,35.049294 C 22.84497,35.708702 25.649996,35.367285 26.275924,34.960906 C 29.137999,33.102727 28.747331,25.627955 30.104346,25.254456 C 32.081761,24.710202 32.784356,22.344143 32.403697,20.69648 C 31.509627,16.79902 28.697592,20.331091 28.959775,22.769586 C 29.161463,24.645441 27.94496,19.999106 27.826006,21.263636 C 27.70086,22.593993 27.877002,23.126228 26.437429,22.024046 C 25.117545,21.013501 25.418179,26.276529 24.919745,25.611688 C 23.854514,24.190821 23.892709,20.38987 23.030456,19.860888 C 22.505738,19.538979 21.340132,23.766324 21.229854,23.374755 C 20.771901,21.748694 21.463516,17.272571 19.190854,17.697732 z M 20.027112,24.760277 C 18.376963,24.470333 18.463141,20.531876 19.082695,18.617073 C 19.53157,17.229762 20.759296,24.888929 20.027112,24.760277 z M 30.817824,19.644574 C 32.425379,19.533584 30.837444,26.144562 29.797927,23.793937 C 29.266388,22.591983 29.649045,19.725269 30.817824,19.644574 z M 22.86822,22.294441 C 23.559643,22.909833 24.311434,28.737578 25.464008,28.83799 C 26.31305,28.91196 25.75783,23.742227 26.437429,23.484176 C 27.038029,23.256123 27.577186,26.444858 27.971075,24.431818 C 28.377865,22.352854 28.387823,26.478539 28.366408,27.435883 C 28.2494,32.66651 25.989975,34.739477 25.404618,34.675679 C 24.793318,34.609054 23.666639,35.152603 23.548442,34.675679 C 23.148872,33.063429 20.990965,32.617454 21.245851,26.296281 C 21.298529,24.989849 22.457425,21.928818 22.86822,22.294441 z "
     style="fill:#000000;fill-opacity:1;stroke:none;stroke-width:0.5;stroke-opacity:1"
     id="path79"
     sodipodi:nodetypes="cssssscssssssccsccsccsssssssc" />
  <path
     style="fill:#ffffff;fill-opacity:1"
     d="M 25.246383,4.1198832 C 21.848784,2.1582782 13.269515,6.4933913 13.269515,10.70705 C 13.269515,12.280129 26.737669,4.9808776 25.246383,4.1198832 z "
     id="path2164"
     sodipodi:nodetypes="css" />
</svg>
