<?xml version="1.0" encoding="UTF-8" standalone="no"?>
<!-- Created with Inkscape (http://www.inkscape.org/) -->
<svg
   xmlns:svg="http://www.w3.org/2000/svg"
   xmlns="http://www.w3.org/2000/svg"
   version="1.0"
   width="48"
   height="48"
   id="svg2">
  <defs
     id="defs5" />
  <path
     d="M 30.204338,2.629902 L 18.000736,2.629902 C 10.271232,2.629902 3.9941397,9.4412146 3.9941397,19.424462 C 3.9941397,24.499558 5.613496,29.090515 8.2178214,32.379312 C 8.1343494,32.913532 8.0842662,33.464447 8.0842662,34.015361 C 8.0842662,39.941872 12.474892,44.482746 18.134292,45.200606 C 16.665185,43.531166 15.763687,41.644701 15.763687,39.207318 C 15.763687,38.572931 15.830465,37.938544 15.947326,37.320853 C 16.615102,37.454407 17.299572,37.521184 17.984043,37.521184 L 30.187644,37.521184 C 37.917148,37.521184 44.19424,29.424404 44.19424,19.424462 C 44.19424,9.4245202 37.950537,2.629902 30.204338,2.629902 z "
     style="opacity:1;fill:#cccccc;stroke:#000000;stroke-width:2.99160314"
     id="path117" />
  <path
     d="M 30.204338,2.629902 L 18.000736,2.629902 C 10.271232,2.629902 3.9941397,9.4412146 3.9941397,19.424462 C 3.9941397,24.499558 5.613496,29.090515 8.2178214,32.379312 C 8.1343494,32.913532 8.0842662,33.464447 8.0842662,34.015361 C 8.0842662,39.941872 12.474892,44.482746 18.134292,45.200606 C 16.665185,43.531166 15.763687,41.644701 15.763687,39.207318 C 15.763687,38.572931 15.830465,37.938544 15.947326,37.320853 C 16.615102,37.454407 17.299572,37.521184 17.984043,37.521184 L 30.187644,37.521184 C 37.917148,37.521184 44.19424,29.424404 44.19424,19.424462 C 44.19424,9.4245202 37.950537,2.629902 30.204338,2.629902 z "
     style="opacity:1;fill:#bfdce8"
     id="path142" />
  <path
     d="M 18.462104,4.1586535 C 11.345932,4.1586518 5.5899739,10.235869 5.5899739,19.137707 C 5.5899739,22.53172 6.4165763,25.701279 7.8473992,28.301912 C 7.2326109,26.464828 6.8867945,24.416 6.8867928,22.300987 C 6.8867928,13.771333 12.411938,7.9731913 19.23059,7.9731945 L 29.989385,7.9731945 C 36.822759,7.9731945 42.333176,13.757067 42.333178,22.300987 C 42.495506,21.278604 42.621361,20.219965 42.621361,19.137707 C 42.621358,10.220986 36.832744,4.1586535 29.701202,4.1586535 L 18.462104,4.1586535 z "
     style="opacity:1;fill:#ffffff"
     id="path2358" />
  <path
     d="M 20.838784,12.679927 C 21.857142,12.028846 23.092527,11.711652 24.578327,11.711652 C 26.514877,11.711652 28.134233,12.179095 29.419702,13.097287 C 30.705171,14.015478 31.339557,15.384418 31.339557,17.204107 C 31.339557,18.322632 31.055751,19.257519 30.504837,20.008766 C 30.170949,20.476208 29.553257,21.060513 28.618371,21.778371 L 27.700179,22.496231 C 27.199348,22.880202 26.882154,23.330949 26.71521,23.848476 C 26.615043,24.182365 26.548266,24.683196 26.548266,25.367666 L 23.059138,25.367666 C 23.10922,23.915254 23.242776,22.913591 23.476498,22.362675 C 23.693525,21.81176 24.261134,21.177373 25.19602,20.44282 L 26.130906,19.708266 C 26.431405,19.474546 26.681821,19.22413 26.882154,18.940325 C 27.216041,18.472881 27.399679,17.955356 27.399679,17.387745 C 27.399679,16.736665 27.199348,16.135667 26.83207,15.601447 C 26.448099,15.067225 25.76363,14.800115 24.745271,14.800115 C 23.760302,14.800115 23.042443,15.134002 22.641778,15.785085 C 22.224418,16.436165 22.024084,17.120636 22.024084,17.838494 L 18.301236,17.838494 C 18.368012,15.434502 19.219427,13.698285 20.838784,12.679927 z M 22.641778,29.140599 C 22.641778,30.342596 23.643442,31.327565 24.895521,31.327565 C 26.130906,31.327565 27.149264,30.342596 27.149264,29.140599 C 27.149264,27.938603 26.147601,26.953634 24.895521,26.953634 C 23.643442,26.970328 22.641778,27.938603 22.641778,29.140599 z "
     style="opacity:1;fill:#000000"
     id="path147" />
</svg>
