<?xml version="1.0" encoding="UTF-8" standalone="no"?>
<!-- Created with Inkscape (http://www.inkscape.org/) -->
<svg
   xmlns:a="http://ns.adobe.com/AdobeSVGViewerExtensions/3.0/"
   xmlns:dc="http://purl.org/dc/elements/1.1/"
   xmlns:cc="http://web.resource.org/cc/"
   xmlns:rdf="http://www.w3.org/1999/02/22-rdf-syntax-ns#"
   xmlns:svg="http://www.w3.org/2000/svg"
   xmlns="http://www.w3.org/2000/svg"
   xmlns:xlink="http://www.w3.org/1999/xlink"
   xmlns:sodipodi="http://sodipodi.sourceforge.net/DTD/sodipodi-0.dtd"
   xmlns:inkscape="http://www.inkscape.org/namespaces/inkscape"
   version="1.0"
   width="620"
   height="320"
   id="svg3017"
   sodipodi:version="0.32"
   inkscape:version="0.44+devel"
   sodipodi:docname="lock-server-node.svg"
   sodipodi:docbase="/home/andy/Desktop/stuff">
  <metadata
     id="metadata141">
    <rdf:RDF>
      <cc:Work
         rdf:about="">
        <dc:format>image/svg+xml</dc:format>
        <dc:type
           rdf:resource="http://purl.org/dc/dcmitype/StillImage" />
      </cc:Work>
    </rdf:RDF>
  </metadata>
  <sodipodi:namedview
     inkscape:window-height="480"
     inkscape:window-width="856"
     inkscape:pageshadow="0"
     inkscape:pageopacity="0.0"
     guidetolerance="10.0"
     gridtolerance="10.0"
     objecttolerance="10.0"
     borderopacity="1.0"
     bordercolor="#666666"
     pagecolor="#ffffff"
     id="base"
     inkscape:zoom="0.896875"
     inkscape:cx="310"
     inkscape:cy="159.44251"
     inkscape:window-x="15"
     inkscape:window-y="60"
     inkscape:current-layer="svg3017" />
  <defs
     id="defs3019">
    <pattern
       patternTransform="matrix(0.375,0,0,0.375,14.6693,30.887)"
       id="pattern5770"
       xlink:href="#white-spots" />
    <linearGradient
       id="linearGradient5668">
      <stop
         style="stop-color:#e3dcc0;stop-opacity:1"
         offset="0"
         id="stop5670" />
      <stop
         style="stop-color:#e3dcc0;stop-opacity:0"
         offset="1"
         id="stop5672" />
    </linearGradient>
    <linearGradient
       x1="200.7363"
       y1="100.4028"
       x2="211.99519"
       y2="89.143997"
       id="XMLID_3298_"
       gradientUnits="userSpaceOnUse">
      <stop
         style="stop-color:#bfbfbf;stop-opacity:1"
         offset="0"
         id="stop20103" />
      <stop
         style="stop-color:#f2f2f2;stop-opacity:1"
         offset="1"
         id="stop20105" />
      <a:midPointStop
         offset="0"
         style="stop-color:#BFBFBF" />
      <a:midPointStop
         offset="0.5"
         style="stop-color:#BFBFBF" />
      <a:midPointStop
         offset="1"
         style="stop-color:#F2F2F2" />
    </linearGradient>
    <linearGradient
       x1="181.2925"
       y1="110.8481"
       x2="192.6369"
       y2="99.5037"
       id="XMLID_3297_"
       gradientUnits="userSpaceOnUse">
      <stop
         style="stop-color:#e5e5e5;stop-opacity:1"
         offset="0"
         id="stop20096" />
      <stop
         style="stop-color:#ccc;stop-opacity:1"
         offset="1"
         id="stop20098" />
      <a:midPointStop
         offset="0"
         style="stop-color:#E5E5E5" />
      <a:midPointStop
         offset="0.5"
         style="stop-color:#E5E5E5" />
      <a:midPointStop
         offset="1"
         style="stop-color:#CCCCCC" />
    </linearGradient>
    <linearGradient
       x1="211.77589"
       y1="105.7749"
       x2="212.6619"
       y2="108.2092"
       id="XMLID_3296_"
       gradientUnits="userSpaceOnUse">
      <stop
         style="stop-color:#0f6124;stop-opacity:1"
         offset="0"
         id="stop20087" />
      <stop
         style="stop-color:#219630;stop-opacity:1"
         offset="1"
         id="stop20089" />
      <a:midPointStop
         offset="0"
         style="stop-color:#0F6124" />
      <a:midPointStop
         offset="0.5"
         style="stop-color:#0F6124" />
      <a:midPointStop
         offset="1"
         style="stop-color:#219630" />
    </linearGradient>
    <linearGradient
       x1="208.9834"
       y1="116.8296"
       x2="200.0811"
       y2="96.834602"
       id="XMLID_3295_"
       gradientUnits="userSpaceOnUse">
      <stop
         style="stop-color:#b2b2b2;stop-opacity:1"
         offset="0"
         id="stop20076" />
      <stop
         style="stop-color:#e5e5e5;stop-opacity:1"
         offset="0.5"
         id="stop20078" />
      <stop
         style="stop-color:white;stop-opacity:1"
         offset="1"
         id="stop20080" />
      <a:midPointStop
         offset="0"
         style="stop-color:#B2B2B2" />
      <a:midPointStop
         offset="0.5"
         style="stop-color:#B2B2B2" />
      <a:midPointStop
         offset="0.5"
         style="stop-color:#E5E5E5" />
      <a:midPointStop
         offset="0.5"
         style="stop-color:#E5E5E5" />
      <a:midPointStop
         offset="1"
         style="stop-color:#FFFFFF" />
    </linearGradient>
    <linearGradient
       x1="195.5264"
       y1="97.911102"
       x2="213.5213"
       y2="115.9061"
       id="XMLID_3294_"
       gradientUnits="userSpaceOnUse">
      <stop
         style="stop-color:#ccc;stop-opacity:1"
         offset="0"
         id="stop20069" />
      <stop
         style="stop-color:white;stop-opacity:1"
         offset="1"
         id="stop20071" />
      <a:midPointStop
         offset="0"
         style="stop-color:#CCCCCC" />
      <a:midPointStop
         offset="0.5"
         style="stop-color:#CCCCCC" />
      <a:midPointStop
         offset="1"
         style="stop-color:#FFFFFF" />
    </linearGradient>
    <linearGradient
       x1="186.1938"
       y1="109.1343"
       x2="206.6881"
       y2="88.639999"
       id="XMLID_3293_"
       gradientUnits="userSpaceOnUse">
      <stop
         style="stop-color:#b2b2b2;stop-opacity:1"
         offset="0"
         id="stop20056" />
      <stop
         style="stop-color:#e5e5e5;stop-opacity:1"
         offset="0.16850001"
         id="stop20058" />
      <stop
         style="stop-color:white;stop-opacity:1"
         offset="0.23029999"
         id="stop20060" />
      <stop
         style="stop-color:#e5e5e5;stop-opacity:1"
         offset="0.2809"
         id="stop20062" />
      <stop
         style="stop-color:#c2c2c2;stop-opacity:1"
         offset="0.5"
         id="stop20064" />
      <a:midPointStop
         offset="0"
         style="stop-color:#B2B2B2" />
      <a:midPointStop
         offset="0.5"
         style="stop-color:#B2B2B2" />
      <a:midPointStop
         offset="0.1685"
         style="stop-color:#E5E5E5" />
      <a:midPointStop
         offset="0.5"
         style="stop-color:#E5E5E5" />
      <a:midPointStop
         offset="0.2303"
         style="stop-color:#FFFFFF" />
      <a:midPointStop
         offset="0.5"
         style="stop-color:#FFFFFF" />
      <a:midPointStop
         offset="0.2809"
         style="stop-color:#E5E5E5" />
      <a:midPointStop
         offset="0.5"
         style="stop-color:#E5E5E5" />
      <a:midPointStop
         offset="0.5"
         style="stop-color:#C2C2C2" />
    </linearGradient>
    <linearGradient
       x1="184.8569"
       y1="112.2676"
       x2="211.94099"
       y2="89.541397"
       id="XMLID_3292_"
       gradientUnits="userSpaceOnUse">
      <stop
         style="stop-color:#b2b2b2;stop-opacity:1"
         offset="0"
         id="stop20043" />
      <stop
         style="stop-color:#e5e5e5;stop-opacity:1"
         offset="0.16850001"
         id="stop20045" />
      <stop
         style="stop-color:white;stop-opacity:1"
         offset="0.23029999"
         id="stop20047" />
      <stop
         style="stop-color:#e5e5e5;stop-opacity:1"
         offset="0.2809"
         id="stop20049" />
      <stop
         style="stop-color:#ccc;stop-opacity:1"
         offset="1"
         id="stop20051" />
      <a:midPointStop
         offset="0"
         style="stop-color:#B2B2B2" />
      <a:midPointStop
         offset="0.5"
         style="stop-color:#B2B2B2" />
      <a:midPointStop
         offset="0.1685"
         style="stop-color:#E5E5E5" />
      <a:midPointStop
         offset="0.5"
         style="stop-color:#E5E5E5" />
      <a:midPointStop
         offset="0.2303"
         style="stop-color:#FFFFFF" />
      <a:midPointStop
         offset="0.5"
         style="stop-color:#FFFFFF" />
      <a:midPointStop
         offset="0.2809"
         style="stop-color:#E5E5E5" />
      <a:midPointStop
         offset="0.5"
         style="stop-color:#E5E5E5" />
      <a:midPointStop
         offset="1"
         style="stop-color:#CCCCCC" />
    </linearGradient>
    <radialGradient
       cx="603.19"
       cy="230.77"
       r="1.67"
       fx="603.19"
       fy="230.77"
       id="x5010_"
       gradientUnits="userSpaceOnUse"
       gradientTransform="matrix(1.1,0,0,1.1,-54.33,-75.4)">
      <stop
         style="stop-color:#c9ffc9;stop-opacity:1"
         offset="0"
         id="stop29201" />
      <stop
         style="stop-color:#23a11f;stop-opacity:1"
         offset="1"
         id="stop29203" />
      <a:midPointStop
         offset="0"
         style="stop-color:#C9FFC9" />
      <a:midPointStop
         offset="0.5"
         style="stop-color:#C9FFC9" />
      <a:midPointStop
         offset="1"
         style="stop-color:#23A11F" />
    </radialGradient>
    <linearGradient
       x1="601.48999"
       y1="170.16"
       x2="613.84003"
       y2="170.16"
       id="x5002_"
       gradientUnits="userSpaceOnUse">
      <stop
         style="stop-color:#d9d9d9;stop-opacity:1"
         offset="0"
         id="stop29134" />
      <stop
         style="stop-color:white;stop-opacity:1"
         offset="0.2"
         id="stop29136" />
      <stop
         style="stop-color:#999;stop-opacity:1"
         offset="1"
         id="stop29138" />
      <a:midPointStop
         offset="0"
         style="stop-color:#D9D9D9" />
      <a:midPointStop
         offset="0.5"
         style="stop-color:#D9D9D9" />
      <a:midPointStop
         offset="0.20"
         style="stop-color:#FFFFFF" />
      <a:midPointStop
         offset="0.5"
         style="stop-color:#FFFFFF" />
      <a:midPointStop
         offset="1"
         style="stop-color:#999999" />
    </linearGradient>
    <linearGradient
       x1="592.20001"
       y1="156.45"
       x2="609.98999"
       y2="174.23"
       id="x5004_"
       gradientUnits="userSpaceOnUse"
       gradientTransform="matrix(1.12,0,0,1.12,-649.08,-160.62)">
      <stop
         style="stop-color:#d9d9d9;stop-opacity:1"
         offset="0"
         id="stop29157" />
      <stop
         style="stop-color:white;stop-opacity:1"
         offset="1"
         id="stop29159" />
      <a:midPointStop
         offset="0"
         style="stop-color:#D9D9D9" />
      <a:midPointStop
         offset="0.5"
         style="stop-color:#D9D9D9" />
      <a:midPointStop
         offset="1"
         style="stop-color:#FFFFFF" />
    </linearGradient>
    <linearGradient
       x1="592.31"
       y1="162.60001"
       x2="609.32001"
       y2="145.59"
       id="x5003_"
       gradientUnits="userSpaceOnUse">
      <stop
         style="stop-color:#f2f2f2;stop-opacity:1"
         offset="0"
         id="stop29143" />
      <stop
         style="stop-color:#e5e5e5;stop-opacity:1"
         offset="1"
         id="stop29145" />
      <a:midPointStop
         offset="0"
         style="stop-color:#F2F2F2" />
      <a:midPointStop
         offset="0.5"
         style="stop-color:#F2F2F2" />
      <a:midPointStop
         offset="1"
         style="stop-color:#E5E5E5" />
    </linearGradient>
    <linearGradient
       x1="592.20001"
       y1="156.45"
       x2="609.98999"
       y2="174.24001"
       id="x5000_"
       gradientUnits="userSpaceOnUse"
       gradientTransform="matrix(1.12,0,0,1.12,-649.08,-160.62)">
      <stop
         style="stop-color:#d9d9d9;stop-opacity:1"
         offset="0"
         id="stop29124" />
      <stop
         style="stop-color:white;stop-opacity:1"
         offset="1"
         id="stop29126" />
      <a:midPointStop
         offset="0"
         style="stop-color:#D9D9D9" />
      <a:midPointStop
         offset="0.5"
         style="stop-color:#D9D9D9" />
      <a:midPointStop
         offset="1"
         style="stop-color:#FFFFFF" />
    </linearGradient>
    <pattern
       patternTransform="matrix(0.375,0,0,0.375,134.6693,550.887)"
       id="white-spots"
       height="32"
       width="32"
       patternUnits="userSpaceOnUse">
      <g
         transform="translate(-484.3997,-513.505)"
         id="white-spot"
         inkscape:label="#g3035">
        <path
           style="opacity:0.25;fill:white"
           id="path3033"
           d="M 509.39967,529.50504 C 509.39967,534.47304 505.36767,538.50504 500.39967,538.50504 C 495.43167,538.50504 491.39967,534.47304 491.39967,529.50504 C 491.39967,524.53704 495.43167,520.50504 500.39967,520.50504 C 505.36767,520.50504 509.39967,524.53704 509.39967,529.50504 z "
           sodipodi:nodetypes="czzzz" />
      </g>
    </pattern>
    <radialGradient
       cx="417"
       cy="674.68018"
       r="330"
       fx="417"
       fy="674.68018"
       id="radialGradient5772"
       xlink:href="#linearGradient5668"
       gradientUnits="userSpaceOnUse"
       gradientTransform="matrix(1,0,0,0.637676,-120,-254.7943)" />
    <linearGradient
       x1="592.20001"
       y1="156.45"
       x2="609.98999"
       y2="174.24001"
       id="linearGradient5774"
       xlink:href="#x5000_"
       gradientUnits="userSpaceOnUse"
       gradientTransform="matrix(1.12,0,0,1.12,-649.08,-160.62)" />
    <linearGradient
       x1="592.31"
       y1="162.60001"
       x2="609.32001"
       y2="145.59"
       id="linearGradient5776"
       xlink:href="#x5003_"
       gradientUnits="userSpaceOnUse"
       gradientTransform="matrix(1.12,0,0,1.12,-649.08,-160.62)" />
    <linearGradient
       x1="592.20001"
       y1="156.45"
       x2="609.98999"
       y2="174.23"
       id="linearGradient5778"
       xlink:href="#x5004_"
       gradientUnits="userSpaceOnUse"
       gradientTransform="matrix(1.12,0,0,1.12,-649.08,-160.62)" />
    <linearGradient
       x1="601.48999"
       y1="170.16"
       x2="613.84003"
       y2="170.16"
       id="linearGradient5780"
       xlink:href="#x5002_"
       gradientUnits="userSpaceOnUse"
       gradientTransform="matrix(1.12,0,0,1.12,-649.08,-160.62)" />
    <linearGradient
       x1="592.31"
       y1="162.60001"
       x2="609.32001"
       y2="145.59"
       id="linearGradient5782"
       xlink:href="#x5003_"
       gradientUnits="userSpaceOnUse"
       gradientTransform="matrix(1.12,0,0,1.12,-649.08,-160.62)" />
    <radialGradient
       cx="603.19"
       cy="230.77"
       r="1.67"
       fx="603.19"
       fy="230.77"
       id="radialGradient5784"
       xlink:href="#x5010_"
       gradientUnits="userSpaceOnUse"
       gradientTransform="matrix(1.23,0,0,1.23,-709.93,-245.02)" />
    <linearGradient
       x1="184.8569"
       y1="112.2676"
       x2="211.94099"
       y2="89.541397"
       id="linearGradient5786"
       xlink:href="#XMLID_3292_"
       gradientUnits="userSpaceOnUse"
       gradientTransform="matrix(1.029078,0,0,1,-183.2624,-79.44655)" />
    <linearGradient
       x1="186.1938"
       y1="109.1343"
       x2="206.6881"
       y2="88.639999"
       id="linearGradient5788"
       xlink:href="#XMLID_3293_"
       gradientUnits="userSpaceOnUse"
       gradientTransform="matrix(1.029078,0,0,1,-183.2624,-79.44655)" />
    <linearGradient
       x1="195.5264"
       y1="97.911102"
       x2="213.5213"
       y2="115.9061"
       id="linearGradient5790"
       xlink:href="#XMLID_3294_"
       gradientUnits="userSpaceOnUse"
       gradientTransform="matrix(1.029078,0,0,1,-183.2624,-79.44655)" />
    <linearGradient
       x1="208.9834"
       y1="116.8296"
       x2="200.0811"
       y2="96.834602"
       id="linearGradient5792"
       xlink:href="#XMLID_3295_"
       gradientUnits="userSpaceOnUse"
       gradientTransform="matrix(1.029078,0,0,1,-183.2624,-79.44655)" />
    <linearGradient
       x1="211.77589"
       y1="105.7749"
       x2="212.6619"
       y2="108.2092"
       id="linearGradient5794"
       xlink:href="#XMLID_3296_"
       gradientUnits="userSpaceOnUse"
       gradientTransform="matrix(1.029078,0,0,1,-183.2624,-79.44655)" />
    <linearGradient
       x1="181.2925"
       y1="110.8481"
       x2="192.6369"
       y2="99.5037"
       id="linearGradient5796"
       xlink:href="#XMLID_3297_"
       gradientUnits="userSpaceOnUse"
       gradientTransform="matrix(1.029078,0,0,1,-183.2624,-79.44655)" />
    <linearGradient
       x1="200.7363"
       y1="100.4028"
       x2="211.99519"
       y2="89.143997"
       id="linearGradient5798"
       xlink:href="#XMLID_3298_"
       gradientUnits="userSpaceOnUse"
       gradientTransform="matrix(1.029078,0,0,1,-183.2624,-79.44655)" />
    <linearGradient
       x1="592.20001"
       y1="156.45"
       x2="609.98999"
       y2="174.24001"
       id="linearGradient2063"
       xlink:href="#x5000_"
       gradientUnits="userSpaceOnUse"
       gradientTransform="matrix(1.12,0,0,1.12,-649.08,-160.62)" />
    <linearGradient
       x1="592.31"
       y1="162.60001"
       x2="609.32001"
       y2="145.59"
       id="linearGradient2065"
       xlink:href="#x5003_"
       gradientUnits="userSpaceOnUse"
       gradientTransform="matrix(1.12,0,0,1.12,-649.08,-160.62)" />
    <linearGradient
       x1="592.20001"
       y1="156.45"
       x2="609.98999"
       y2="174.23"
       id="linearGradient2067"
       xlink:href="#x5004_"
       gradientUnits="userSpaceOnUse"
       gradientTransform="matrix(1.12,0,0,1.12,-649.08,-160.62)" />
    <linearGradient
       x1="601.48999"
       y1="170.16"
       x2="613.84003"
       y2="170.16"
       id="linearGradient2069"
       xlink:href="#x5002_"
       gradientUnits="userSpaceOnUse"
       gradientTransform="matrix(1.12,0,0,1.12,-649.08,-160.62)" />
    <linearGradient
       x1="592.31"
       y1="162.60001"
       x2="609.32001"
       y2="145.59"
       id="linearGradient2071"
       xlink:href="#x5003_"
       gradientUnits="userSpaceOnUse"
       gradientTransform="matrix(1.12,0,0,1.12,-649.08,-160.62)" />
    <radialGradient
       cx="603.19"
       cy="230.77"
       r="1.67"
       fx="603.19"
       fy="230.77"
       id="radialGradient2073"
       xlink:href="#x5010_"
       gradientUnits="userSpaceOnUse"
       gradientTransform="matrix(1.23,0,0,1.23,-709.93,-245.02)" />
  </defs>
  <g
     id="layer-resources">
    <rect
       width="620"
       height="320"
       rx="20"
       ry="20"
       x="0"
       y="0"
       style="fill:#e3dcc0"
       id="rect1933" />
    <rect
       width="620"
       height="320"
       rx="20"
       ry="20"
       x="0"
       y="0"
       style="fill:url(#pattern5770);fill-opacity:1"
       id="rect7353" />
    <rect
       width="620"
       height="320"
       rx="20"
       ry="20"
       x="0"
       y="0"
       style="fill:url(#radialGradient5772);fill-opacity:1"
       id="rect5666" />
    <rect
       width="444.47806"
       height="153.85284"
       rx="5"
       ry="5"
       x="24.656855"
       y="27.674097"
       style="fill:#c8c5ac;fill-opacity:1"
       id="rect2899" />
    <rect
       width="116.47806"
       height="154.55995"
       rx="5"
       ry="5"
       x="476.65686"
       y="26.966991"
       style="fill:#c8c5ac;fill-opacity:1"
       id="rect2903" />
    <path
       d="M 533,156 C 521.72872,198.06499 376.45389,218.13378 306.04419,237 L 306.23223,286 M 305.98614,156 L 306.04419,237 C 343.77946,210 419.25,178.77839 419.25,156 M 78,156 C 78,194.92906 228.97066,210.5294 306.04419,237 C 267.94613,210 191.75,193.36417 191.75,156"
       style="fill:none;stroke:#5c5c4f;stroke-width:2"
       id="path5660" />
    <rect
       width="600"
       height="70"
       rx="5"
       ry="5"
       x="10"
       y="80"
       style="fill:white;fill-opacity:1"
       id="rect5625" />
    <path
       d="M 305.78867,184 C 295.9563,184 287.25359,188.81569 281.92053,196.24007 C 269.11872,196.2819 258.74093,206.68464 258.7409,219.4962 C 242.24574,219.4962 242.25681,242.75234 258.20537,242.75234 C 262.11151,242.75234 265.54139,240.7534 267.5767,237.74156 C 275.22483,243.60729 284.66116,244.00045 293.12784,239.88356 C 301.55784,243.90595 312.27501,243.51399 319.06149,239.57757 C 326.32237,243.98919 336.0768,244.15751 342.76799,238.68547 C 344.78438,242.14112 349.08513,242.75234 353.37192,242.75234 C 359.79063,242.75234 365.00002,237.54296 365,231.12426 C 364.45181,222.33906 356.44667,217.75019 348.59065,220.49071 C 347.37514,212.65379 341.48583,206.37337 333.82608,204.65513 C 330.11556,192.68176 318.97646,184 305.78867,184 z "
       style="fill:#5c5c4f"
       id="path74038" />
    <g
       transform="translate(-120,-520)"
       id="g5586">
      <rect
         width="91"
         height="95"
         rx="10"
         ry="10"
         x="154"
         y="585"
         style="fill:#5c5c4f"
         id="rect5569" />
      <g
         transform="matrix(-0.442397,1.651046,-1.628966,-0.43648,250.8304,571.4766)"
         id="g5739">
        <path
           d="M 10.98,7.35 L 10.98,31.17 L 24.76,45.05 C 24.76,45.05 28.25,45.27 31.9,44.16 C 35.55,43.05 36.95,41.49 36.95,41.49 L 36.95,17.46 L 23.59,4.07 L 10.98,7.35 z "
           style="fill:url(#linearGradient5774)"
           id="path4374" />
        <path
           d="M 36.18,16.79 L 23.61,3.9 L 10.61,7.23 L 24.81,21.11 C 24.81,21.11 28.44,21 31.76,20.11 C 35.07,19.22 37.03,17.66 37.03,17.66 L 36.18,16.79 z "
           style="fill:url(#linearGradient5776)"
           id="path4376" />
        <path
           d="M 10.98,7.35 L 10.98,31.17 L 24.76,45.05 C 24.76,45.05 28.25,45.27 31.9,44.16 C 35.55,43.05 36.95,41.49 36.95,41.49 L 36.95,17.46 L 23.59,4.07 L 10.98,7.35 z "
           style="fill:none;stroke:black;stroke-width:1.17798054;stroke-linecap:round;stroke-linejoin:round;stroke-miterlimit:4;stroke-dasharray:none"
           id="path4378" />
        <path
           d="M 10.98,7.35 L 10.98,31.17 L 24.76,45.05 C 24.76,45.05 28.25,45.27 31.9,44.16 C 35.55,43.05 36.95,41.49 36.95,41.49 L 36.95,17.46 L 23.59,4.07 L 10.98,7.35 z "
           style="fill:url(#linearGradient5778)"
           id="path4380" />
        <path
           d="M 24.52,14.7 L 37,17.81 L 37,41.59 C 33.22,44.88 29.67,44.95 24.7,45 L 24.52,14.7 z "
           style="fill:url(#linearGradient5780)"
           id="path4382" />
        <path
           d="M 23.58,4.02 L 11.03,7.42 L 24.81,21.11 C 24.81,21.11 28.44,21 31.76,20.11 C 35.07,19.22 37.03,17.66 37.03,17.66 L 23.58,4.02 z "
           style="fill:url(#linearGradient5782)"
           id="path4384" />
        <path
           d="M 11.27,7.58 L 24.82,21.12 C 24.82,21.12 28.03,21.33 31.68,20.35 C 35.18,19.41 36.83,17.71 36.83,17.71"
           style="fill:none;stroke:white;stroke-width:0.28271511;stroke-linecap:round"
           id="path4386" />
        <path
           d="M 24.74,21.3 L 24.74,44.76"
           style="fill:none;stroke:white;stroke-width:0.28271511;stroke-linecap:round"
           id="path4388" />
        <path
           d="M 27.44,23.79 C 30.4,23.66 33.22,22.96 35.54,21.38 C 35.75,21.91 35.7,23.06 35.54,23.36 C 35.45,23.45 34.62,23.99 33.18,24.54 C 31.77,25.07 29.77,25.62 27.47,25.68 C 27.19,25.22 27.27,24.04 27.44,23.79 z "
           style="fill:gray"
           id="path4390" />
        <path
           d="M 35.53,23.38 L 27.44,25.56 C 27.45,25.6 27.45,25.66 27.47,25.69 C 29.78,25.63 31.78,25.07 33.19,24.53 C 34.63,23.98 35.44,23.46 35.53,23.38 z "
           style="fill:#b2b2b2"
           id="path4392" />
        <path
           d="M 27.44,27.28 C 30.4,27.16 33.22,26.46 35.54,24.88 C 35.75,25.4 35.7,26.56 35.54,26.86 C 35.45,26.95 34.62,27.49 33.18,28.03 C 31.77,28.57 29.77,29.12 27.47,29.18 C 27.19,28.72 27.27,27.54 27.44,27.28 z "
           style="fill:gray"
           id="path4394" />
        <path
           d="M 35.53,26.87 L 27.44,29.06 C 27.45,29.1 27.45,29.16 27.47,29.19 C 29.78,29.13 31.78,28.57 33.19,28.03 C 34.63,27.48 35.44,26.96 35.53,26.87 z "
           style="fill:#b2b2b2"
           id="path4396" />
        <path
           d="M 27.21,42.71 L 27.21,31.52 C 27.21,31.52 29,31.51 31.85,30.69 C 34.68,29.87 35.58,29.02 35.58,29.02 L 35.58,40.05 C 35.58,40.05 34.21,41.19 31.54,41.98 C 28.88,42.76 27.21,42.71 27.21,42.71 z "
           style="fill:none;stroke:#b2b2b2;stroke-width:0.28271511;stroke-linecap:round;stroke-linejoin:round"
           id="path4398" />
        <path
           d="M 31.68,37.72 C 32.29,37.54 32.79,37.95 32.79,38.62 C 32.79,39.29 32.29,39.97 31.68,40.15 C 31.07,40.33 30.58,39.93 30.58,39.27 C 30.58,38.58 31.07,37.9 31.68,37.72 z "
           style="fill:url(#radialGradient5784);stroke:#328e36;stroke-width:0.25915551"
           id="path4400" />
      </g>
      <rect
         width="79"
         height="15"
         rx="5"
         ry="5"
         x="160"
         y="658"
         style="fill:#e3dcc0"
         id="rect5551" />
      <text
         x="203.54591"
         y="669"
         style="font-size:10px;font-style:normal;font-variant:normal;font-weight:normal;font-stretch:normal;text-align:center;line-height:125%;writing-mode:lr-tb;text-anchor:middle;fill:#5c5c4f;font-family:Interstate-Regular"
         id="text5553"
         xml:space="preserve"
         sodipodi:linespacing="125%"><tspan
           x="203.54591"
           y="669"
           style="fill:#5c5c4f"
           id="tspan5555">GULM Client</tspan></text>
      <g
         id="g5576">
        <rect
           width="38"
           height="15"
           rx="5"
           ry="5"
           x="160"
           y="630"
           style="fill:#e3dcc0"
           id="rect5547" />
        <text
           x="179.66656"
           y="641"
           style="font-size:10px;font-style:normal;font-variant:normal;font-weight:normal;font-stretch:normal;text-align:center;line-height:125%;writing-mode:lr-tb;text-anchor:middle;fill:#5c5c4f;font-family:Interstate-Regular"
           id="text5557"
           xml:space="preserve"><tspan
             x="179.66656"
             y="641"
             style="fill:#5c5c4f"
             id="tspan5559">GFS</tspan></text>
      </g>
      <g
         transform="translate(-6,0)"
         id="g5571">
        <use
           transform="translate(47,0)"
           id="use5549"
           x="0"
           y="0"
           width="744.09448"
           height="600"
           xlink:href="#rect5547" />
        <text
           x="225.43359"
           y="641"
           style="font-size:10px;font-style:normal;font-variant:normal;font-weight:normal;font-stretch:normal;text-align:center;line-height:125%;writing-mode:lr-tb;text-anchor:middle;fill:#5c5c4f;font-family:Interstate-Regular"
           id="text5561"
           xml:space="preserve"><tspan
             x="225.43359"
             y="641"
             style="fill:#5c5c4f"
             id="tspan5563">CLVM</tspan></text>
      </g>
      <path
         d="M 178.69349,644.69349 L 178.69349,659.69349"
         style="fill:none;stroke:#e3dcc0;stroke-width:2"
         id="path5565" />
      <use
         transform="translate(41.61302,-0.102172)"
         style="stroke:#c8c5ac"
         id="use5567"
         x="0"
         y="0"
         width="744.09448"
         height="600"
         xlink:href="#path5565" />
    </g>
    <use
       transform="translate(113,0)"
       id="use5617"
       x="0"
       y="0"
       width="744.09448"
       height="600"
       xlink:href="#g5586" />
    <use
       transform="translate(226,0)"
       id="use5619"
       x="0"
       y="0"
       width="744.09448"
       height="600"
       xlink:href="#g5586" />
    <use
       transform="translate(339,0)"
       id="use5623"
       x="0"
       y="0"
       width="744.09448"
       height="600"
       xlink:href="#g5586" />
    <rect
       width="539"
       height="38.868103"
       rx="10"
       ry="10"
       x="35"
       y="263"
       style="fill:#a70000"
       id="rect5627" />
    <g
       transform="matrix(1.13733,0,0,1.13733,187.7043,257.6503)"
       id="g36679">
      <path
         d="M 15.668619,34.233452 L 3.0932858,22.173452 C 2.9697964,22.033452 2.897761,21.843452 2.897761,21.613452 L 2.897761,14.893452 C 2.897761,14.313452 3.3814276,13.723452 3.9885836,13.573452 L 25.321371,8.4434523 C 25.691839,8.3534523 26.010853,8.4534523 26.206378,8.6734523 L 38.76113,20.703452 C 38.9052,20.883452 38.977236,21.063452 38.977236,21.283452 L 38.977236,28.003452 C 38.977236,28.583452 38.493569,29.173452 37.886413,29.323452 L 16.553626,34.453452 C 16.183158,34.533452 15.864144,34.443452 15.668619,34.233452 z "
         style="fill:url(#linearGradient5786);stroke:black;stroke-width:1.75850463;stroke-miterlimit:3.86369991;stroke-dasharray:none"
         id="path20053" />
      <path
         d="M 15.668621,34.233452 L 3.093286,22.173452 C 2.9697967,22.033452 2.8977612,21.843452 2.8977612,21.613452 L 2.8977612,14.893452 C 2.8977612,14.313452 3.3814279,13.723452 3.988584,13.573452 L 25.321373,8.4434523 C 25.691841,8.3534523 26.010855,8.4534523 26.20638,8.6734523 L 38.792005,20.743452 L 15.668621,34.233452 z "
         style="fill:url(#linearGradient5788);fill-rule:evenodd"
         id="path20066" />
      <path
         d="M 16.543337,25.613452 L 37.876126,20.483452 C 38.472991,20.343452 38.966948,20.693452 38.966948,21.273452 L 38.966948,27.993452 C 38.966948,28.573452 38.483282,29.163452 37.876126,29.313452 L 16.543337,34.443452 C 15.946472,34.593452 15.452514,34.233452 15.452514,33.653452 L 15.452514,26.933452 C 15.452514,26.353452 15.936181,25.763452 16.543337,25.613452 z "
         style="fill:url(#linearGradient5790);fill-rule:evenodd"
         id="path20073" />
      <path
         d="M 37.258679,20.193452 C 38.298048,19.923452 38.966948,20.423452 38.966948,21.493452 L 38.966948,27.873452 C 38.966948,28.633452 38.370083,29.333452 37.639438,29.513452 L 17.212238,34.573452 C 16.656536,34.703452 15.503968,34.713452 15.503968,33.413452 L 15.503968,26.893452 C 15.503968,26.133452 16.100833,25.433452 16.831479,25.253452 L 37.258679,20.193452 z M 16.471301,33.683452 C 16.533046,33.683452 16.646245,33.683452 16.821188,33.643452 L 37.258679,28.583452 C 37.67031,28.483452 37.999615,28.053452 37.999615,27.713452 L 37.999615,21.333452 C 37.999615,21.183452 37.999615,21.123452 37.979033,21.073452 C 37.917289,21.073452 37.80409,21.083452 37.639438,21.123452 L 17.201947,26.193452 C 16.790316,26.293452 16.461011,26.723452 16.461011,27.063452 L 16.461011,33.583452 L 16.471301,33.683452 z "
         style="fill:url(#linearGradient5792)"
         id="path20082" />
      <path
         d="M 34.222898,26.90345 L 36.023785,26.49345 C 37.176353,26.23345 37.176353,27.91345 36.023785,28.17345 L 34.222898,28.58345 C 33.070331,28.85345 33.070331,27.16345 34.222898,26.90345 z "
         style="fill:url(#linearGradient5794)"
         id="path20091" />
      <line
         stroke-miterlimit="3.8637"
         x1="34.161156"
         y1="27.623451"
         x2="35.890015"
         y2="27.22345"
         id="line20093"
         style="fill:none;stroke:#7cc771;stroke-width:1.14049995;stroke-linecap:round;stroke-miterlimit:3.86369991" />
      <path
         d="M 3.7210237,21.753452 L 14.546925,31.813452 L 14.495472,28.473452 C 12.622549,29.333452 3.7210237,19.643452 3.7210237,19.643452 L 3.7210237,21.753452 z "
         style="fill:url(#linearGradient5796);fill-rule:evenodd"
         id="path20100" />
      <path
         d="M 25.506607,9.3634523 L 36.394253,19.493452 L 25.249338,22.433452 C 17.386146,15.343452 19.091329,10.003452 22.995657,10.003452 L 25.506607,9.3634523 z "
         style="fill:url(#linearGradient5798);fill-rule:evenodd"
         id="path20107" />
    </g>
    <text
       x="264.20575"
       y="286.81445"
       style="font-size:12px;font-style:normal;font-variant:normal;font-weight:normal;font-stretch:normal;text-align:center;line-height:125%;writing-mode:lr-tb;fill:white;font-family:Interstate-Bold"
       id="text5652"
       xml:space="preserve"><tspan
         x="264.20575"
         y="286.81445"
         id="tspan5654">Shared Storage</tspan></text>
    <text
       x="484.3605"
       y="44.487305"
       style="font-size:12px;font-style:normal;font-variant:normal;font-weight:normal;font-stretch:normal;text-align:start;line-height:125%;writing-mode:lr-tb;text-anchor:start;fill:black;font-family:Interstate-Bold"
       id="text2006"
       xml:space="preserve"><tspan
         x="484.3605"
         y="44.487305"
         id="tspan2008">Lock Server Node</tspan></text>
    <text
       x="212.83731"
       y="45.099304"
       style="font-size:12px;font-style:normal;font-variant:normal;font-weight:normal;font-stretch:normal;text-align:start;line-height:125%;writing-mode:lr-tb;text-anchor:start;fill:black;font-family:Interstate-Bold"
       id="text5656"
       xml:space="preserve"><tspan
         x="212.83731"
         y="45.099304"
         id="tspan5658">Cluster Nodes</tspan></text>
    <g
       transform="translate(340,-520)"
       id="g2003">
      <rect
         width="91"
         height="95"
         rx="10"
         ry="10"
         x="154"
         y="585"
         style="fill:#5c5c4f"
         id="rect2005" />
      <rect
         width="79"
         height="38.263466"
         rx="5"
         ry="5"
         x="160"
         y="634.73657"
         style="fill:#e3dcc0"
         id="rect2037" />
      <text
         x="200.34868"
         y="655.24829"
         style="font-size:10px;font-style:normal;font-variant:normal;font-weight:normal;font-stretch:normal;text-align:center;line-height:125%;writing-mode:lr-tb;text-anchor:middle;fill:#5c5c4f;font-family:Interstate-Regular"
         id="text2039"
         xml:space="preserve"><tspan
           x="200.34868"
           y="655.24829"
           style="fill:#5c5c4f;font-family:Interstate-Bold"
           id="tspan2041">GULM Server</tspan></text>
    </g>
    <use
       transform="translate(340.1155,-520.4309)"
       id="use2075"
       x="0"
       y="0"
       width="620"
       height="320"
       xlink:href="#g5739" />
  </g>
  <g
     style="opacity:1"
     id="layer1" />
</svg>
