<?xml version="1.0" encoding="UTF-8" standalone="no"?>
<!-- Created with Inkscape (http://www.inkscape.org/) -->
<svg
   xmlns:a="http://ns.adobe.com/AdobeSVGViewerExtensions/3.0/"
   xmlns:dc="http://purl.org/dc/elements/1.1/"
   xmlns:cc="http://web.resource.org/cc/"
   xmlns:rdf="http://www.w3.org/1999/02/22-rdf-syntax-ns#"
   xmlns:svg="http://www.w3.org/2000/svg"
   xmlns="http://www.w3.org/2000/svg"
   xmlns:xlink="http://www.w3.org/1999/xlink"
   xmlns:sodipodi="http://sodipodi.sourceforge.net/DTD/sodipodi-0.dtd"
   xmlns:inkscape="http://www.inkscape.org/namespaces/inkscape"
   version="1.0"
   width="392.16534"
   height="362.86252"
   id="svg3017"
   sodipodi:version="0.32"
   inkscape:version="0.44+devel"
   sodipodi:docname="clustercomputer1.svg"
   sodipodi:docbase="/home/andy/Desktop/stuff"
   inkscape:export-filename="/home/andy/Desktop/clustercomputer1.png"
   inkscape:export-xdpi="90"
   inkscape:export-ydpi="90">
  <metadata
     id="metadata419">
    <rdf:RDF>
      <cc:Work
         rdf:about="">
        <dc:format>image/svg+xml</dc:format>
        <dc:type
           rdf:resource="http://purl.org/dc/dcmitype/StillImage" />
      </cc:Work>
    </rdf:RDF>
  </metadata>
  <sodipodi:namedview
     inkscape:window-height="728"
     inkscape:window-width="921"
     inkscape:pageshadow="0"
     inkscape:pageopacity="0.0"
     guidetolerance="10.0"
     gridtolerance="10.0"
     objecttolerance="10.0"
     borderopacity="1.0"
     bordercolor="#666666"
     pagecolor="#ffffff"
     id="base"
     inkscape:zoom="1"
     inkscape:cx="196.08267"
     inkscape:cy="180.29688"
     inkscape:window-x="6"
     inkscape:window-y="66"
     inkscape:current-layer="svg3017" />
  <defs
     id="defs3019">
    <pattern
       patternTransform="matrix(0.375,0,0,0.375,442,-142)"
       id="pattern3347"
       xlink:href="#white-spots" />
    <linearGradient
       id="linearGradient2785">
      <stop
         style="stop-color:black;stop-opacity:1"
         offset="0"
         id="stop2787" />
      <stop
         style="stop-color:black;stop-opacity:0"
         offset="1"
         id="stop2789" />
    </linearGradient>
    <marker
       refX="0"
       refY="0"
       orient="auto"
       style="overflow:visible"
       id="TriangleOutM">
      <path
         d="M 5.77,0 L -2.88,5 L -2.88,-5 L 5.77,0 z "
         transform="scale(0.4,0.4)"
         style="fill:#5c5c4f;fill-rule:evenodd;stroke-width:1pt;marker-start:none"
         id="path3238" />
    </marker>
    <radialGradient
       cx="603.19"
       cy="230.77"
       r="1.67"
       fx="603.19"
       fy="230.77"
       id="x5010_"
       gradientUnits="userSpaceOnUse"
       gradientTransform="matrix(1.1,0,0,1.1,-54.33,-75.4)">
      <stop
         style="stop-color:#c9ffc9;stop-opacity:1"
         offset="0"
         id="stop29201" />
      <stop
         style="stop-color:#23a11f;stop-opacity:1"
         offset="1"
         id="stop29203" />
      <a:midPointStop
         offset="0"
         style="stop-color:#C9FFC9" />
      <a:midPointStop
         offset="0.5"
         style="stop-color:#C9FFC9" />
      <a:midPointStop
         offset="1"
         style="stop-color:#23A11F" />
    </radialGradient>
    <radialGradient
       cx="603.19"
       cy="230.77"
       r="1.67"
       fx="603.19"
       fy="230.77"
       id="radialGradient5711"
       xlink:href="#x5010_"
       gradientUnits="userSpaceOnUse"
       gradientTransform="matrix(1.23,0,0,1.23,-709.93,-245.02)" />
    <linearGradient
       x1="592.31"
       y1="162.60001"
       x2="609.32001"
       y2="145.59"
       id="lg5722"
       xlink:href="#x5003_"
       gradientUnits="userSpaceOnUse"
       gradientTransform="matrix(1.12,0,0,1.12,-649.08,-160.62)" />
    <linearGradient
       x1="601.48999"
       y1="170.16"
       x2="613.84003"
       y2="170.16"
       id="x5002_"
       gradientUnits="userSpaceOnUse">
      <stop
         style="stop-color:#d9d9d9;stop-opacity:1"
         offset="0"
         id="stop29134" />
      <stop
         style="stop-color:white;stop-opacity:1"
         offset="0.2"
         id="stop29136" />
      <stop
         style="stop-color:#999;stop-opacity:1"
         offset="1"
         id="stop29138" />
      <a:midPointStop
         offset="0"
         style="stop-color:#D9D9D9" />
      <a:midPointStop
         offset="0.5"
         style="stop-color:#D9D9D9" />
      <a:midPointStop
         offset="0.20"
         style="stop-color:#FFFFFF" />
      <a:midPointStop
         offset="0.5"
         style="stop-color:#FFFFFF" />
      <a:midPointStop
         offset="1"
         style="stop-color:#999999" />
    </linearGradient>
    <linearGradient
       x1="601.48999"
       y1="170.16"
       x2="613.84003"
       y2="170.16"
       id="lg5725"
       xlink:href="#x5002_"
       gradientUnits="userSpaceOnUse"
       gradientTransform="matrix(1.12,0,0,1.12,-649.08,-160.62)" />
    <linearGradient
       x1="592.20001"
       y1="156.45"
       x2="609.98999"
       y2="174.23"
       id="x5004_"
       gradientUnits="userSpaceOnUse"
       gradientTransform="matrix(1.12,0,0,1.12,-649.08,-160.62)">
      <stop
         style="stop-color:#d9d9d9;stop-opacity:1"
         offset="0"
         id="stop29157" />
      <stop
         style="stop-color:white;stop-opacity:1"
         offset="1"
         id="stop29159" />
      <a:midPointStop
         offset="0"
         style="stop-color:#D9D9D9" />
      <a:midPointStop
         offset="0.5"
         style="stop-color:#D9D9D9" />
      <a:midPointStop
         offset="1"
         style="stop-color:#FFFFFF" />
    </linearGradient>
    <linearGradient
       x1="592.20001"
       y1="156.45"
       x2="609.98999"
       y2="174.23"
       id="lg5728"
       xlink:href="#x5004_"
       gradientUnits="userSpaceOnUse"
       gradientTransform="matrix(1.12,0,0,1.12,-649.08,-160.62)" />
    <linearGradient
       x1="592.31"
       y1="162.60001"
       x2="609.32001"
       y2="145.59"
       id="x5003_"
       gradientUnits="userSpaceOnUse">
      <stop
         style="stop-color:#f2f2f2;stop-opacity:1"
         offset="0"
         id="stop29143" />
      <stop
         style="stop-color:#e5e5e5;stop-opacity:1"
         offset="1"
         id="stop29145" />
      <a:midPointStop
         offset="0"
         style="stop-color:#F2F2F2" />
      <a:midPointStop
         offset="0.5"
         style="stop-color:#F2F2F2" />
      <a:midPointStop
         offset="1"
         style="stop-color:#E5E5E5" />
    </linearGradient>
    <linearGradient
       x1="592.31"
       y1="162.60001"
       x2="609.32001"
       y2="145.59"
       id="lg5732"
       xlink:href="#x5003_"
       gradientUnits="userSpaceOnUse"
       gradientTransform="matrix(1.12,0,0,1.12,-649.08,-160.62)" />
    <linearGradient
       x1="592.20001"
       y1="156.45"
       x2="609.98999"
       y2="174.24001"
       id="x5000_"
       gradientUnits="userSpaceOnUse"
       gradientTransform="matrix(1.12,0,0,1.12,-649.08,-160.62)">
      <stop
         style="stop-color:#d9d9d9;stop-opacity:1"
         offset="0"
         id="stop29124" />
      <stop
         style="stop-color:white;stop-opacity:1"
         offset="1"
         id="stop29126" />
      <a:midPointStop
         offset="0"
         style="stop-color:#D9D9D9" />
      <a:midPointStop
         offset="0.5"
         style="stop-color:#D9D9D9" />
      <a:midPointStop
         offset="1"
         style="stop-color:#FFFFFF" />
    </linearGradient>
    <linearGradient
       x1="592.20001"
       y1="156.45"
       x2="609.98999"
       y2="174.24001"
       id="lg5735"
       xlink:href="#x5000_"
       gradientUnits="userSpaceOnUse"
       gradientTransform="matrix(1.12,0,0,1.12,-649.08,-160.62)" />
    <pattern
       patternTransform="matrix(0.375,0,0,0.375,379,400)"
       id="white-spots"
       height="32"
       width="32"
       patternUnits="userSpaceOnUse">
      <g
         transform="translate(-484.3997,-513.505)"
         id="white-spot"
         inkscape:label="#g3035">
        <path
           style="opacity:0.25;fill:white"
           id="path3033"
           d="M 509.39967,529.50504 C 509.39967,534.47304 505.36767,538.50504 500.39967,538.50504 C 495.43167,538.50504 491.39967,534.47304 491.39967,529.50504 C 491.39967,524.53704 495.43167,520.50504 500.39967,520.50504 C 505.36767,520.50504 509.39967,524.53704 509.39967,529.50504 z "
           sodipodi:nodetypes="czzzz" />
      </g>
    </pattern>
    <linearGradient
       x1="38.810085"
       y1="42.932034"
       x2="32.340218"
       y2="36.462166"
       id="linearGradient3348"
       xlink:href="#linearGradient2785"
       gradientUnits="userSpaceOnUse" />
    <linearGradient
       x1="20.183903"
       y1="-236.96107"
       x2="20.183903"
       y2="38.55719"
       id="linearGradient3350"
       xlink:href="#linearGradient2785"
       gradientUnits="userSpaceOnUse" />
  </defs>
  <g
     transform="translate(-199.4331,-76.53906)"
     id="layer-resources">
    <rect
       width="392.16534"
       height="362.86252"
       rx="20"
       ry="20"
       x="199.43307"
       y="76.539062"
       style="fill:#e3dcc0"
       id="rect1933" />
    <rect
       width="384.16534"
       height="360.86252"
       rx="20"
       ry="20"
       x="201.43307"
       y="76.539062"
       style="fill:url(#pattern3347);fill-opacity:1"
       id="rect2455" />
    <rect
       width="336.97546"
       height="220.86809"
       rx="10"
       ry="10"
       x="225.56369"
       y="177.56592"
       style="fill:white;stroke:none"
       id="rect3417" />
    <rect
       width="96.33239"
       height="91.315254"
       rx="5"
       ry="5"
       x="422.09842"
       y="238.47211"
       style="fill:#5c5c4f"
       id="rect2058" />
    <g
       transform="translate(445.2291,242.0008)"
       id="g2417">
      <path
         d="M 30.48551,42.98 L 12.04551,42.98 L 12.04551,9 L 38.02551,9 L 38.00551,35.44 C 38.01551,39.03 33.98551,42.98 30.48551,42.98 z "
         style="fill:none;fill-rule:evenodd;stroke:black;stroke-width:2;stroke-linecap:round;stroke-linejoin:round;stroke-miterlimit:3.86369991"
         id="path2419" />
      <path
         d="M 30.48551,42.98 L 12.04551,42.98 L 12.04551,9 L 38.02551,9 L 38.00551,35.44 C 38.01551,39.03 33.98551,42.98 30.48551,42.98 z "
         style="fill:white;fill-rule:evenodd;stroke:none;stroke-width:2;stroke-linecap:round;stroke-linejoin:round;stroke-miterlimit:3.86369991"
         id="path2421" />
      <path
         d="M 30.504408,42.999191 C 30.504408,42.999191 33.250616,42.207097 33.250616,38.006231 C 37.152676,38.006231 38.018499,35.358611 38.018499,35.358611 C 38.018499,38.915187 34.436592,42.999191 30.504408,42.999191 z "
         style="fill:url(#linearGradient3348);fill-opacity:1;fill-rule:evenodd"
         id="path2423" />
      <path
         d="M 30.48551,42.98 L 13.04551,42.98 L 13.04551,10 L 37.02551,10 L 37.00551,35.44 C 37.01551,39.03 33.98551,42.98 30.48551,42.98 z "
         style="fill:url(#linearGradient3350);fill-opacity:1;fill-rule:evenodd;stroke:none;stroke-width:2;stroke-linecap:round;stroke-linejoin:round;stroke-miterlimit:3.86369991"
         id="path2425" />
    </g>
    <g
       transform="translate(173,-457.8787)"
       id="g3376">
      <g
         id="g3356">
        <g
           transform="translate(157.1407,564.2573)"
           id="g5739">
          <path
             d="M 10.98,7.35 L 10.98,31.17 L 24.76,45.05 C 24.76,45.05 28.25,45.27 31.9,44.16 C 35.55,43.05 36.95,41.49 36.95,41.49 L 36.95,17.46 L 23.59,4.07 L 10.98,7.35 z "
             style="fill:url(#lg5735)"
             id="path4374" />
          <path
             d="M 36.18,16.79 L 23.61,3.9 L 10.61,7.23 L 24.81,21.11 C 24.81,21.11 28.44,21 31.76,20.11 C 35.07,19.22 37.03,17.66 37.03,17.66 L 36.18,16.79 z "
             style="fill:url(#lg5732)"
             id="path4376" />
          <path
             d="M 10.98,7.35 L 10.98,31.17 L 24.76,45.05 C 24.76,45.05 28.25,45.27 31.9,44.16 C 35.55,43.05 36.95,41.49 36.95,41.49 L 36.95,17.46 L 23.59,4.07 L 10.98,7.35 z "
             style="fill:none;stroke:black;stroke-width:1.92999995;stroke-linecap:round;stroke-linejoin:round"
             id="path4378" />
          <path
             d="M 10.98,7.35 L 10.98,31.17 L 24.76,45.05 C 24.76,45.05 28.25,45.27 31.9,44.16 C 35.55,43.05 36.95,41.49 36.95,41.49 L 36.95,17.46 L 23.59,4.07 L 10.98,7.35 z "
             style="fill:url(#lg5728)"
             id="path4380" />
          <path
             d="M 24.52,14.7 L 37,17.81 L 37,41.59 C 33.22,44.88 29.67,44.95 24.7,45 L 24.52,14.7 z "
             style="fill:url(#lg5725)"
             id="path4382" />
          <path
             d="M 23.58,4.02 L 11.03,7.42 L 24.81,21.11 C 24.81,21.11 28.44,21 31.76,20.11 C 35.07,19.22 37.03,17.66 37.03,17.66 L 23.58,4.02 z "
             style="fill:url(#lg5722)"
             id="path4384" />
          <path
             d="M 11.27,7.58 L 24.82,21.12 C 24.82,21.12 28.03,21.33 31.68,20.35 C 35.18,19.41 36.83,17.71 36.83,17.71"
             style="fill:none;stroke:white;stroke-width:0.47999999;stroke-linecap:round"
             id="path4386" />
          <path
             d="M 24.74,21.3 L 24.74,44.76"
             style="fill:none;stroke:white;stroke-width:0.47999999;stroke-linecap:round"
             id="path4388" />
          <path
             d="M 27.44,23.79 C 30.4,23.66 33.22,22.96 35.54,21.38 C 35.75,21.91 35.7,23.06 35.54,23.36 C 35.45,23.45 34.62,23.99 33.18,24.54 C 31.77,25.07 29.77,25.62 27.47,25.68 C 27.19,25.22 27.27,24.04 27.44,23.79 z "
             style="fill:gray"
             id="path4390" />
          <path
             d="M 35.53,23.38 L 27.44,25.56 C 27.45,25.6 27.45,25.66 27.47,25.69 C 29.78,25.63 31.78,25.07 33.19,24.53 C 34.63,23.98 35.44,23.46 35.53,23.38 z "
             style="fill:#b2b2b2"
             id="path4392" />
          <path
             d="M 27.44,27.28 C 30.4,27.16 33.22,26.46 35.54,24.88 C 35.75,25.4 35.7,26.56 35.54,26.86 C 35.45,26.95 34.62,27.49 33.18,28.03 C 31.77,28.57 29.77,29.12 27.47,29.18 C 27.19,28.72 27.27,27.54 27.44,27.28 z "
             style="fill:gray"
             id="path4394" />
          <path
             d="M 35.53,26.87 L 27.44,29.06 C 27.45,29.1 27.45,29.16 27.47,29.19 C 29.78,29.13 31.78,28.57 33.19,28.03 C 34.63,27.48 35.44,26.96 35.53,26.87 z "
             style="fill:#b2b2b2"
             id="path4396" />
          <path
             d="M 27.21,42.71 L 27.21,31.52 C 27.21,31.52 29,31.51 31.85,30.69 C 34.68,29.87 35.58,29.02 35.58,29.02 L 35.58,40.05 C 35.58,40.05 34.21,41.19 31.54,41.98 C 28.88,42.76 27.21,42.71 27.21,42.71 z "
             style="fill:none;stroke:#b2b2b2;stroke-width:0.47999999;stroke-linecap:round;stroke-linejoin:round"
             id="path4398" />
          <path
             d="M 31.68,37.72 C 32.29,37.54 32.79,37.95 32.79,38.62 C 32.79,39.29 32.29,39.97 31.68,40.15 C 31.07,40.33 30.58,39.93 30.58,39.27 C 30.58,38.58 31.07,37.9 31.68,37.72 z "
             style="fill:url(#radialGradient5711);stroke:#328e36;stroke-width:0.44"
             id="path4400" />
        </g>
        <use
           transform="translate(40.90381,0)"
           id="use3352"
           x="0"
           y="0"
           width="744.09448"
           height="600"
           xlink:href="#g5739" />
        <use
           transform="translate(97.4246,0)"
           style="opacity:0.18644068"
           id="use3336"
           x="0"
           y="0"
           width="744.09448"
           height="600"
           xlink:href="#g5739" />
        <use
           transform="translate(104.6924,0)"
           style="opacity:0.5"
           id="use3437"
           x="0"
           y="0"
           width="744.09448"
           height="600"
           xlink:href="#g5739" />
        <use
           transform="translate(24.61091,12)"
           id="use3316"
           x="0"
           y="0"
           width="744.09448"
           height="600"
           xlink:href="#g5739" />
        <use
           transform="translate(67.34315,12)"
           id="use3318"
           x="0"
           y="0"
           width="744.09448"
           height="600"
           xlink:href="#g5739" />
        <use
           transform="translate(112.3493,0)"
           style="opacity:1"
           id="use3332"
           x="0"
           y="0"
           width="744.09448"
           height="600"
           xlink:href="#g5739" />
      </g>
    </g>
    <use
       transform="matrix(3.213022,0,0,3.213022,-277.9244,-1719.068)"
       id="use3354"
       x="0"
       y="0"
       width="744.09448"
       height="600"
       xlink:href="#g5739" />
    <flowRoot
       transform="translate(38.35786,-544.149)"
       style="font-size:10.52000046px;font-style:normal;font-variant:normal;font-weight:normal;font-stretch:normal;text-align:center;line-height:100%;writing-mode:lr-tb;text-anchor:middle;fill:#5c5c4f;font-family:Interstate-Regular"
       id="flowRoot3427"
       xml:space="preserve"><flowRegion
         id="flowRegion3429"><rect
           width="99.443649"
           height="29.008621"
           x="321"
           y="755"
           style="font-size:10.52000046px;font-style:normal;font-variant:normal;font-weight:normal;font-stretch:normal;text-align:center;line-height:100%;writing-mode:lr-tb;text-anchor:middle;fill:#5c5c4f;font-family:Interstate-Regular"
           id="rect3431" /></flowRegion><flowPara
         style="font-size:10.52000046px"
         id="flowPara3433">Updates cluster membership</flowPara></flowRoot>    <flowRoot
       transform="translate(106.7645,-466.5)"
       style="font-size:12px;font-style:normal;font-variant:normal;font-weight:normal;font-stretch:normal;text-align:center;line-height:100%;writing-mode:lr-tb;text-anchor:middle;fill:white;font-family:Interstate-Bold"
       id="flowRoot3439"
       xml:space="preserve"><flowRegion
         id="flowRegion3441"><rect
           width="85"
           height="61.5"
           x="321"
           y="755"
           style="font-size:12px;font-style:normal;font-variant:normal;font-weight:normal;font-stretch:normal;text-align:center;line-height:100%;writing-mode:lr-tb;text-anchor:middle;fill:white;font-family:Interstate-Bold"
           id="rect3443" /></flowRegion><flowPara
         id="flowPara3445">Cluster  configuration file</flowPara></flowRoot>    <path
       d="M 400.85786,238.07957 L 400.85786,260.50178"
       style="fill:none;fill-opacity:0.75;fill-rule:evenodd;stroke:#5c5c4f;stroke-width:1.99999976;stroke-linecap:butt;stroke-linejoin:miter;marker-mid:none;marker-end:url(#TriangleOutM);stroke-miterlimit:4;stroke-dasharray:none;stroke-opacity:1"
       id="path3447" />
    <path
       d="M 447.5,271 L 330.5,271"
       style="fill:none;stroke:#5c5c4f;stroke-width:2"
       id="path3449" />
    <rect
       width="96.33239"
       height="51.815254"
       rx="5"
       ry="5"
       x="422.09842"
       y="337.97211"
       style="fill:#5c5c4f"
       id="rect3473" />
    <path
       d="M 330.5,288.91421 L 390,288.91421 L 390,363 L 444.5,363"
       style="fill:none;stroke:#5c5c4f;stroke-width:2"
       id="path3451" />
    <text
       x="225.30151"
       y="96"
       style="font-size:14px;font-style:normal;font-variant:normal;font-weight:normal;font-stretch:normal;text-align:start;line-height:125%;writing-mode:lr-tb;text-anchor:start;fill:#a70000;font-family:Interstate-Bold"
       id="text3453"
       xml:space="preserve"><tspan
         x="225.30151"
         y="96"
         id="tspan3455">Cluster Computer</tspan></text>
    <flowRoot
       transform="translate(109.4858,-400.7662)"
       style="font-size:12px;font-style:normal;font-variant:normal;font-weight:normal;font-stretch:normal;text-align:center;line-height:100%;writing-mode:lr-tb;text-anchor:middle;fill:white;font-family:Interstate-Bold"
       id="flowRoot3461"
       xml:space="preserve"><flowRegion
         id="flowRegion3463"><rect
           width="80"
           height="39"
           x="321"
           y="755"
           style="font-size:12px;font-style:normal;font-variant:normal;font-weight:normal;font-stretch:normal;text-align:center;line-height:100%;writing-mode:lr-tb;text-anchor:middle;fill:white;font-family:Interstate-Bold"
           id="rect3465" /></flowRegion><flowPara
         id="flowPara3467">Quorum count</flowPara></flowRoot>    <flowRoot
       transform="translate(157.5838,-623.1447)"
       style="font-size:12px;font-style:normal;font-variant:normal;font-weight:normal;font-stretch:normal;text-align:center;line-height:100%;writing-mode:lr-tb;text-anchor:middle;fill:#5c5c4f;font-family:Interstate-Regular"
       id="flowRoot3320"
       xml:space="preserve"><flowRegion
         id="flowRegion3322"><rect
           width="79.443649"
           height="51.008621"
           x="321"
           y="755"
           style="font-size:12px;font-style:normal;font-variant:normal;font-weight:normal;font-stretch:normal;text-align:center;line-height:100%;writing-mode:lr-tb;text-anchor:middle;fill:#5c5c4f;font-family:Interstate-Regular"
           id="rect3324" /></flowRegion><flowPara
         id="flowPara3326">computer departing cluster</flowPara></flowRoot>    <path
       d="M 449.82202,160.11161 L 487.24423,160.11161"
       style="fill:none;fill-opacity:0.75;fill-rule:evenodd;stroke:#5c5c4f;stroke-width:1.99999976;stroke-linecap:butt;stroke-linejoin:miter;marker-mid:none;marker-end:url(#TriangleOutM);stroke-miterlimit:4;stroke-dasharray:none;stroke-opacity:1"
       id="path3328" />
    <rect
       width="96.33239"
       height="53.815254"
       rx="5"
       ry="5"
       x="255.22122"
       y="251.97211"
       style="fill:#5c5c4f"
       id="rect3330" />
    <flowRoot
       transform="translate(-60.2355,-488.5)"
       style="font-size:12px;font-style:normal;font-variant:normal;font-weight:normal;font-stretch:normal;text-align:center;line-height:100%;writing-mode:lr-tb;text-anchor:middle;fill:white;font-family:Interstate-Bold"
       id="flowRoot3338"
       xml:space="preserve"><flowRegion
         id="flowRegion3340"><rect
           width="85"
           height="35.5"
           x="321"
           y="755"
           style="font-size:12px;font-style:normal;font-variant:normal;font-weight:normal;font-stretch:normal;text-align:center;line-height:100%;writing-mode:lr-tb;text-anchor:middle;fill:white;font-family:Interstate-Bold"
           id="rect3342" /></flowRegion><flowPara
         id="flowPara3344">Cluster Manager</flowPara></flowRoot>    <flowRoot
       transform="translate(-82.86153,-433.5078)"
       style="font-size:10.52000046px;font-style:normal;font-variant:normal;font-weight:normal;font-stretch:normal;text-align:center;line-height:100%;writing-mode:lr-tb;text-anchor:middle;fill:#5c5c4f;font-family:Interstate-Regular"
       id="flowRoot3369"
       xml:space="preserve"><flowRegion
         id="flowRegion3371"><rect
           width="111.10912"
           height="65.508621"
           x="321"
           y="755"
           style="font-size:10.52000046px;font-style:normal;font-variant:normal;font-weight:normal;font-stretch:normal;text-align:center;line-height:100%;writing-mode:lr-tb;text-anchor:middle;fill:#5c5c4f;font-family:Interstate-Regular"
           id="rect3373" /></flowRegion><flowPara
         style="font-size:10.52000046px"
         id="flowPara3375">Adjusts quorum count and checks if enough computers to meet quorum</flowPara></flowRoot>    <path
       d="M 355.4809,339.44365 L 377.90311,339.44365"
       style="fill:none;fill-opacity:0.75;fill-rule:evenodd;stroke:#5c5c4f;stroke-width:1.99999976;stroke-linecap:butt;stroke-linejoin:miter;marker-mid:none;marker-end:url(#TriangleOutM);stroke-miterlimit:4;stroke-dasharray:none;stroke-opacity:1"
       id="path3377" />
  </g>
  <g
     transform="translate(-199.4331,-76.53906)"
     style="opacity:1"
     id="layer1" />
</svg>
